<svg width="48" height="48" viewBox="0 0 48 48" fill="none" xmlns="http://www.w3.org/2000/svg">
<rect width="48" height="48" rx="24" fill="#F1F8FE"/>
<path d="M33.3346 34.5V32.1667C33.3346 30.929 32.843 29.742 31.9678 28.8668C31.0926 27.9917 29.9056 27.5 28.668 27.5H19.3346C18.097 27.5 16.91 27.9917 16.0348 28.8668C15.1596 29.742 14.668 30.929 14.668 32.1667V34.5M28.668 18.1667C28.668 20.744 26.5786 22.8333 24.0013 22.8333C21.424 22.8333 19.3346 20.744 19.3346 18.1667C19.3346 15.5893 21.424 13.5 24.0013 13.5C26.5786 13.5 28.668 15.5893 28.668 18.1667Z" stroke="#418575" stroke-width="2.33333" stroke-linecap="round" stroke-linejoin="round"/>
</svg>
