<svg width="64" height="64" viewBox="0 0 64 64" fill="none" xmlns="http://www.w3.org/2000/svg">
<rect x="4" y="4" width="56" height="56" rx="12" fill="url(#paint0_radial_6916_25674)"/>
<rect x="4" y="4" width="56" height="56" rx="12" fill="url(#paint1_radial_6916_25674)"/>
<rect x="4" y="4" width="56" height="56" rx="12" fill="url(#paint2_radial_6916_25674)"/>
<path d="M46 21C46 22.6569 44.6569 24 43 24C41.3431 24 40 22.6569 40 21C40 19.3431 41.3431 18 43 18C44.6569 18 46 19.3431 46 21Z" fill="white"/>
<path fill-rule="evenodd" clip-rule="evenodd" d="M32 42C37.5228 42 42 37.5228 42 32C42 26.4772 37.5228 22 32 22C26.4772 22 22 26.4772 22 32C22 37.5228 26.4772 42 32 42ZM32 38C35.3137 38 38 35.3137 38 32C38 28.6863 35.3137 26 32 26C28.6863 26 26 28.6863 26 32C26 35.3137 28.6863 38 32 38Z" fill="white"/>
<path fill-rule="evenodd" clip-rule="evenodd" d="M12 31.2C12 24.4794 12 21.1191 13.3079 18.5521C14.4584 16.2942 16.2942 14.4584 18.5521 13.3079C21.1191 12 24.4794 12 31.2 12H32.8C39.5206 12 42.8809 12 45.4479 13.3079C47.7058 14.4584 49.5416 16.2942 50.6921 18.5521C52 21.1191 52 24.4794 52 31.2V32.8C52 39.5206 52 42.8809 50.6921 45.4479C49.5416 47.7058 47.7058 49.5416 45.4479 50.6921C42.8809 52 39.5206 52 32.8 52H31.2C24.4794 52 21.1191 52 18.5521 50.6921C16.2942 49.5416 14.4584 47.7058 13.3079 45.4479C12 42.8809 12 39.5206 12 32.8V31.2ZM31.2 16H32.8C36.2263 16 38.5555 16.0031 40.3558 16.1502C42.1095 16.2935 43.0063 16.5532 43.6319 16.8719C45.1372 17.6389 46.3611 18.8628 47.1281 20.3681C47.4468 20.9937 47.7065 21.8905 47.8498 23.6442C47.9969 25.4445 48 27.7737 48 31.2V32.8C48 36.2263 47.9969 38.5555 47.8498 40.3558C47.7065 42.1095 47.4468 43.0063 47.1281 43.6319C46.3611 45.1372 45.1372 46.3611 43.6319 47.1281C43.0063 47.4468 42.1095 47.7065 40.3558 47.8498C38.5555 47.9969 36.2263 48 32.8 48H31.2C27.7737 48 25.4445 47.9969 23.6442 47.8498C21.8905 47.7065 20.9937 47.4468 20.3681 47.1281C18.8628 46.3611 17.6389 45.1372 16.8719 43.6319C16.5532 43.0063 16.2935 42.1095 16.1502 40.3558C16.0031 38.5555 16 36.2263 16 32.8V31.2C16 27.7737 16.0031 25.4445 16.1502 23.6442C16.2935 21.8905 16.5532 20.9937 16.8719 20.3681C17.6389 18.8628 18.8628 17.6389 20.3681 16.8719C20.9937 16.5532 21.8905 16.2935 23.6442 16.1502C25.4445 16.0031 27.7737 16 31.2 16Z" fill="white"/>
<defs>
<radialGradient id="paint0_radial_6916_25674" cx="0" cy="0" r="1" gradientUnits="userSpaceOnUse" gradientTransform="translate(24 46) rotate(-55.3758) scale(51.0392)">
<stop stop-color="#B13589"/>
<stop offset="0.79309" stop-color="#C62F94"/>
<stop offset="1" stop-color="#8A3AC8"/>
</radialGradient>
<radialGradient id="paint1_radial_6916_25674" cx="0" cy="0" r="1" gradientUnits="userSpaceOnUse" gradientTransform="translate(22 62) rotate(-65.1363) scale(45.1885)">
<stop stop-color="#E0E8B7"/>
<stop offset="0.444662" stop-color="#FB8A2E"/>
<stop offset="0.71474" stop-color="#E2425C"/>
<stop offset="1" stop-color="#E2425C" stop-opacity="0"/>
</radialGradient>
<radialGradient id="paint2_radial_6916_25674" cx="0" cy="0" r="1" gradientUnits="userSpaceOnUse" gradientTransform="translate(1 6) rotate(-8.1301) scale(77.7817 16.6367)">
<stop offset="0.156701" stop-color="#406ADC"/>
<stop offset="0.467799" stop-color="#6A45BE"/>
<stop offset="1" stop-color="#6A45BE" stop-opacity="0"/>
</radialGradient>
</defs>
</svg>
