<svg width="64" height="64" viewBox="0 0 64 64" fill="none" xmlns="http://www.w3.org/2000/svg">
<path d="M16.898 39.5863C17.2105 36.9985 18.2719 35.5496 20.2719 34.0643C23.1337 32.0527 26.7084 33.1906 26.7084 33.1906V26.4403C27.5774 26.4181 28.4468 26.4696 29.3064 26.5942V35.2812C29.3064 35.2812 25.7328 34.1434 22.871 36.156C20.8721 37.6402 19.8086 39.0901 19.4971 41.6779C19.4873 43.0831 19.751 44.92 20.9654 46.5082C20.6652 46.3543 20.3591 46.1788 20.0473 45.9819C17.3722 44.1856 16.885 41.4907 16.898 39.5863ZM44.0664 13.9589C42.0978 11.8017 41.3534 9.62375 41.0842 8.09375H43.5607C43.5607 8.09375 43.0669 12.1055 46.6655 16.0506L46.7154 16.1037C45.7455 15.4936 44.8561 14.7735 44.0664 13.9589ZM55.9962 20.0748V28.5871C55.9962 28.5871 52.836 28.4633 50.4974 27.8684C47.232 27.0363 45.1332 25.7601 45.1332 25.7601C45.1332 25.7601 43.6833 24.85 43.5661 24.7865V42.3644C43.5661 43.3431 43.2981 45.7874 42.4809 47.826C41.4141 50.4929 39.7679 52.2434 39.4651 52.6012C39.4651 52.6012 37.4629 54.9674 33.9305 56.5609C30.7465 57.9983 27.9509 57.9619 27.1153 57.9983C27.1153 57.9983 22.2828 58.1897 17.9344 55.3637C16.9941 54.7408 16.1163 54.0354 15.3125 53.2565L15.3342 53.2721C19.6838 56.098 24.5151 55.9067 24.5151 55.9067C25.3518 55.8703 28.1474 55.9067 31.3303 54.4692C34.8594 52.8758 36.8649 50.5095 36.8649 50.5095C37.1644 50.1517 38.8183 48.4012 39.8807 45.7333C40.6957 43.6957 40.9659 41.2504 40.9659 40.2717V22.6959C41.0831 22.7604 42.5319 23.6705 42.5319 23.6705C42.5319 23.6705 44.6318 24.9477 47.8972 25.7788C50.2369 26.3737 53.396 26.4975 53.396 26.4975V19.8273C54.4769 20.0696 55.3982 20.1351 55.9962 20.0748Z" fill="#EE1D52"/>
<path d="M53.4017 19.8273V26.4954C53.4017 26.4954 50.2427 26.3716 47.9029 25.7767C44.6375 24.9446 42.5376 23.6684 42.5376 23.6684C42.5376 23.6684 41.0888 22.7583 40.9716 22.6938V40.2738C40.9716 41.2525 40.7036 43.6978 39.8864 45.7354C38.8197 48.4033 37.1734 50.1538 36.8706 50.5116C36.8706 50.5116 34.8673 52.8779 31.336 54.4713C28.1531 55.9087 25.3575 55.8723 24.5208 55.9087C24.5208 55.9087 19.6895 56.1001 15.3399 53.2741L15.3182 53.2585C14.859 52.8139 14.4267 52.3444 14.0235 51.8523C12.6355 50.16 11.7847 48.1589 11.5709 47.5878C11.5706 47.5854 11.5706 47.583 11.5709 47.5806C11.2269 46.5883 10.5042 44.2054 10.6029 41.8974C10.7777 37.8253 12.2101 35.326 12.5889 34.6998C13.5919 32.9923 14.8966 31.4646 16.4447 30.1847C17.8108 29.0802 19.3592 28.2014 21.0264 27.5844C22.8288 26.8599 24.7588 26.4716 26.713 26.4403V33.1906C26.713 33.1906 23.1383 32.0569 20.2776 34.0643C18.2776 35.5496 17.2162 36.9985 16.9037 39.5863C16.8907 41.4907 17.3779 44.1856 20.0508 45.983C20.3627 46.1806 20.6687 46.356 20.9689 46.5092C21.4359 47.1162 22.0042 47.6451 22.651 48.0746C25.262 49.7274 27.4498 49.8428 30.2475 48.7694C32.113 48.0517 33.5173 46.4344 34.1684 44.6422C34.5775 43.5231 34.5721 42.3966 34.5721 41.2317V8.09375H41.0834C41.3526 9.62375 42.097 11.8017 44.0656 13.9589C44.8553 14.7735 45.7447 15.4936 46.7146 16.1037C47.0011 16.4001 48.4662 17.8656 50.3468 18.7653C51.3193 19.2304 52.3443 19.5867 53.4017 19.8273V19.8273Z" fill="black"/>
<path d="M8.97656 45.5156V45.5208L9.13813 45.9587C9.11957 45.9077 9.05953 45.7528 8.97656 45.5156Z" fill="#69C9D0"/>
<path d="M21.0256 27.5852C19.3584 28.2023 17.81 29.0811 16.4438 30.1855C14.8953 31.4683 13.591 32.9993 12.5892 34.71C12.2104 35.3341 10.7779 37.8355 10.6032 41.9076C10.5045 44.2156 11.2272 46.5985 11.5712 47.5908C11.5709 47.5932 11.5709 47.5956 11.5712 47.598C11.7883 48.1639 12.6358 50.165 14.0238 51.8625C14.427 52.3546 14.8593 52.8241 15.3185 53.2687C13.8471 52.2934 12.5349 51.1143 11.4247 49.7698C10.0487 48.0921 9.20003 46.1117 8.97864 45.5272C8.97838 45.523 8.97838 45.5189 8.97864 45.5147V45.5074C8.63354 44.5162 7.90862 42.1323 8.00955 39.8211C8.18427 35.7491 9.61675 33.2497 9.99549 32.6235C10.997 30.9126 12.3013 29.3816 13.8502 28.0991C15.216 26.9942 16.7645 26.1154 18.432 25.4988C19.472 25.0852 20.5555 24.7801 21.6637 24.5887C23.3338 24.3093 25.0396 24.285 26.7176 24.5169V26.4411C24.7616 26.4718 22.8297 26.8601 21.0256 27.5852Z" fill="#69C9D0"/>
<path d="M41.0876 8.09271H34.5763V41.2317C34.5763 42.3966 34.5763 43.52 34.1726 44.6422C33.5149 46.4333 32.1161 48.0507 30.2517 48.7684C27.4529 49.8459 25.2651 49.7263 22.6552 48.0736C22.0073 47.646 21.4375 47.1189 20.9688 46.5134C23.1924 47.6502 25.1826 47.6305 27.6483 46.6819C29.5116 45.9642 30.9126 44.3468 31.5681 42.5547C31.9783 41.4356 31.9728 40.3091 31.9728 39.1452V6H40.9639C40.9639 6 40.8629 6.82377 41.0876 8.09271ZM53.4005 17.9821V19.8262C52.3449 19.5853 51.3217 19.2289 50.351 18.7643C48.4703 17.8646 47.0053 16.399 46.7188 16.1026C47.0512 16.3118 47.3962 16.5021 47.7519 16.6726C50.0384 17.7668 52.2903 18.0934 53.4005 17.9821Z" fill="#69C9D0"/>
</svg>
