<svg width="64" height="64" viewBox="0 0 64 64" fill="none" xmlns="http://www.w3.org/2000/svg">
<path d="M4.48901 19.8822C4.74607 15.9247 7.92789 12.8231 11.8889 12.6269C17.6248 12.3427 25.8229 12 32 12C38.1771 12 46.3752 12.3427 52.1111 12.6269C56.0721 12.8231 59.2539 15.9247 59.511 19.8822C59.7573 23.6739 60 28.3393 60 32C60 35.6607 59.7573 40.3262 59.511 44.1178C59.2539 48.0753 56.0721 51.1769 52.1111 51.3731C46.3752 51.6573 38.1771 52 32 52C25.8229 52 17.6248 51.6573 11.8889 51.3731C7.9279 51.1769 4.74607 48.0753 4.48901 44.1178C4.24273 40.3261 4 35.6607 4 32C4 28.3393 4.24273 23.6739 4.48901 19.8822Z" fill="#FC0D1B"/>
<path d="M26 24V40L42 32L26 24Z" fill="white"/>
</svg>
