<svg width="24" height="24" viewBox="0 0 24 24" fill="none" xmlns="http://www.w3.org/2000/svg">
<g clip-path="url(#clip0_7031_5494)">
<path d="M12 24C18.6274 24 24 18.6274 24 12C24 5.37258 18.6274 0 12 0C5.37258 0 0 5.37258 0 12C0 18.6274 5.37258 24 12 24Z" fill="#F0F0F0"/>
<path d="M16.174 12.0001C16.174 13.0435 14.3052 15.6522 12.0001 15.6522C9.69489 15.6522 7.82617 13.0435 7.82617 12.0001C7.82617 9.69484 9.69489 7.82617 12.0001 7.82617C14.3052 7.82617 16.174 9.69484 16.174 12.0001Z" fill="#D80027"/>
<path d="M16.174 12C16.174 14.3052 14.3052 16.1739 12.0001 16.1739C9.69489 16.1739 7.82617 14.3052 7.82617 12" fill="#0052B4"/>
<path d="M17.5345 14.5827L16.4277 15.6895L17.1656 16.4273L18.2723 15.3205L17.5345 14.5827Z" fill="black"/>
<path d="M15.6888 16.4264L14.582 17.5332L15.3199 18.2711L16.4266 17.1643L15.6888 16.4264Z" fill="black"/>
<path d="M19.7474 16.7956L18.6406 17.9023L19.3785 18.6402L20.4852 17.5334L19.7474 16.7956Z" fill="black"/>
<path d="M17.9036 18.6413L16.7969 19.748L17.5347 20.4859L18.6415 19.3791L17.9036 18.6413Z" fill="black"/>
<path d="M18.64 15.6901L17.5332 16.7969L18.2711 17.5347L19.3778 16.428L18.64 15.6901Z" fill="black"/>
<path d="M16.7962 17.5339L15.6895 18.6406L16.4273 19.3785L17.5341 18.2717L16.7962 17.5339Z" fill="black"/>
<path d="M15.6893 5.35724L18.6406 8.30859L19.3785 7.57075L16.4271 4.61939L15.6893 5.35724Z" fill="black"/>
<path d="M14.5827 6.46551L15.6895 7.57227L16.4273 6.83445L15.3205 5.72769L14.5827 6.46551Z" fill="black"/>
<path d="M16.4265 8.30926L17.5332 9.41602L18.271 8.6782L17.1643 7.57145L16.4265 8.30926Z" fill="black"/>
<path d="M16.7956 4.25262L17.9023 5.35938L18.6402 4.62153L17.5334 3.51477L16.7956 4.25262Z" fill="black"/>
<path d="M18.6413 6.09832L19.748 7.20508L20.4859 6.46723L19.3791 5.36048L18.6413 6.09832Z" fill="black"/>
<path d="M7.20331 19.7482L4.25195 16.7969L3.5141 17.5347L6.46546 20.4861L7.20331 19.7482Z" fill="black"/>
<path d="M8.30988 18.64L7.20312 17.5332L6.46531 18.271L7.57207 19.3778L8.30988 18.64Z" fill="black"/>
<path d="M6.46613 16.7962L5.35938 15.6895L4.62153 16.4273L5.72828 17.5341L6.46613 16.7962Z" fill="black"/>
<path d="M9.41816 17.5334L6.4668 14.582L5.72895 15.3199L8.68031 18.2712L9.41816 17.5334Z" fill="black"/>
<path d="M4.25177 7.20526L7.20312 4.25391L6.46528 3.51606L3.51392 6.46742L4.25177 7.20526Z" fill="black"/>
<path d="M5.35919 8.31073L8.31055 5.35938L7.5727 4.62153L4.62134 7.57289L5.35919 8.31073Z" fill="black"/>
<path d="M6.46661 9.4162L9.41797 6.46484L8.68015 5.72703L5.7288 8.67839L6.46661 9.4162Z" fill="black"/>
</g>
<defs>
<clipPath id="clip0_7031_5494">
<rect width="24" height="24" fill="white"/>
</clipPath>
</defs>
</svg>
