<svg width="41" height="40" viewBox="0 0 41 40" fill="none" xmlns="http://www.w3.org/2000/svg">
<path d="M9.54688 20.3678H31.4491V16.1979C31.4491 10.1498 26.5461 5.24683 20.498 5.24683C14.4498 5.24683 9.54688 10.1498 9.54688 16.1979V20.3678Z" fill="#ECF4FF"/>
<path d="M31.4489 16.1979C31.4489 13.13 30.1868 10.3573 28.1541 8.36914V12.5969C28.1541 12.7062 28.112 12.8096 28.0354 12.8877C27.0554 13.8877 26.5156 15.2095 26.5156 16.6095V20.2725C26.5156 20.3045 26.517 20.3361 26.518 20.3677H31.4489V16.1979Z" fill="#CBE2FF"/>
<path d="M32.455 39.4141C33.5627 39.4141 34.0545 38.0023 33.1733 37.331C32.7095 36.9777 32.1778 36.7027 31.5949 36.5285L25.798 34.797C24.7891 34.4956 24.0979 33.5676 24.0979 32.5147V27.2578H16.8997V32.5146C16.8997 33.5675 16.2084 34.4955 15.1996 34.7969L9.40271 36.5284C8.81982 36.7026 8.2881 36.9776 7.82427 37.3309C6.94318 38.0022 7.43498 39.414 8.54263 39.414H32.455V39.4141Z" fill="#FFE8C8"/>
<path d="M11.5561 37.7285L17.3529 35.997C18.3619 35.6956 19.0531 34.9922 19.0531 34.2569V34.2445C19.0531 33.6274 19.567 33.1283 20.1833 33.1597C20.3229 33.1668 20.4629 33.1704 20.6029 33.1704C21.8104 33.1704 23.004 32.9086 24.0979 32.4088V27.2578H16.8997V32.5146C16.8997 33.5675 16.2084 34.4955 15.1996 34.7969L9.40271 36.5284C8.81982 36.7026 8.2881 36.9776 7.82427 37.3309C6.94318 38.0022 7.43498 39.414 8.54263 39.414H9.08279C9.69826 38.6295 10.5508 38.0288 11.5561 37.7285Z" fill="#FAB684"/>
<path d="M21.5729 5.2994C21.2192 5.26495 20.8607 5.24683 20.498 5.24683C14.4498 5.24683 9.54688 10.1498 9.54688 16.1979V20.3678H14.4778C14.4788 20.336 14.4802 20.3044 14.4802 20.2725V16.6906C14.4802 15.2796 13.9899 13.8725 12.9702 12.8974C12.8873 12.8182 12.8416 12.7109 12.8416 12.5969V12.0305C12.8416 11.5278 12.9761 11.0338 13.2334 10.6019C14.9703 7.68604 18.0231 5.64526 21.5729 5.2994Z" fill="#CBE2FF"/>
<path d="M24.4229 30.4615L24.0303 30.6885C21.9435 31.8955 19.3755 31.9152 17.2704 30.7406L16.7191 30.433C13.3811 28.5705 11.3125 25.0474 11.3125 21.225V19.3537C11.3125 14.2794 15.426 10.1658 20.5004 10.1658C25.5747 10.1658 29.6883 14.2793 29.6883 19.3537V21.3337C29.6882 25.098 27.6814 28.5769 24.4229 30.4615Z" fill="#FFE8C8"/>
<path d="M19.4237 30.7406L18.8724 30.433C15.5345 28.5705 13.4659 25.0474 13.4659 21.225V19.3537C13.4659 14.6437 17.0102 10.7621 21.577 10.2289C21.2238 10.1876 20.8647 10.1658 20.5004 10.1658C15.4261 10.1658 11.3125 14.2793 11.3125 19.3537V21.225C11.3125 25.0474 13.3812 28.5705 16.7191 30.433L17.2704 30.7406C18.632 31.5004 20.1871 31.7597 21.6805 31.522C20.8997 31.3976 20.1352 31.1376 19.4237 30.7406Z" fill="#FAB684"/>
<path d="M5.1407 11.926C5.1407 14.3013 5.50766 16.6623 6.22852 18.9255L6.62227 20.1617C7.10914 21.6903 7.92172 23.095 9.00391 24.2792L12.477 28.0796C12.947 28.5938 13.7562 28.5964 14.2294 28.0851C14.5846 27.7013 14.6478 27.1306 14.3851 26.6785L11.4925 21.6991C12.2803 21.6991 12.919 21.0604 12.919 20.2726V16.6097C12.919 15.627 12.5337 14.6835 11.8459 13.9816C11.4835 13.6118 11.2805 13.1148 11.2805 12.5971V9.27197H5.14062L5.1407 11.926Z" fill="#FE8187"/>
<path d="M29.7188 12.5971C29.7188 13.1148 29.5159 13.6118 29.1534 13.9816C28.4656 14.6835 28.0803 15.627 28.0803 16.6097V20.2726C28.0803 21.0604 28.719 21.6991 29.5068 21.6991L26.6142 26.6785C26.3516 27.1306 26.4147 27.7013 26.7699 28.0851C27.2431 28.5963 28.0524 28.5938 28.5224 28.0796L31.9954 24.2792C33.0776 23.095 33.8902 21.6903 34.377 20.1617L34.7708 18.9255C35.4916 16.6622 35.8586 14.3012 35.8586 11.926V9.27197H29.7188V12.5971H29.7188Z" fill="#FE8187"/>
<path d="M9.87828 0.585938H6.54289C5.76844 0.585938 5.14062 1.21375 5.14062 1.98812V9.2718H11.2805V1.98812C11.2805 1.21375 10.6527 0.585938 9.87828 0.585938Z" fill="#FFE8C8"/>
<path d="M34.4564 0.585938H31.121C30.3466 0.585938 29.7188 1.21375 29.7188 1.98812V9.2718H35.8586V1.98812C35.8586 1.21375 35.2309 0.585938 34.4564 0.585938Z" fill="#FFE8C8"/>
<path d="M5.1407 11.926C5.1407 14.3013 5.50766 16.6623 6.22852 18.9255L6.62227 20.1617C7.10914 21.6903 7.92172 23.095 9.00391 24.2792L12.477 28.0796C12.947 28.5938 13.7562 28.5964 14.2294 28.0851C14.2476 28.0654 14.2645 28.0449 14.2812 28.0244L10.8585 24.2792C9.77633 23.095 8.96375 21.6903 8.47687 20.1617L8.08312 18.9255C7.36227 16.6622 6.99531 14.3012 6.99531 11.926V9.27197H5.14062L5.1407 11.926Z" fill="#FF646F"/>
<path d="M29.7166 12.5971C29.7166 13.1148 29.5137 13.6118 29.1512 13.9816C28.4634 14.6835 28.0781 15.627 28.0781 16.6097V20.2726C28.0781 21.0604 28.7168 21.6991 29.5046 21.6991L29.883 21.0445C29.7393 20.8219 29.6549 20.5573 29.6549 20.2725V16.6096C29.6549 15.6269 30.0402 14.6834 30.728 13.9815C31.0904 13.6117 31.2934 13.1147 31.2934 12.597V9.27197H29.7166V12.5971H29.7166Z" fill="#FF646F"/>
<path d="M8.39758 0.585938H6.54289C5.76844 0.585938 5.14062 1.21375 5.14062 1.98812V9.2718H6.99531V1.98812C6.99539 1.21375 7.62313 0.585938 8.39758 0.585938Z" fill="#FAB684"/>
<path d="M32.6978 0.585938H31.121C30.3466 0.585938 29.7188 1.21375 29.7188 1.98812V9.2718H31.2956V1.98812C31.2956 1.21375 31.9234 0.585938 32.6978 0.585938Z" fill="#FAB684"/>
<path d="M17.9387 20.1499L17.7662 20.2636C17.0644 20.7261 16.1576 20.7261 15.4558 20.2635L15.2833 20.1499C15.0132 19.972 14.6498 20.0467 14.4717 20.3169C14.2937 20.5871 14.3684 20.9505 14.6387 21.1286L14.811 21.242C15.3578 21.6024 15.9844 21.7827 16.6111 21.7827C17.2376 21.7827 17.8643 21.6024 18.4109 21.2422L18.5834 21.1286C18.8537 20.9506 18.9285 20.5871 18.7505 20.3169C18.5723 20.0466 18.2089 19.972 17.9387 20.1499Z" fill="black"/>
<path d="M26.3568 21.1284C26.627 20.9503 26.7019 20.5869 26.5238 20.3166C26.3458 20.0463 25.9824 19.9717 25.7122 20.1496L25.5396 20.2634C24.8379 20.7259 23.9311 20.7259 23.2293 20.2632L23.0568 20.1496C22.7866 19.9718 22.4232 20.0465 22.2451 20.3166C22.0671 20.5869 22.1419 20.9502 22.4122 21.1284L22.5844 21.2418C23.1312 21.6022 23.7578 21.7824 24.3845 21.7824C25.0111 21.7824 25.6377 21.6022 26.1844 21.242L26.3568 21.1284Z" fill="black"/>
<path d="M22.4701 26.9785C22.7403 26.8004 22.8151 26.437 22.6371 26.1667C22.4591 25.8964 22.0957 25.8218 21.8255 25.9997L21.6529 26.1135C20.9512 26.576 20.0444 26.576 19.3426 26.1133L19.1701 25.9997C18.8999 25.8219 18.5365 25.8966 18.3584 26.1667C18.1804 26.437 18.2551 26.8003 18.5255 26.9785L18.6977 27.0919C19.2445 27.4523 19.8711 27.6325 20.4978 27.6325C21.1244 27.6325 21.751 27.4523 22.2976 27.0921L22.4701 26.9785Z" fill="black"/>
<path d="M35.8581 5.83281C36.1817 5.83281 36.4441 5.57055 36.4441 5.24688V1.98812C36.4441 0.891875 35.5521 0 34.4559 0H31.1205C30.0241 0 29.1323 0.891875 29.1323 1.98812V8.54383C26.9584 6.08719 23.839 4.66094 20.4994 4.66094C17.1592 4.66094 14.0403 6.08859 11.8665 8.54602V5.89688C11.8665 5.5732 11.6041 5.31094 11.2805 5.31094C10.957 5.31094 10.6946 5.5732 10.6946 5.89688V8.68586H5.72664V1.98812C5.72656 1.53813 6.09281 1.17188 6.54289 1.17188H9.87828C10.3284 1.17188 10.6945 1.53813 10.6945 1.98812V3.30938C10.6945 3.63305 10.9569 3.89531 11.2805 3.89531C11.6041 3.89531 11.8664 3.63305 11.8664 3.30938V1.98812C11.8664 0.891875 10.9745 0 9.87828 0H6.54289C5.44664 0 4.55469 0.891875 4.55469 1.98812V11.9259C4.55469 14.3647 4.93 16.7795 5.67016 19.1033L6.06391 20.3394C6.57289 21.9373 7.43992 23.4364 8.57133 24.6744L12.0444 28.4748C12.3787 28.8405 12.8546 29.0512 13.3501 29.0527H13.3555C13.5312 29.0527 13.7042 29.026 13.8697 28.9759C14.5828 29.7113 15.4027 30.3535 16.3143 30.8769V32.5145C16.3143 33.3023 15.7871 34.0099 15.0323 34.2353L9.23547 35.967C8.59437 36.1584 8.00031 36.4605 7.46961 36.8648C6.86859 37.3227 6.63703 38.0833 6.87977 38.8024C7.12539 39.5299 7.77828 40 8.5432 40H32.4555C33.2205 40 33.8733 39.5299 34.1188 38.8026C34.3616 38.0834 34.1301 37.3229 33.5291 36.865C32.9984 36.4606 32.4043 36.1586 31.7632 35.9671L30.4985 35.5893C30.1884 35.4965 29.862 35.673 29.7694 35.983C29.6767 36.2931 29.853 36.6195 30.163 36.7122L31.4278 37.09C31.933 37.2409 32.401 37.4788 32.8189 37.7972C33.1159 38.0235 33.0391 38.3371 33.0085 38.4278C32.9768 38.5217 32.8433 38.8281 32.4555 38.8281H8.5432C8.15555 38.8281 8.02195 38.5217 7.99031 38.4278C7.95969 38.3371 7.88289 38.0235 8.18 37.7972C8.59789 37.4788 9.06586 37.2409 9.57102 37.09L15.3679 35.3584C16.6152 34.9857 17.4863 33.8164 17.4863 32.5147V31.5069C18.4714 31.9612 19.5371 32.1888 20.603 32.1888C21.595 32.1888 22.5866 31.9913 23.5126 31.5988V32.5147C23.5126 33.8164 24.3837 34.9858 25.631 35.3584L27.5848 35.942C27.8948 36.0347 28.2213 35.8584 28.314 35.5483C28.4066 35.2382 28.2304 34.9118 27.9202 34.8191L25.9664 34.2355C25.2116 34.01 24.6845 33.3024 24.6845 32.5147V30.9867L24.7153 30.9689C24.7153 30.9689 24.7153 30.9688 24.7154 30.9688C25.6484 30.4292 26.4838 29.7619 27.2076 28.998C27.349 29.0338 27.4952 29.0529 27.6432 29.0529H27.6488C28.1442 29.0513 28.6202 28.8406 28.9544 28.4749L32.4275 24.6745C33.5588 23.4365 34.4259 21.9375 34.9348 20.3395L35.3286 19.1034C36.0688 16.7797 36.4441 14.3648 36.4441 11.926V7.62187C36.4441 7.2982 36.1817 7.03594 35.8581 7.03594C35.5345 7.03594 35.2722 7.2982 35.2722 7.62187V8.68594H30.3042V1.98812C30.3042 1.53805 30.6704 1.17188 31.1205 1.17188H34.4559C34.906 1.17188 35.2723 1.53813 35.2723 1.98812V5.24688C35.2722 5.57055 35.5345 5.83281 35.8581 5.83281ZM29.1323 10.4613V12.597C29.1323 12.9635 28.9909 13.3096 28.7344 13.5714C28.6638 13.6434 28.5972 13.718 28.5323 13.794C26.766 11.2496 23.8244 9.57992 20.4994 9.57992C20.4165 9.57992 20.3341 9.58203 20.2516 9.58406C22.1353 8.6893 24.1923 8.16438 26.2763 8.05367L26.874 8.02188C27.7398 8.6982 28.5041 9.51766 29.1323 10.4613ZM20.4994 5.83281C22.172 5.83281 23.7829 6.23156 25.2199 6.96625C22.813 7.23648 20.4673 8.01836 18.3819 9.25266L15.7426 10.8147C15.7261 10.8245 15.7103 10.8349 15.6952 10.8459C14.4102 11.5745 13.3059 12.5855 12.4666 13.7942C12.4016 13.7182 12.3349 13.6434 12.2643 13.5713C12.0077 13.3095 11.8664 12.9635 11.8664 12.597V10.4613C13.7967 7.56133 17.0147 5.83281 20.4994 5.83281ZM9.43641 23.8839C8.41852 22.7701 7.63844 21.4214 7.18055 19.9838L6.7868 18.7477C6.08328 16.539 5.72664 14.2439 5.72664 11.9259V9.85781H10.6946V12.597C10.6946 13.2722 10.9549 13.9095 11.4274 14.3917C12.0115 14.9876 12.3331 15.7753 12.3331 16.6097V20.2727C12.3331 20.6287 12.1103 20.933 11.797 21.0553L10.9802 19.6427C10.6198 19.0193 10.4294 18.3094 10.4294 17.5894V16.5094C10.4294 16.1857 10.167 15.9234 9.84344 15.9234C9.51984 15.9234 9.2575 16.1857 9.2575 16.5094V17.5891C9.2575 18.5148 9.50242 19.4277 9.9657 20.229L13.8784 26.9727C14.0127 27.2038 13.9809 27.4908 13.7994 27.687C13.6832 27.8126 13.5251 27.8804 13.3538 27.8809C13.1827 27.8803 13.0249 27.8105 12.9095 27.6841L9.43641 23.8839ZM24.1287 29.9543L23.736 30.1813C21.838 31.2791 19.4696 31.2973 17.5549 30.2289L17.0036 29.9212C16.1937 29.4694 15.4643 28.912 14.8254 28.2737C15.2073 27.7143 15.2409 26.985 14.8918 26.384L12.3883 22.0744C13.0497 21.7443 13.505 21.0605 13.505 20.2725V16.6095C13.505 16.0089 13.3822 15.4263 13.1506 14.8899C14.6619 12.4111 17.39 10.7518 20.4995 10.7518C23.6089 10.7518 26.337 12.4109 27.8484 14.8897C27.6167 15.4262 27.4938 16.0088 27.4938 16.6096V20.2726C27.4938 21.0607 27.9491 21.7445 28.6105 22.0745L26.107 26.3841C25.7449 27.0074 25.795 27.7687 26.218 28.3354C25.6032 28.9584 24.9039 29.5059 24.1287 29.9543ZM35.2722 9.85781V11.9259C35.2722 14.2439 34.9155 16.5391 34.212 18.7477L33.8183 19.9838C33.3603 21.4214 32.5802 22.7701 31.5624 23.8839L28.0893 27.6843C27.9738 27.8105 27.816 27.8805 27.6449 27.881C27.6443 27.881 27.6436 27.881 27.643 27.881C27.4727 27.881 27.3152 27.8122 27.1994 27.6871C27.0178 27.4909 26.9861 27.2039 27.1203 26.9728L31.033 20.2291C31.4964 19.4278 31.7413 18.515 31.7413 17.5893V16.5094C31.7413 16.1857 31.4789 15.9234 31.1553 15.9234C30.8317 15.9234 30.5694 16.1857 30.5694 16.5094V17.5891C30.5694 18.3091 30.3789 19.0191 30.0185 19.6424L29.2017 21.0551C28.8885 20.9327 28.6656 20.6284 28.6656 20.2724V16.6095C28.6656 15.7751 28.9873 14.9874 29.5713 14.3915C30.0439 13.9093 30.3041 13.272 30.3041 12.5968V9.85781H35.2722Z" fill="black"/>
</svg>
