<svg width="41" height="40" viewBox="0 0 41 40" fill="none" xmlns="http://www.w3.org/2000/svg">
<g clip-path="url(#clip0_6379_20223)">
<path d="M14.0313 11.9401C14.351 11.2079 14.5296 10.3999 14.5296 9.5499C14.5296 6.2479 11.8527 3.57104 8.55072 3.57104C5.24872 3.57104 2.57186 6.2479 2.57186 9.5499C2.57186 10.4 2.75041 11.208 3.07017 11.9401C1.83886 13.2712 1.08594 15.0514 1.08594 17.0077C1.08594 21.1304 4.42801 24.4724 8.55072 24.4724C12.6734 24.4724 16.0155 21.1303 16.0155 17.0077C16.0156 15.0514 15.2627 13.2712 14.0313 11.9401Z" fill="#ADE194"/>
<path d="M9.72267 24.3814C9.34152 24.4416 8.94944 24.4728 8.55111 24.4728C4.42801 24.4728 1.08594 21.1299 1.08594 17.0076C1.08594 15.0511 1.83886 13.2711 3.07056 11.9402C2.75111 11.2076 2.57226 10.4 2.57226 9.54948C2.57226 6.24802 5.24888 3.57062 8.55111 3.57062C8.95179 3.57062 9.34387 3.61045 9.72267 3.68621C6.98122 4.22982 4.91537 6.64869 4.91537 9.54948C4.91537 10.4 5.09423 11.2076 5.41368 11.9402C4.18198 13.2711 3.42906 15.0511 3.42906 17.0076C3.42906 20.7316 6.15645 23.8191 9.72267 24.3814Z" fill="#97DA7B"/>
<path d="M24.9736 6.55695V21.4865H27.9595V15.5147C27.9595 13.8656 29.2964 12.5288 30.9455 12.5288C32.5945 12.5288 33.9314 13.8656 33.9314 15.5147V21.4865H36.9173V6.55695H24.9736Z" fill="#F07281"/>
<path d="M36.9173 6.55652V8.1186H28.4883C27.8413 8.1186 27.3168 8.64314 27.3168 9.29016V21.4861H24.9736V6.55652H36.9173Z" fill="#EB5569"/>
<path d="M30.9455 0.585022C31.912 0.585022 32.8496 0.913918 33.6043 1.51766L39.9033 6.55685H21.9878L28.2868 1.51766C29.0414 0.913996 29.9792 0.585022 30.9455 0.585022Z" fill="#8AC9FE"/>
<path d="M32.8984 1.06037C32.6501 1.18768 32.4134 1.34076 32.1916 1.51806L25.8925 6.55654H21.9873L28.2864 1.51806C29.0417 0.914315 29.9789 0.584717 30.9458 0.584717C31.6292 0.584717 32.2986 0.749516 32.8984 1.06037Z" fill="#60B7FF"/>
<path d="M38.7318 21.4865H23.1594C22.5123 21.4865 21.9878 22.011 21.9878 22.658V38.2305C21.9878 38.8775 22.5123 39.402 23.1594 39.402H38.7318C39.3788 39.402 39.9034 38.8775 39.9034 38.2305V22.658C39.9034 22.011 39.3788 21.4865 38.7318 21.4865ZM30.9455 34.7947C28.4733 34.7947 26.4692 32.7906 26.4692 30.3184C26.4692 27.8462 28.4733 25.8422 30.9455 25.8422C33.4178 25.8422 35.4218 27.8463 35.4218 30.3184C35.4218 32.7906 33.4178 34.7947 30.9455 34.7947Z" fill="#8AC9FE"/>
<path d="M25.8925 38.2309V22.6577C25.8925 22.011 26.4174 21.4861 27.0641 21.4861H23.1589C22.5122 21.4861 21.9873 22.011 21.9873 22.6577V38.2309C21.9873 38.8776 22.5122 39.4024 23.1589 39.4024H27.0641C26.4174 39.4024 25.8925 38.8776 25.8925 38.2309Z" fill="#60B7FF"/>
<path d="M10.044 39.4021H7.05811V8.0499C7.05811 7.22536 7.72652 6.55695 8.55106 6.55695C9.37561 6.55695 10.044 7.22536 10.044 8.0499V39.4021Z" fill="#C68D7A"/>
<path d="M9.332 6.77755C8.90478 7.0392 8.6197 7.51173 8.6197 8.04987V39.4024H7.05762V8.04987C7.05762 7.22509 7.72619 6.55652 8.55096 6.55652C8.83761 6.55652 9.10472 6.63697 9.332 6.77755Z" fill="#BC7C63"/>
<path d="M27.9598 10.1287C27.6363 10.1287 27.374 9.86638 27.374 9.54287C27.374 9.21937 27.6363 8.95709 27.9598 8.95709C28.2833 8.95709 28.5456 9.21937 28.5456 9.54287C28.5456 9.86638 28.2833 10.1287 27.9598 10.1287Z" fill="black"/>
<path d="M24.9735 25.0582C24.65 25.0582 24.3877 24.7959 24.3877 24.4724C24.3877 24.1489 24.65 23.8867 24.9735 23.8867C25.297 23.8867 25.5593 24.1489 25.5593 24.4724C25.5593 24.7959 25.297 25.0582 24.9735 25.0582Z" fill="black"/>
<path d="M36.9168 25.0582C36.5933 25.0582 36.3311 24.7959 36.3311 24.4724C36.3311 24.1489 36.5933 23.8867 36.9168 23.8867C37.2403 23.8867 37.5026 24.1489 37.5026 24.4724C37.5026 24.7959 37.2403 25.0582 36.9168 25.0582Z" fill="black"/>
<path d="M24.9735 36.9968C24.65 36.9968 24.3877 36.7345 24.3877 36.411C24.3877 36.0875 24.65 35.8252 24.9735 35.8252C25.297 35.8252 25.5593 36.0875 25.5593 36.411C25.5593 36.7345 25.297 36.9968 24.9735 36.9968Z" fill="black"/>
<path d="M36.9168 36.9968C36.5933 36.9968 36.3311 36.7345 36.3311 36.411C36.3311 36.0875 36.5933 35.8252 36.9168 35.8252C37.2403 35.8252 37.5026 36.0875 37.5026 36.411C37.5026 36.7345 37.2403 36.9968 36.9168 36.9968Z" fill="black"/>
<path d="M33.9315 10.1287C33.608 10.1287 33.3457 9.86638 33.3457 9.54287C33.3457 9.21937 33.608 8.95709 33.9315 8.95709C34.255 8.95709 34.5173 9.21937 34.5173 9.54287C34.5173 9.86638 34.2551 10.1287 33.9315 10.1287Z" fill="black"/>
<path d="M24.9733 21.4865H22.5361C22.1884 21.4865 21.8587 21.6409 21.6361 21.908L9.16548 36.8727C7.82998 38.4753 5.85153 39.402 3.76537 39.402H1.08594V36.416L4.46924 36.4121C5.16359 36.4114 5.82177 36.1026 6.26634 35.5693L18.3867 21.029C19.7222 19.4269 21.7004 18.5005 23.7862 18.5005H24.9733V21.4865Z" fill="#FEE97D"/>
<path d="M30.9456 25.2562C28.2605 25.2562 26.0402 27.3542 25.8909 30.0319C25.7614 32.326 27.2967 34.5177 29.503 35.1715C29.8131 35.2635 30.1391 35.0866 30.231 34.7763C30.323 34.4662 30.146 34.1402 29.8358 34.0482C28.1492 33.5484 26.9624 31.8419 27.0606 30.0976C27.1753 28.0397 28.8817 26.4276 30.9456 26.4276C33.0089 26.4276 34.7151 28.0397 34.8298 30.0975C34.9261 31.8332 33.7336 33.5507 32.0554 34.0482C31.7452 34.1401 31.5683 34.4661 31.6602 34.7763C31.8483 35.1232 32.091 35.255 32.3882 35.1715C34.588 34.5195 36.1271 32.3225 35.9995 30.0324C35.8503 27.3541 33.6303 25.2562 30.9456 25.2562Z" fill="black"/>
<path d="M38.7316 20.9007H37.5033V14.217C37.5033 13.8935 37.2411 13.6312 36.9175 13.6312C36.5939 13.6312 36.3317 13.8935 36.3317 14.217V20.9003H34.5174V15.5143C34.5174 13.566 32.894 11.9426 30.9457 11.9426C28.9762 11.9426 27.3741 13.5448 27.3741 15.5143V20.9003H25.5597V7.14264H36.3318V11.6638C36.3318 11.9873 36.594 12.2495 36.9176 12.2495C37.2412 12.2495 37.5034 11.9873 37.5034 11.6638V7.14264H39.9033C40.5039 7.13241 40.6977 6.35137 40.2693 6.09948L33.9703 1.0603C32.2227 -0.337765 29.6684 -0.337687 27.9208 1.0603L21.6217 6.09948C21.0153 6.66378 21.3277 7.1064 21.9876 7.14264H24.3881V17.9147H23.7864C21.52 17.9147 19.3881 18.9131 17.937 20.654L10.6293 29.4207V24.7855C13.9896 23.8933 16.4149 20.9291 16.591 17.4166C16.6072 17.0935 16.3584 16.8184 16.0353 16.8022C15.7107 16.7856 15.4372 17.0349 15.421 17.3579C15.2757 20.2529 13.3426 22.7117 10.6293 23.5662V20.8047L13.3543 18.9885C13.6235 18.8091 13.6963 18.4454 13.5169 18.1762C13.3374 17.907 12.9737 17.8344 12.7046 18.0137L10.6294 19.3968V11.2785L11.9511 9.95665C12.1799 9.72788 12.1799 9.35697 11.9511 9.12828C11.7224 8.89943 11.3515 8.89951 11.1227 9.12828L10.6295 9.62158V8.04997C10.5112 6.78266 9.81843 6.08964 8.55111 5.97085C7.40462 5.97085 6.47198 6.90356 6.47198 8.04997V9.62088L5.97938 9.12835C5.75054 8.89959 5.3797 8.89959 5.15093 9.12835C4.92217 9.35712 4.92217 9.72804 5.15093 9.95673L6.47198 11.2778V19.3968L4.39676 18.0137C4.12762 17.8342 3.76389 17.907 3.58448 18.1762C3.40508 18.4454 3.47787 18.8092 3.74709 18.9885L6.47206 20.8047V23.5659C3.65188 22.6722 1.67156 20.0217 1.67156 17.0076C1.67156 15.2707 2.32099 13.6124 3.50029 12.3381C3.65829 12.1674 3.70039 11.9194 3.60737 11.7061C2.08535 8.21493 4.72706 4.15634 8.55096 4.15634C12.3748 4.15634 15.0166 8.21493 13.4945 11.7061C13.4016 11.9194 13.4436 12.1675 13.6018 12.3383C14.3048 13.0972 14.8343 14.019 15.133 15.004C15.2268 15.3136 15.5541 15.4882 15.8636 15.3945C16.1732 15.3006 16.3481 14.9735 16.2541 14.6639C15.9403 13.6292 15.4094 12.6544 14.7098 11.8235C16.2612 7.6297 13.0261 2.98478 8.55096 2.98478C4.07732 2.98478 0.839674 7.62649 2.39215 11.8234C1.16927 13.2736 0.5 15.1002 0.5 17.0076C0.5 20.6594 2.98433 23.8552 6.47183 24.7858V34.4083C5.88121 35.1959 5.52466 35.8252 4.46877 35.8265L1.08547 35.8304C0.762195 35.8308 0.500391 36.0929 0.500391 36.4162V39.4021C0.500391 39.7256 0.762585 39.9878 1.08617 39.9878H3.76568C4.70644 39.9878 5.62378 39.8153 6.47909 39.4895C6.52127 39.7716 6.76386 39.9882 7.05769 39.9882H10.0436C10.3672 39.9882 10.6294 39.7259 10.6294 39.4024V36.0314L21.4019 23.1044V38.2305C21.4019 39.1995 22.1902 39.9878 23.1592 39.9878H38.7317C39.7006 39.9878 40.489 39.1995 40.489 38.2305V22.6581C40.4889 21.689 39.7005 20.9007 38.7316 20.9007ZM28.6525 1.97513C29.9773 0.915413 31.9133 0.915413 33.2381 1.97513L38.2332 5.97116H23.6575L28.6525 1.97513ZM30.9457 13.1142C32.2548 13.1142 33.3458 14.2052 33.3458 15.5143V20.9007H28.5456V15.5143C28.5456 14.1909 29.6222 13.1142 30.9457 13.1142ZM7.64339 8.0499C7.64339 7.54948 8.05054 7.14233 8.55096 7.14233C9.10409 7.19403 9.40635 7.49653 9.45774 8.0499V30.8262L7.64339 33.0028V8.0499ZM7.8256 38.8166C8.42583 38.4379 8.97608 37.9733 9.45782 37.4309V38.8166H7.8256ZM21.1862 21.5331C21.1862 21.5331 11.3278 33.2198 10.0438 34.6771C10.0199 34.6876 8.55049 36.7338 6.75441 38.0825C5.84411 38.5592 4.82219 38.8163 3.76553 38.8163H1.67187V37.0012L4.4701 36.998C5.34049 36.997 6.15926 36.6131 6.71645 35.9445L18.8369 21.4042C20.0648 19.9311 21.8687 19.0864 23.7864 19.0864H24.3878V20.9007H22.5363C22.0131 20.9007 21.5211 21.1312 21.1862 21.5331ZM39.3174 38.2305C39.3174 38.5535 39.0546 38.8163 38.7316 38.8163H23.1591C22.8361 38.8163 22.5733 38.5535 22.5733 38.2305V22.6581C22.5733 22.335 22.8361 22.0723 23.1591 22.0723H38.7316C39.0546 22.0723 39.3174 22.335 39.3174 22.6581V38.2305Z" fill="black"/>
</g>
<defs>
<clipPath id="clip0_6379_20223">
<rect width="40" height="40" fill="white" transform="translate(0.5)"/>
</clipPath>
</defs>
</svg>
