<svg width="41" height="40" viewBox="0 0 41 40" fill="none" xmlns="http://www.w3.org/2000/svg">
<g clip-path="url(#clip0_6379_20406)">
<path d="M33.6614 2.16463V38.4638C33.6614 39.2195 32.82 39.6709 32.1904 39.2531L20.7648 31.6706C20.6044 31.5642 20.3959 31.5642 20.2355 31.6706L8.80983 39.2531C8.18024 39.6709 7.33887 39.2195 7.33887 38.4638V2.16463C7.33887 1.29271 8.04564 0.585938 8.91756 0.585938H32.0827C32.9546 0.585938 33.6614 1.29271 33.6614 2.16463Z" fill="#60B7FF"/>
<path d="M21.3498 8.85408L23.2116 12.6266C23.3496 12.9062 23.6163 13.0999 23.9248 13.1448L28.088 13.7498C28.8649 13.8626 29.1752 14.8174 28.613 15.3654L25.6004 18.3019C25.3772 18.5195 25.2753 18.833 25.328 19.1403L26.0392 23.2867C26.1719 24.0605 25.3597 24.6505 24.6648 24.2852L20.9411 22.3276C20.6652 22.1825 20.3355 22.1825 20.0596 22.3276L16.3359 24.2852C15.641 24.6505 14.8288 24.0605 14.9615 23.2867L15.6726 19.1403C15.7253 18.833 15.6235 18.5194 15.4002 18.3019L12.3877 15.3654C11.8255 14.8174 12.1357 13.8626 12.9126 13.7498L17.0758 13.1448C17.3843 13.0999 17.6511 12.9062 17.789 12.6266L19.6509 8.85408C19.9985 8.15004 21.0024 8.15004 21.3498 8.85408Z" fill="#FFD15B"/>
<path d="M32.0827 0.585938H29.0732C29.9452 0.585938 30.6519 1.29271 30.6519 2.16463V38.232L32.1904 39.253C32.82 39.6708 33.6614 39.2194 33.6614 38.4637V2.16463C33.6614 1.29271 32.9546 0.585938 32.0827 0.585938Z" fill="#26A6FE"/>
<path d="M6.75293 38.4637V2.16461C6.75293 0.971058 7.72399 0 8.91754 0H11.0544C11.378 0 11.6403 0.262334 11.6403 0.585916C11.6403 0.909497 11.378 1.17183 11.0544 1.17183H8.91754C8.37014 1.17183 7.92476 1.61721 7.92476 2.16461V38.4638C7.92468 38.7511 8.24412 38.9255 8.48583 38.7648L19.9114 31.1824C20.2681 30.9455 20.732 30.9455 21.0889 31.1824L27.1655 35.2151C27.4351 35.3941 27.5086 35.7577 27.3297 36.0273C27.1507 36.2969 26.787 36.3704 26.5175 36.1915L20.5001 32.1981L9.13378 39.7412C8.10819 40.4219 6.75285 39.6782 6.75293 38.4637ZM32.7115 39.9985C32.4122 39.9985 32.12 39.9095 31.8664 39.7413L28.7959 37.7035C28.5263 37.5245 28.4527 37.161 28.6316 36.8914C28.8105 36.6217 29.1743 36.5483 29.4438 36.7272C32.7947 38.9509 32.5658 38.8267 32.7115 38.8267C32.8866 38.8267 33.0755 38.6879 33.0755 38.4638V2.16461C33.0755 1.61721 32.6301 1.17183 32.0827 1.17183H13.7887C13.4651 1.17183 13.2028 0.909497 13.2028 0.585916C13.2028 0.262334 13.4651 0 13.7887 0H32.0826C33.2762 0 34.2472 0.971058 34.2472 2.16461V38.4638C34.2473 39.31 33.5583 39.9985 32.7115 39.9985Z" fill="black"/>
<path d="M25.107 24.9815C24.8633 24.9815 24.6184 24.9227 24.3921 24.8037L20.6684 22.8461C20.5632 22.7907 20.4375 22.7907 20.3322 22.8461L16.6086 24.8037C16.0882 25.0772 15.4695 25.0326 14.9939 24.687C14.5184 24.3415 14.2847 23.7669 14.384 23.1875L15.0953 19.0411C15.1153 18.924 15.0765 18.8043 14.9914 18.7213L11.9788 15.7848C11.5578 15.3746 11.4091 14.7723 11.5909 14.2132C11.7726 13.6541 12.2468 13.2543 12.8285 13.1698L16.9918 12.5648C17.1095 12.5477 17.2112 12.4738 17.2639 12.3671L19.1257 8.59457C19.3859 8.0674 19.9127 7.73999 20.5005 7.73999C21.0884 7.73999 21.6152 8.06748 21.8754 8.59457L23.7372 12.3671C23.7899 12.4737 23.8916 12.5476 24.0092 12.5647L28.1725 13.1697C28.7542 13.2542 29.2285 13.654 29.4101 14.2131C29.5918 14.7722 29.4431 15.3744 29.0222 15.7848L26.0096 18.7212C25.9245 18.8043 25.8856 18.9238 25.9057 19.0411L26.6169 23.1875C26.7163 23.7669 26.4826 24.3414 26.007 24.6869C25.7381 24.8822 25.4236 24.9815 25.107 24.9815ZM20.5004 21.6327C20.7454 21.6327 20.9904 21.6913 21.2138 21.8088L24.9376 23.7664C25.1168 23.8608 25.2634 23.7787 25.3181 23.7389C25.3727 23.6992 25.496 23.5853 25.4618 23.3856L24.7506 19.2393C24.6653 18.7417 24.8302 18.2344 25.1916 17.8822L28.2041 14.9457C28.3493 14.8042 28.3164 14.6396 28.2956 14.5754C28.2747 14.5111 28.2045 14.3587 28.0039 14.3295L23.8406 13.7245C23.3413 13.652 22.9097 13.3385 22.6863 12.8859L20.8244 9.1133C20.7347 8.93151 20.5679 8.9119 20.5004 8.9119C20.433 8.9119 20.2662 8.93151 20.1765 9.1133L18.3147 12.8858C18.0912 13.3385 17.6597 13.652 17.1603 13.7245L12.9971 14.3294C12.7964 14.3586 12.7263 14.5111 12.7054 14.5753C12.6846 14.6395 12.6517 14.8042 12.7968 14.9457L15.8094 17.8821C16.1708 18.2344 16.3356 18.7416 16.2504 19.2391L15.5392 23.3856C15.5049 23.5853 15.6283 23.6992 15.6829 23.7389C15.7376 23.7787 15.8841 23.8609 16.0634 23.7664L19.7871 21.8088C20.0103 21.6914 20.2553 21.6327 20.5004 21.6327Z" fill="black"/>
</g>
<defs>
<clipPath id="clip0_6379_20406">
<rect width="40" height="40" fill="white" transform="translate(0.5)"/>
</clipPath>
</defs>
</svg>
