<svg width="41" height="40" viewBox="0 0 41 40" fill="none" xmlns="http://www.w3.org/2000/svg">
<g clip-path="url(#clip0_6379_20420)">
<path fill-rule="evenodd" clip-rule="evenodd" d="M3.37945 19.1099C3.38008 19.1606 12.4795 19.3341 12.4808 19.3835C12.5684 22.7627 14.0948 23.1049 16.9031 28.0076C18.378 30.5823 16.3431 32.974 14.7316 30.9177L12.2586 27.762V35.967C12.2586 36.7271 11.6367 37.349 10.8767 37.349C10.118 37.349 9.49664 36.7292 9.49477 35.9705V37.915C9.49477 38.6751 8.87289 39.2969 8.11281 39.2969C7.35273 39.2969 6.73086 38.6748 6.73086 37.915V36.2675C6.72773 37.025 6.10719 37.6437 5.34898 37.6437C4.58891 37.6437 3.96703 37.0217 3.96703 36.2617V33.9188C3.96703 34.6788 3.34523 35.3007 2.58508 35.3007C1.825 35.3007 1.20312 34.6788 1.20312 33.9188L1.2032 26.7095C1.2032 25.0807 1.44164 21.3007 3.37945 19.1099Z" fill="#FFD6BD"/>
<path fill-rule="evenodd" clip-rule="evenodd" d="M3.37936 19.1099C3.38006 19.1606 12.4794 19.3341 12.4807 19.3835C12.5683 22.7627 14.0947 23.1049 16.9029 28.0076C17.9058 29.7584 17.2857 31.4241 16.2794 31.6645C16.6724 30.9678 16.7154 29.8529 16.0555 28.7009C13.2472 23.7983 11.7209 23.4561 11.6333 20.0769C11.6322 20.0329 4.42748 19.8908 2.83936 19.8242C3.00295 19.5723 3.18225 19.3328 3.37936 19.1099ZM8.64725 29.5959V38.6084C8.64725 38.8372 8.59084 39.0533 8.49139 39.2438C9.06889 39.0782 9.49467 38.5439 9.49467 37.915V30.6772L8.64725 29.5959ZM3.11959 28.8377V34.6122C3.11959 34.8409 3.06318 35.0571 2.96373 35.2476C3.54123 35.082 3.96701 34.5477 3.96701 33.9188V29.9191L3.11959 28.8377ZM5.88342 29.5664V36.9552C5.88342 37.1839 5.82701 37.4 5.72756 37.5906C6.30506 37.4249 6.73084 36.8906 6.73084 36.2617V30.6477L5.88342 29.5664ZM12.2585 27.762L11.4111 26.6806V36.6604C11.4111 36.8891 11.3547 37.1052 11.2552 37.2958C11.8327 37.1302 12.2585 36.5959 12.2585 35.967V27.762Z" fill="#F9C6AA"/>
<path fill-rule="evenodd" clip-rule="evenodd" d="M3.37945 19.1099C3.38008 19.1606 12.4795 19.3341 12.4808 19.3835C12.5684 22.7627 14.0948 23.1049 16.9031 28.0076C18.378 30.5823 16.3431 32.974 14.7316 30.9177L12.2586 27.762V35.967C12.2586 36.7271 11.6367 37.349 10.8767 37.349C10.118 37.349 9.49664 36.7292 9.49477 35.9705V37.915C9.49477 38.6751 8.87289 39.2969 8.11281 39.2969C7.35273 39.2969 6.73086 38.6748 6.73086 37.915V36.2675C6.72773 37.025 6.10719 37.6437 5.34898 37.6437C4.58891 37.6437 3.96703 37.0217 3.96703 36.2617V33.9188C3.96703 34.6788 3.34523 35.3007 2.58508 35.3007C1.825 35.3007 1.20312 34.6788 1.20312 33.9188L1.2032 26.7095C1.2032 25.0807 1.44164 21.3007 3.37945 19.1099Z" fill="#FFD6BD"/>
<path fill-rule="evenodd" clip-rule="evenodd" d="M3.37936 19.1099C3.38006 19.1606 12.4794 19.3341 12.4807 19.3835C12.5683 22.7627 14.0947 23.1049 16.9029 28.0076C17.9058 29.7584 17.2857 31.4241 16.2794 31.6645C16.6724 30.9678 16.7154 29.8529 16.0555 28.7009C13.2472 23.7983 11.7209 23.4561 11.6333 20.0769C11.6322 20.0329 4.42748 19.8908 2.83936 19.8242C3.00295 19.5723 3.18225 19.3328 3.37936 19.1099ZM8.64725 29.5959V38.6084C8.64725 38.8372 8.59084 39.0533 8.49139 39.2438C9.06889 39.0782 9.49467 38.5439 9.49467 37.915V30.6772L8.64725 29.5959ZM3.11959 28.8377V34.6122C3.11959 34.8409 3.06318 35.0571 2.96373 35.2476C3.54123 35.082 3.96701 34.5477 3.96701 33.9188V29.9191L3.11959 28.8377ZM5.88342 29.5664V36.9552C5.88342 37.1839 5.82701 37.4 5.72756 37.5906C6.30506 37.4249 6.73084 36.8906 6.73084 36.2617V30.6477L5.88342 29.5664ZM12.2585 27.762L11.4111 26.6806V36.6604C11.4111 36.8891 11.3547 37.1052 11.2552 37.2958C11.8327 37.1302 12.2585 36.5959 12.2585 35.967V27.762Z" fill="#F9C6AA"/>
<path fill-rule="evenodd" clip-rule="evenodd" d="M13.1095 20.0773V8.34881C13.1095 8.08319 12.892 7.86584 12.6262 7.86584H2.76803C2.50217 7.86584 2.28467 8.08327 2.28467 8.34881V20.0773C2.28467 20.343 2.50217 20.5604 2.76803 20.5604H12.6262C12.892 20.5603 13.1095 20.3429 13.1095 20.0773Z" fill="#72D561"/>
<path fill-rule="evenodd" clip-rule="evenodd" d="M13.1095 20.0772V19.3962H3.93209C3.66623 19.3962 3.44873 19.1788 3.44873 18.9132V7.86572H2.76803C2.50217 7.86572 2.28467 8.08314 2.28467 8.34869V20.0772C2.28467 20.3428 2.50217 20.5603 2.76803 20.5603H12.6262C12.892 20.5603 13.1095 20.3428 13.1095 20.0772Z" fill="#3CBE52"/>
<path fill-rule="evenodd" clip-rule="evenodd" d="M21.3901 2.87945C21.3394 2.88008 21.1659 11.9795 21.1165 11.9808C17.7373 12.0684 17.3951 13.5948 12.4924 16.4031C9.91774 17.878 7.52602 15.8431 9.58227 14.2316L12.738 11.7586H4.53305C3.77297 11.7586 3.15109 11.1367 3.15109 10.3767C3.15109 9.61797 3.77086 8.99664 4.52961 8.99484H2.585C1.82492 8.99477 1.20312 8.37289 1.20312 7.61281C1.20312 6.85273 1.82516 6.23086 2.585 6.23086H4.2325C3.475 6.22773 2.85633 5.60719 2.85633 4.84898C2.85633 4.08891 3.47828 3.46703 4.23828 3.46703H6.58125C5.82117 3.46703 5.1993 2.84523 5.1993 2.08516C5.1993 1.325 5.82125 0.703125 6.58125 0.703125L13.7905 0.703203C15.4193 0.703203 19.1993 0.94164 21.3901 2.87945Z" fill="#FFD6BD"/>
<path fill-rule="evenodd" clip-rule="evenodd" d="M21.3898 2.87948C21.3391 2.88018 21.1655 11.9796 21.1162 11.9808C17.737 12.0685 17.3948 13.5948 12.4921 16.4031C10.7413 17.406 9.07555 16.7858 8.83516 15.7796C9.53188 16.1725 10.6468 16.2155 11.7988 15.5556C16.7014 12.7473 17.0436 11.221 20.4228 11.1334C20.4668 11.1323 20.6089 3.9276 20.6755 2.33948C20.9273 2.50299 21.1669 2.68229 21.3898 2.87948ZM10.9038 8.14737H1.89125C1.6625 8.14737 1.44641 8.09096 1.25586 7.99151C1.42148 8.56901 1.95578 8.99479 2.58469 8.99479H9.8225L10.9038 8.14737ZM11.662 2.61971H5.8875C5.65875 2.61971 5.44266 2.56331 5.25211 2.46385C5.41773 3.04135 5.95203 3.46713 6.58094 3.46713H10.5806L11.662 2.61971ZM10.9333 5.38354H3.54453C3.31578 5.38354 3.09969 5.32713 2.90914 5.22768C3.07477 5.80518 3.60906 6.23096 4.23797 6.23096H9.85195L10.9333 5.38354ZM12.7377 11.7586L13.8191 10.9112H3.8393C3.61055 10.9112 3.39445 10.8548 3.20391 10.7553C3.36953 11.3328 3.90383 11.7586 4.53273 11.7586H12.7377Z" fill="#F9C6AA"/>
<path fill-rule="evenodd" clip-rule="evenodd" d="M20.4225 12.6095H32.151C32.4166 12.6095 32.634 12.392 32.634 12.1261V2.26797C32.634 2.00211 32.4166 1.78461 32.151 1.78461H20.4225C20.1569 1.78461 19.9395 2.00211 19.9395 2.26797V12.1261C19.9395 12.392 20.1569 12.6095 20.4225 12.6095Z" fill="#FFDA2D"/>
<path fill-rule="evenodd" clip-rule="evenodd" d="M20.4225 12.6095H21.1034V3.43195C21.1034 3.16609 21.3209 2.94859 21.5864 2.94859H32.6339V2.26797C32.6339 2.00211 32.4165 1.78461 32.1509 1.78461H20.4225C20.1569 1.78461 19.9395 2.00211 19.9395 2.26797V12.1261C19.9395 12.3919 20.1569 12.6095 20.4225 12.6095Z" fill="#FFC700"/>
<path fill-rule="evenodd" clip-rule="evenodd" d="M37.6205 20.8902C37.6197 20.8395 28.5204 20.666 28.5191 20.6166C28.4314 17.2374 26.9051 16.8952 24.0968 11.9925C22.6219 9.41786 24.6568 7.02614 26.2683 9.08239L28.7414 12.2381V4.03309C28.7414 3.27301 29.3633 2.65114 30.1233 2.65114C30.8821 2.65114 31.5034 3.2709 31.5053 4.02965V2.08512C31.5053 1.32504 32.1272 0.703247 32.8872 0.703247C33.6473 0.703247 34.2692 1.32528 34.2692 2.08512V3.73262C34.2723 2.97512 34.8929 2.35645 35.6511 2.35645C36.4112 2.35645 37.033 2.9784 37.033 3.7384V6.08129C37.033 5.32122 37.6548 4.69934 38.4149 4.69934C39.175 4.69934 39.7969 5.32129 39.7969 6.08129L39.7968 13.2905C39.7967 14.9193 39.5583 18.6993 37.6205 20.8902Z" fill="#FFD6BD"/>
<path fill-rule="evenodd" clip-rule="evenodd" d="M37.6203 20.8902C37.6196 20.8395 28.5202 20.666 28.519 20.6166C28.4313 17.2374 26.905 16.8952 24.0967 11.9925C23.0938 10.2417 23.7141 8.57597 24.7202 8.33558C24.3273 9.0323 24.2843 10.1472 24.9441 11.2992C27.7525 16.2018 29.2787 16.544 29.3664 19.9232C29.3675 19.9672 36.5722 20.1093 38.1603 20.1759C37.9968 20.4277 37.8175 20.6672 37.6203 20.8902ZM32.3524 10.4042V1.39168C32.3524 1.16293 32.4088 0.946834 32.5083 0.756287C31.9308 0.921912 31.505 1.45621 31.505 2.08511V9.32293L32.3524 10.4042ZM37.8801 11.1623V5.38785C37.8801 5.1591 37.9365 4.94301 38.036 4.75246C37.4585 4.91808 37.0327 5.45238 37.0327 6.08129V10.081L37.8801 11.1623ZM35.1162 10.4336V3.04488C35.1162 2.81613 35.1726 2.60004 35.2721 2.40949C34.6946 2.57511 34.2688 3.10941 34.2688 3.73832V9.3523L35.1162 10.4336ZM28.7412 12.2381L29.5886 13.3194V3.33965C29.5886 3.1109 29.645 2.8948 29.7444 2.70426C29.1669 2.86988 28.7412 3.40418 28.7412 4.03308V12.2381Z" fill="#F9C6AA"/>
<path fill-rule="evenodd" clip-rule="evenodd" d="M27.8901 19.9229V31.6514C27.8901 31.917 28.1076 32.1344 28.3735 32.1344H38.2316C38.4975 32.1344 38.715 31.9169 38.715 31.6514V19.9229C38.715 19.6572 38.4975 19.4398 38.2316 19.4398H28.3735C28.1076 19.4399 27.8901 19.6572 27.8901 19.9229Z" fill="#FF72C7"/>
<path fill-rule="evenodd" clip-rule="evenodd" d="M27.8901 19.9229V20.6038H37.0676C37.3335 20.6038 37.551 20.8212 37.551 21.0868V32.1343H38.2317C38.4976 32.1343 38.7151 31.9168 38.7151 31.6513V19.9229C38.7151 19.6572 38.4976 19.4398 38.2317 19.4398H28.3735C28.1077 19.4399 27.8901 19.6572 27.8901 19.9229Z" fill="#FF4FB9"/>
<path fill-rule="evenodd" clip-rule="evenodd" d="M19.6104 37.1206C19.6611 37.1199 19.8346 28.0205 19.8839 28.0192C23.2632 27.9315 23.6054 26.4053 28.508 23.5969C31.0827 22.1221 33.4744 24.1569 31.4182 25.7685L28.2625 28.2415H36.4675C37.2275 28.2415 37.8494 28.8634 37.8494 29.6235C37.8494 30.3822 37.2296 31.0035 36.4709 31.0054H38.4154C39.1755 31.0054 39.7973 31.6273 39.7973 32.3874C39.7973 33.1474 39.1753 33.7693 38.4154 33.7693H36.7679C37.5254 33.7724 38.1441 34.393 38.1441 35.1512C38.1441 35.9113 37.5221 36.5331 36.7621 36.5331H34.4193C35.1793 36.5331 35.8012 37.1549 35.8012 37.915C35.8012 38.6751 35.1793 39.297 34.4193 39.297L27.21 39.2969C25.5812 39.2968 21.8012 39.0584 19.6104 37.1206Z" fill="#FFD6BD"/>
<path fill-rule="evenodd" clip-rule="evenodd" d="M19.6104 37.1205C19.6611 37.1198 19.8346 28.0205 19.8839 28.0192C23.2631 27.9316 23.6054 26.4052 28.508 23.5969C30.2589 22.5941 31.9246 23.2143 32.165 24.2205C31.4682 23.8275 30.3533 23.7845 29.2014 24.4444C24.2987 27.2527 23.9565 28.779 20.5773 28.8666C20.5333 28.8677 20.3911 36.0724 20.3246 37.6605C20.0729 37.497 19.8333 37.3177 19.6104 37.1205ZM30.0964 31.8527H39.1089C39.3377 31.8527 39.5539 31.9091 39.7443 32.0086C39.5787 31.4311 39.0444 31.0053 38.4155 31.0053H31.1777L30.0964 31.8527ZM29.3382 37.3804H35.1127C35.3414 37.3804 35.5575 37.4368 35.7481 37.5362C35.5825 36.9587 35.0482 36.533 34.4193 36.533H30.4196L29.3382 37.3804ZM30.0669 34.6166H37.4557C37.6844 34.6166 37.9006 34.673 38.0911 34.7724C37.9254 34.1949 37.3911 33.7691 36.7622 33.7691H31.1482L30.0669 34.6166ZM28.2625 28.2415L27.1811 29.0889H37.1609C37.3896 29.0889 37.6057 29.1453 37.7963 29.2448C37.6307 28.6673 37.0964 28.2415 36.4675 28.2415H28.2625Z" fill="#F9C6AA"/>
<path fill-rule="evenodd" clip-rule="evenodd" d="M20.5772 27.3906H8.84869C8.58307 27.3906 8.36572 27.6081 8.36572 27.874V37.732C8.36572 37.9979 8.58314 38.2154 8.84869 38.2154H20.5772C20.8428 38.2154 21.0603 37.9979 21.0603 37.732V27.8739C21.0602 27.6081 20.8428 27.3906 20.5772 27.3906Z" fill="#64B5F6"/>
<path fill-rule="evenodd" clip-rule="evenodd" d="M20.5772 27.3906H19.8962V36.5681C19.8962 36.834 19.6788 37.0515 19.4132 37.0515H8.36572V37.7322C8.36572 37.998 8.58314 38.2155 8.84869 38.2155H20.5772C20.8428 38.2155 21.0603 37.998 21.0603 37.7322V27.8739C21.0602 27.6081 20.8428 27.3906 20.5772 27.3906Z" fill="#42A5F5"/>
<path fill-rule="evenodd" clip-rule="evenodd" d="M12.8202 21.4852C13.4215 23.2264 14.8041 24.3432 16.903 28.0075C18.378 30.5822 16.343 32.9739 14.7316 30.9177L12.2585 27.762V35.967C12.2585 36.7271 11.6366 37.3489 10.8766 37.3489C10.1178 37.3489 9.49656 36.7291 9.49461 35.9704V37.915C9.49461 38.675 8.87273 39.2968 8.11266 39.2968C7.35258 39.2968 6.7307 38.6748 6.7307 37.915V36.2675C6.72758 37.025 6.10695 37.6436 5.34883 37.6436C4.58875 37.6436 3.96688 37.0217 3.96688 36.2617V33.9187C3.96688 34.6788 3.34508 35.3007 2.58492 35.3007C1.825 35.3007 1.20312 34.6787 1.20312 33.9187L1.2032 26.7095C1.2032 25.5839 1.31727 23.431 2.02711 21.4851L12.8202 21.4852Z" fill="#FFD6BD"/>
<path fill-rule="evenodd" clip-rule="evenodd" d="M12.8203 21.4852C13.4215 23.2264 14.8042 24.3432 16.9032 28.0075C17.9061 29.7584 17.2859 31.4241 16.2796 31.6645C16.6726 30.9678 16.7156 29.8528 16.0557 28.7009C13.6926 24.5754 12.2374 23.679 11.7831 21.4851L12.8203 21.4852ZM8.6473 29.5958V38.6084C8.6473 38.8371 8.5909 39.0532 8.49144 39.2438C9.06902 39.0782 9.49473 38.5439 9.49473 37.9149V30.6771L8.6473 29.5958ZM3.11965 28.8377V34.6121C3.11965 34.8409 3.06324 35.0571 2.96387 35.2475C3.54137 35.0819 3.96715 34.5476 3.96715 33.9187V29.919L3.11965 28.8377ZM5.88348 29.5664V36.955C5.88348 37.1838 5.82707 37.3999 5.72762 37.5905C6.30512 37.4249 6.7309 36.8906 6.7309 36.2617V30.6477L5.88348 29.5664ZM12.2586 27.7619L11.4111 26.6806V36.6603C11.4111 36.8891 11.3547 37.1052 11.2553 37.2957C11.8328 37.1301 12.2586 36.5958 12.2586 35.9669V27.7619Z" fill="#F9C6AA"/>
<path fill-rule="evenodd" clip-rule="evenodd" d="M21.5669 12.7191C23.8949 10.3911 27.712 10.3832 30.0479 12.7191C32.3803 15.0515 32.3805 18.8679 30.048 21.2003C26.8651 24.3832 23.6827 27.5658 20.4998 30.7488C17.317 27.566 14.1342 24.3833 10.9514 21.2004C8.61906 18.868 8.61906 15.0517 10.9514 12.7194C13.2838 10.3869 17.1001 10.3868 19.4325 12.7193L20.4996 13.7864L21.5669 12.7191Z" fill="#FC685B"/>
<path fill-rule="evenodd" clip-rule="evenodd" d="M25.0273 11.021C26.8116 10.7896 28.6829 11.3538 30.0482 12.7191C32.3806 15.0515 32.3807 18.8678 30.0483 21.2003C26.8654 24.3832 23.6831 27.5659 20.5001 30.7488L19.7189 29.9676C22.6413 27.0451 25.5633 24.1229 28.4858 21.2003C30.8182 18.8679 30.8182 15.0516 28.4857 12.7192C27.5171 11.7504 26.2936 11.1853 25.0273 11.021ZM14.4111 11.0209C15.6784 11.1853 16.9022 11.7511 17.8704 12.7193L19.7187 14.5677L20.5 13.7864L19.4329 12.7193C18.0686 11.3551 16.1968 10.7892 14.4111 11.0209Z" fill="#F35244"/>
<path fill-rule="evenodd" clip-rule="evenodd" d="M38.4132 33.1443H30.0306C29.6842 33.1443 29.4042 33.4239 29.4042 33.7692C29.4042 34.1141 29.6842 34.3941 30.0306 34.3941H36.7662C37.1788 34.3959 37.5178 34.7353 37.5178 35.1509C37.5178 35.5684 37.1788 35.9078 36.7588 35.9078H29.942C29.5994 35.9078 29.3193 36.1878 29.3193 36.5331C29.3193 36.8784 29.5994 37.158 29.942 37.158H34.419C34.8354 37.158 35.1744 37.4974 35.1744 37.9149C35.1744 38.3324 34.8354 38.6717 34.419 38.6717H27.2081C26.191 38.6717 23.7223 38.5696 21.6847 37.6798V30.4475L26.6591 25.472C27.3592 25.0059 28.0667 24.5693 28.8183 24.1392C30.0527 23.431 31.1581 23.7154 31.4787 24.193C31.7698 24.626 31.2613 25.095 31.0328 25.2763L27.875 27.7495C27.665 27.9138 27.5839 28.1935 27.6724 28.4452C27.7571 28.6972 27.9966 28.8664 28.2619 28.8664H36.4678C36.8842 28.8664 37.2231 29.2061 37.2231 29.6236C37.2231 30.0392 36.8842 30.3782 36.4715 30.3804C36.4678 30.3804 36.4678 30.3804 36.4678 30.3804H29.732C29.3894 30.3804 29.1056 30.6601 29.1056 31.0053C29.1056 31.3506 29.3894 31.6303 29.732 31.6303H38.4132C38.8333 31.6303 39.1723 31.97 39.1723 32.3871C39.1723 32.8045 38.8333 33.1443 38.4132 33.1443ZM12.0528 37.5902C12.5577 37.225 12.8819 36.6336 12.8819 35.9667V29.5726L14.2379 31.3029C15.2144 32.5469 16.3381 32.4647 17.0051 32.0163C17.7678 31.503 18.21 30.3854 17.9705 29.1053L20.056 31.1905C20.1592 31.2922 20.2919 31.3552 20.4356 31.37V37.5901H12.0528V37.5902ZM8.86924 37.9148V29.2333C8.86924 28.8884 9.14924 28.6084 9.49564 28.6084C9.8383 28.6084 10.1184 28.8884 10.1184 29.2333V35.9689V35.9704C10.1221 36.3861 10.461 36.7239 10.8774 36.7239C11.2938 36.7239 11.6328 36.3843 11.6328 35.9668V27.762C11.6328 27.4952 11.8024 27.2579 12.0529 27.1714C12.3071 27.084 12.5872 27.1665 12.7493 27.3766L15.2217 30.5322C15.406 30.7639 15.8739 31.271 16.305 30.9796C16.784 30.6578 17.0678 29.5543 16.3603 28.3181C15.9292 27.5675 15.4944 26.8615 15.0264 26.1607L10.509 21.6421C10.3617 21.4958 10.2253 21.3428 10.0926 21.1852H2.81893C1.93088 23.2228 1.82775 25.6927 1.82775 26.7093V33.9189C1.82775 34.336 2.16674 34.6757 2.58307 34.6757C3.00314 34.6757 3.34213 34.336 3.34213 33.9189V29.4437C3.34213 29.0989 3.62213 28.8188 3.96486 28.8188C4.31119 28.8188 4.59127 29.0989 4.59127 29.4437V36.2615C4.59127 36.679 4.93025 37.0187 5.34666 37.0187C5.76307 37.0187 6.10205 36.6804 6.10572 36.2648V29.5303C6.10572 29.1854 6.38572 28.9053 6.72846 28.9053C7.07478 28.9053 7.35486 29.1853 7.35486 29.5303V37.9148C7.35486 38.3323 7.69385 38.6716 8.11393 38.6716C8.53025 38.6717 8.86924 38.3323 8.86924 37.9148ZM2.58307 6.85566H10.9695C11.3122 6.85566 11.596 6.57597 11.596 6.23074C11.596 5.8855 11.3122 5.60581 10.9695 5.60581H4.23385C3.81744 5.60394 3.48213 5.26464 3.48213 4.84902C3.48213 4.43152 3.82111 4.09183 4.23752 4.09183H11.0542C11.4006 4.09183 11.6806 3.81214 11.6806 3.46691C11.6806 3.1216 11.4006 2.84199 11.0542 2.84199H6.58103C6.16471 2.84199 5.82197 2.50222 5.82197 2.08511C5.82197 1.66761 6.16463 1.32832 6.58103 1.32832H13.7883C14.8053 1.32832 17.2778 1.43003 19.3154 2.31988V11.7789C18.151 10.8503 16.7103 10.3448 15.1922 10.3451C14.072 10.3451 12.9998 10.6189 12.0417 11.1336H4.53228C4.11596 11.1336 3.77689 10.7939 3.77689 10.3764C3.77689 9.96011 4.11221 9.62066 4.52861 9.61964H11.2642C11.6106 9.61964 11.8906 9.33996 11.8906 8.99472C11.8906 8.64941 11.6106 8.3698 11.2642 8.3698H2.58307C2.16674 8.3698 1.82775 8.03003 1.82775 7.61261C1.82775 7.19543 2.16674 6.85566 2.58307 6.85566ZM28.9435 2.40933C28.4424 2.77449 28.1145 3.36628 28.1145 4.03316V10.4272L26.7585 8.69691C25.8558 7.54214 24.813 7.52589 24.1387 7.89621C23.2138 8.40324 22.7863 9.65089 23.037 10.9457C22.3332 11.2681 21.6847 11.715 21.1246 12.2769L20.5645 12.8374V2.40933H28.9435ZM32.1308 2.08472C32.1308 1.66761 32.4698 1.32824 32.8862 1.32824C33.3026 1.32824 33.6416 1.66761 33.6416 2.08472V10.4696C33.6416 10.8145 33.9216 11.0946 34.268 11.0946C34.6143 11.0946 34.8944 10.8145 34.8944 10.4696V3.73511C34.8944 3.31949 35.2334 2.98121 35.6498 2.98121C36.0661 2.98121 36.4088 3.32097 36.4088 3.73839V10.5558C36.4088 10.9011 36.6889 11.1807 37.0316 11.1807C37.378 11.1807 37.658 10.9011 37.658 10.5558V6.08113C37.658 5.66363 37.997 5.32425 38.4134 5.32425C38.8335 5.32425 39.1724 5.66363 39.1724 6.08113V13.2903C39.1724 14.3069 39.0692 16.7771 38.1813 18.8148H32.1642C32.8127 16.5689 32.2563 14.0442 30.4913 12.277C30.1449 11.9325 29.7691 11.6325 29.3674 11.3764V4.03316C29.3674 3.61566 29.7064 3.27597 30.1228 3.27597C30.5392 3.27597 30.8782 3.61386 30.8782 4.02949V4.03097V10.7663C30.8782 11.1119 31.1583 11.3916 31.5046 11.3916C31.851 11.3916 32.131 11.1119 32.131 10.7663V2.08472H32.1308ZM24.7392 8.99207C24.3818 9.18847 24.1386 9.79089 24.2345 10.5312C24.743 10.4093 25.2662 10.3451 25.8042 10.3451H25.8078C26.0363 10.3451 26.2647 10.3569 26.4895 10.3797L25.7746 9.46777C25.6052 9.24816 25.1593 8.76214 24.7392 8.99207ZM2.90736 19.935H9.27822C8.82135 19.0248 8.57814 18.0119 8.57814 16.9599C8.57814 15.2354 9.22666 13.6171 10.4095 12.3835H4.53228C3.86541 12.3835 3.27213 12.0563 2.90736 11.5544V19.935ZM20.4981 29.8649L29.6067 20.7585C31.6996 18.6637 31.6996 15.2557 29.6067 13.161C28.5971 12.151 27.2485 11.595 25.8078 11.595H25.8042C24.3635 11.5961 23.0185 12.1521 22.0089 13.161L20.9403 14.2281C20.6971 14.4724 20.3029 14.472 20.056 14.2281L18.9912 13.161C17.9816 12.151 16.6293 11.595 15.1923 11.595C13.7516 11.595 12.4029 12.1514 11.3933 13.1613C10.3837 14.1713 9.82728 15.5203 9.82728 16.9599C9.82728 18.3995 10.3837 19.7485 11.3933 20.7585L20.4981 29.8649ZM32.5177 23.4951C32.9635 24.1613 33.0483 25.2855 31.8028 26.2601L30.071 27.6164H36.4677C37.1346 27.6164 37.7242 27.9436 38.0889 28.4455V20.065H31.6555C31.3534 20.6321 30.9664 21.1648 30.4911 21.642L29.6031 22.5271C30.8853 22.2895 32.0018 22.7324 32.5177 23.4951ZM39.3381 30.6073V19.9228C39.3381 19.7669 39.3049 19.6188 39.2497 19.4843C40.263 17.2845 40.4214 14.6857 40.4214 13.2903V6.08113C40.4214 4.97457 39.5224 4.0741 38.4132 4.0741C38.1479 4.0741 37.89 4.12675 37.6578 4.22222V3.73839C37.6578 2.63152 36.7551 1.73136 35.6496 1.73136C35.3806 1.73136 35.119 1.7855 34.8832 1.88394C34.7837 0.871362 33.9252 0.0780811 32.8861 0.0780811C32.1124 0.0780811 31.4417 0.517691 31.1064 1.15957H20.4208C20.266 1.15957 20.1186 1.19238 19.9823 1.25058C17.7825 0.235737 15.1848 0.0780029 13.7883 0.0780029H6.58103C5.47197 0.0780029 4.57283 0.978159 4.57283 2.08503C4.57283 2.35253 4.62439 2.60824 4.72025 2.84191H4.23752C3.13213 2.84191 2.22932 3.74207 2.22932 4.84894C2.22932 5.12011 2.28463 5.37918 2.38408 5.61574C1.37088 5.71675 0.578613 6.57378 0.578613 7.61253C0.578613 8.38558 1.01713 9.05769 1.65822 9.39261V20.0771C1.65822 20.2326 1.69135 20.3811 1.75033 20.5157C0.733379 22.7154 0.578613 25.3143 0.578613 26.7093V33.9188C0.578613 35.0253 1.47768 35.9258 2.58307 35.9258C2.85205 35.9258 3.10627 35.8732 3.34213 35.7773V36.2614C3.34213 37.3679 4.24119 38.2685 5.34658 38.2685C5.61924 38.2685 5.87721 38.2139 6.11666 38.116C6.21611 39.1286 7.07471 39.9218 8.11377 39.9218C8.88385 39.9218 9.55814 39.4822 9.89346 38.8403H20.5754C20.7338 38.8403 20.8813 38.8075 21.0139 38.7493C23.2137 39.7641 25.8151 39.9214 27.2079 39.9214L34.4188 39.9218C35.5242 39.9218 36.4234 39.0213 36.4234 37.9148C36.4234 37.6469 36.3718 37.3916 36.276 37.1579H36.7587C37.8678 37.1579 38.7669 36.2574 38.7669 35.1509C38.7669 34.8797 38.7153 34.6207 38.6158 34.3841C39.6291 34.2828 40.4213 33.426 40.4213 32.387C40.4214 31.6143 39.9829 30.9422 39.3381 30.6073Z" fill="black"/>
</g>
<defs>
<clipPath id="clip0_6379_20420">
<rect width="40" height="40" fill="white" transform="translate(0.5)"/>
</clipPath>
</defs>
</svg>
