<svg width="40" height="40" viewBox="0 0 40 40" fill="none" xmlns="http://www.w3.org/2000/svg">
<g clip-path="url(#clip0_6361_48968)">
<path d="M27.0309 25.3787C24.258 28.1523 24.258 32.6491 27.0309 35.4228C27.4 35.7919 27.8004 36.1119 28.2226 36.3827V37.8304C28.1758 38.6053 27.5335 39.2195 26.7468 39.2195H2.32334C1.50702 39.2195 0.845215 38.5577 0.845215 37.7414V2.25852C0.845215 1.4422 1.50702 0.780396 2.32334 0.780396H19.6683C19.8634 0.780396 20.0554 0.822539 20.2302 0.902142V7.82219C20.2302 8.3482 20.6571 8.77509 21.1839 8.77509H28.1032C28.1828 8.9499 28.2249 9.14111 28.2249 9.337V24.418C27.8012 24.688 27.4008 25.0087 27.0309 25.3787Z" fill="#EFF3F3"/>
<path d="M28.1029 8.77517H21.1837C20.6569 8.77517 20.23 8.34828 20.23 7.82227V0.902222C20.3767 0.968558 20.5117 1.06143 20.628 1.17771L27.8274 8.37793C27.9437 8.49422 28.0358 8.62845 28.1029 8.77517Z" fill="#E0EF9B"/>
<path d="M37.0749 35.4228C34.6704 37.8273 30.9712 38.1473 28.2225 36.3827C27.8003 36.1119 27.4 35.792 27.0308 35.4228C24.258 32.6492 24.258 28.1524 27.0308 25.3787C27.4007 25.0088 27.8011 24.688 28.2249 24.418C30.9735 22.655 34.6712 22.9758 37.0749 25.3787C39.8478 28.1524 39.8478 32.6492 37.0749 35.4228Z" fill="#CBE558"/>
<path d="M35.1746 29.6562H32.8333V26.5702C32.8333 26.1392 32.4838 25.7898 32.0529 25.7898C31.6219 25.7898 31.2725 26.1392 31.2725 26.5702V30.4366C31.2725 30.8676 31.6219 31.217 32.0529 31.217H35.1746C35.6055 31.217 35.955 30.8676 35.955 30.4366C35.955 30.0056 35.6055 29.6562 35.1746 29.6562Z" fill="black"/>
<path d="M5.56412 12.4384H16.4443C16.8752 12.4384 17.2247 12.089 17.2247 11.658C17.2247 11.227 16.8752 10.8776 16.4443 10.8776H5.56412C5.13317 10.8776 4.78369 11.227 4.78369 11.658C4.78369 12.089 5.13309 12.4384 5.56412 12.4384Z" fill="black"/>
<path d="M19.1579 24.9188H5.56412C5.13317 24.9188 4.78369 25.2682 4.78369 25.6993C4.78369 26.1303 5.13317 26.4797 5.56412 26.4797H19.158C19.5889 26.4797 19.9384 26.1303 19.9384 25.6993C19.9384 25.2682 19.5889 24.9188 19.1579 24.9188Z" fill="black"/>
<path d="M19.1579 29.5994H5.56412C5.13317 29.5994 4.78369 29.9488 4.78369 30.3798C4.78369 30.8108 5.13317 31.1602 5.56412 31.1602H19.158C19.5889 31.1602 19.9384 30.8108 19.9384 30.3798C19.9384 29.9488 19.5889 29.5994 19.1579 29.5994Z" fill="black"/>
<path d="M23.5462 20.2385H5.56412C5.13317 20.2385 4.78369 20.5879 4.78369 21.019C4.78369 21.45 5.13317 21.7994 5.56412 21.7994H23.5462C23.9771 21.7994 24.3266 21.45 24.3266 21.019C24.3266 20.5879 23.9771 20.2385 23.5462 20.2385Z" fill="black"/>
<path d="M37.6267 24.8273C35.3001 22.5007 31.869 21.9359 29.0055 23.1321V9.33703C29.0055 8.76622 28.7832 8.2296 28.3797 7.82604L21.1802 0.625746C21.0125 0.458111 20.8174 0.321068 20.6059 0.218051C20.5987 0.214149 20.5912 0.210793 20.5839 0.207047C20.583 0.206579 20.5821 0.206111 20.5811 0.205721C20.5581 0.194092 20.5344 0.183634 20.5102 0.174347C20.2455 0.0610294 19.9587 0 19.6685 0H2.3235C1.07817 0 0.0649414 1.01315 0.0649414 2.25856V37.7414C0.0649414 38.9868 1.07809 40 2.32342 40H26.7469C27.9394 40 28.9298 39.0677 29.0017 37.8775C29.0027 37.8618 29.0032 37.8461 29.0032 37.8304V37.6686C29.9761 38.0755 31.0145 38.2794 32.0531 38.2794C34.0716 38.2794 36.0901 37.5111 37.6267 35.9745C39.1155 34.4857 39.9354 32.5063 39.9354 30.4008C39.9354 28.2954 39.1155 26.316 37.6267 24.8273ZM26.3411 7.99469H21.1841C21.0885 7.99469 21.0107 7.91735 21.0107 7.82222V2.66383L26.3411 7.99469ZM27.4423 37.8026C27.4109 38.1611 27.109 38.4391 26.747 38.4391H2.3235C1.93875 38.4391 1.62587 38.1262 1.62587 37.7414V2.25856C1.62587 1.8738 1.93882 1.56085 2.3235 1.56085H19.45V7.82222C19.45 8.77801 20.2279 9.55555 21.1842 9.55555H27.4447V24.0059C27.1067 24.2497 26.7836 24.5232 26.4795 24.8273C24.9908 26.3161 24.1708 28.2955 24.1708 30.4009C24.1708 32.5063 24.9908 34.4857 26.4795 35.9746C26.7829 36.2779 27.1052 36.5507 27.4424 36.7942V37.8026H27.4423ZM36.523 34.8708C34.0582 37.3355 30.0478 37.3355 27.5831 34.8708C26.3891 33.6768 25.7315 32.0894 25.7315 30.4009C25.7315 28.7125 26.3891 27.1249 27.5831 25.931C28.8155 24.6986 30.4342 24.0824 32.053 24.0824C33.6718 24.0824 35.2905 24.6986 36.5229 25.931C37.7169 27.125 38.3745 28.7125 38.3745 30.4009C38.3745 32.0894 37.7169 33.6768 36.523 34.8708Z" fill="black"/>
<path d="M5.48599 17.1694H19.5659C19.9969 17.1694 20.3463 16.82 20.3463 16.3889C20.3463 15.9579 19.9969 15.6085 19.5659 15.6085H5.48599C5.05504 15.6085 4.70557 15.9579 4.70557 16.3889C4.70557 16.82 5.05496 17.1694 5.48599 17.1694Z" fill="black"/>
<path d="M23.4498 17.1698C23.881 17.1698 24.2306 16.8202 24.2306 16.389C24.2306 15.9577 23.881 15.6082 23.4498 15.6082C23.0185 15.6082 22.6689 15.9577 22.6689 16.389C22.6689 16.8202 23.0185 17.1698 23.4498 17.1698Z" fill="black"/>
</g>
<defs>
<clipPath id="clip0_6361_48968">
<rect width="40" height="40" fill="white"/>
</clipPath>
</defs>
</svg>
