<svg width="20" height="20" viewBox="0 0 20 20" fill="none" xmlns="http://www.w3.org/2000/svg">
<path d="M7.49967 8.33333C8.42015 8.33333 9.16634 7.58714 9.16634 6.66667C9.16634 5.74619 8.42015 5 7.49967 5C6.5792 5 5.83301 5.74619 5.83301 6.66667C5.83301 7.58714 6.5792 8.33333 7.49967 8.33333Z" stroke="#344054" stroke-width="1.5" stroke-linecap="round" stroke-linejoin="round"/>
<path d="M10.8337 1.66797H7.50033C3.33366 1.66797 1.66699 3.33464 1.66699 7.5013V12.5013C1.66699 16.668 3.33366 18.3346 7.50033 18.3346H12.5003C16.667 18.3346 18.3337 16.668 18.3337 12.5013V8.33464" stroke="#344054" stroke-width="1.5" stroke-linecap="round" stroke-linejoin="round"/>
<path d="M13.7998 5.78411L17.0331 2.55078" stroke="#344054" stroke-width="1.5" stroke-linecap="round"/>
<path d="M17.0331 5.78411L13.7998 2.55078" stroke="#344054" stroke-width="1.5" stroke-linecap="round"/>
<path d="M2.22461 15.7898L6.33294 13.0315C6.99128 12.5898 7.94128 12.6398 8.53294 13.1482L8.80794 13.3898C9.45794 13.9482 10.5079 13.9482 11.1579 13.3898L14.6246 10.4148C15.2746 9.85651 16.3246 9.85651 16.9746 10.4148L18.3329 11.5815" stroke="#344054" stroke-width="1.5" stroke-linecap="round" stroke-linejoin="round"/>
</svg>
