<svg width="96" height="96" viewBox="0 0 96 96" fill="none" xmlns="http://www.w3.org/2000/svg">
<path d="M71.92 43.16V59.16C71.92 60.2 71.88 61.2 71.76 62.16C70.84 72.96 64.48 78.3199 52.76 78.3199H51.16C50.16 78.3199 49.2 78.8 48.6 79.6L43.8 86C41.68 88.84 38.24 88.84 36.12 86L31.3199 79.6C30.7999 78.92 29.64 78.3199 28.76 78.3199H27.16C14.4 78.3199 8 75.16 8 59.16V43.16C8 31.44 13.4 25.08 24.16 24.16C25.12 24.04 26.12 24 27.16 24H52.76C65.52 24 71.92 30.4 71.92 43.16Z" stroke="#EAECF0" stroke-width="6" stroke-miterlimit="10" stroke-linecap="round" stroke-linejoin="round"/>
<path d="M87.9163 27.16V43.16C87.9163 54.92 82.5162 61.24 71.7562 62.16C71.8762 61.2 71.9163 60.2 71.9163 59.16V43.16C71.9163 30.4 65.5162 24 52.7562 24H27.1562C26.1163 24 25.1162 24.04 24.1562 24.16C25.0763 13.4 31.4362 8 43.1562 8H68.7562C81.5162 8 87.9163 14.4 87.9163 27.16Z" stroke="#EAECF0" stroke-width="6" stroke-miterlimit="10" stroke-linecap="round" stroke-linejoin="round"/>
<path d="M53.982 53H54.018" stroke="#EAECF0" stroke-width="6" stroke-linecap="round" stroke-linejoin="round"/>
<path d="M39.982 53H40.018" stroke="#EAECF0" stroke-width="6" stroke-linecap="round" stroke-linejoin="round"/>
<path d="M25.982 53H26.018" stroke="#EAECF0" stroke-width="6" stroke-linecap="round" stroke-linejoin="round"/>
</svg>
