<svg width="40" height="41" viewBox="0 0 40 41" fill="none" xmlns="http://www.w3.org/2000/svg">
<path fill-rule="evenodd" clip-rule="evenodd" d="M27.0277 5.82617H12.9694C7.70435 5.82617 4.16602 9.53117 4.16602 15.0428V28.2762C4.16602 33.7879 7.70435 37.4929 12.9694 37.4929H19.9394C19.936 37.4579 19.9177 37.4262 19.9177 37.3895V25.9395H17.9777C17.2877 25.9395 16.7277 25.3795 16.7277 24.6895C16.7277 23.9995 17.2877 23.4395 17.9777 23.4395H19.9177V21.4229C19.9177 18.1412 22.5894 15.4728 25.8727 15.4728H27.546C28.236 15.4728 28.796 16.0328 28.796 16.7228C28.796 17.4128 28.236 17.9729 27.546 17.9729H25.8727C23.9677 17.9729 22.4177 19.5195 22.4177 21.4229V23.4395H26.7477C27.4377 23.4395 27.9977 23.9995 27.9977 24.6895C27.9977 25.3795 27.4377 25.9395 26.7477 25.9395H22.4177V37.3895C22.4177 37.4262 22.401 37.4579 22.3977 37.4929H27.026C32.2927 37.4929 35.8327 33.7879 35.8327 28.2762V15.0428C35.8327 9.53117 32.2944 5.82617 27.0277 5.82617Z" fill="white"/>
</svg>
