<svg width="32" height="32" viewBox="0 0 32 32" fill="none" xmlns="http://www.w3.org/2000/svg">
<g clip-path="url(#clip0_7854_62444)">
<path fill-rule="evenodd" clip-rule="evenodd" d="M28.5427 21.342C28.5427 29.8587 20.5234 31.342 19.5834 31.4867C19.5427 31.4933 19.5054 31.498 19.496 31.4993H19.4914L12.758 31.4953H12.722H12.714L12.6474 31.4913H12.6227H12.6147H12.5734C12.3134 31.472 11.7927 31.4247 11.1267 31.3087C8.61337 30.8667 4.0267 29.496 3.52737 25.2427C3.1087 21.682 4.63004 19.9047 6.5407 17.5293C8.0807 15.614 6.87404 12.78 6.8647 12.7527C6.9047 12.7747 9.46004 14.18 10.0707 15.382C10.3829 15.952 10.633 16.5539 10.8167 17.1773C10.8047 17.0787 10.2694 12.6687 12.55 9.70333C14.856 6.70667 15.34 5.78467 15.3834 4.25067C15.2905 2.94793 14.9498 1.6749 14.3794 0.5C16.6089 1.91434 18.4984 3.80382 19.9127 6.03333C21.0147 7.78197 21.6267 9.79456 21.6847 11.8607C22.282 11.2671 22.7487 10.5552 23.0547 9.77067C23.2882 8.8696 23.3385 7.93086 23.2027 7.01L24.612 9.41C26.1934 12.3073 28.5427 17.2873 28.5427 21.342Z" fill="#D75C1E"/>
<path fill-rule="evenodd" clip-rule="evenodd" d="M28.5426 21.3419C28.5426 17.2872 26.1932 12.3072 24.6092 9.41324L23.1999 7.01324C23.3357 7.9341 23.2854 8.87284 23.0519 9.77391C22.746 10.5587 22.2791 11.2706 21.6812 11.8639C21.6236 9.79783 21.0118 7.78521 19.9099 6.03658C19.3357 5.16887 18.6973 4.34545 17.9999 3.57324C17.8546 4.83591 17.2399 5.86324 15.1999 8.51391C12.9186 11.4786 13.4539 15.8886 13.4666 15.9872C13.2825 15.364 13.0324 14.7621 12.7206 14.1919C12.316 13.5657 11.7854 13.0305 11.1626 12.6206C10.7832 14.1078 10.6655 15.6497 10.8146 17.1772C10.6309 16.5538 10.3808 15.9519 10.0686 15.3819C10.0034 15.2564 9.92638 15.1374 9.83858 15.0266C9.71952 15.5056 9.49849 15.9534 9.19058 16.3392C7.28058 18.7146 5.75858 20.4926 6.17725 24.0526C6.67658 28.3059 11.2626 29.6766 13.7772 30.1106C14.3162 30.2068 14.8602 30.2718 15.4066 30.3052L22.1452 30.3092H22.1492L22.2346 30.2966C22.7925 30.2045 23.3427 30.0708 23.8806 29.8966C26.1886 28.5059 28.5426 25.9566 28.5426 21.3419Z" fill="#FF6600"/>
<path fill-rule="evenodd" clip-rule="evenodd" d="M22.1652 26.5022C22.1599 30.4422 19.8319 31.3962 19.5832 31.4868C19.5426 31.4935 19.5052 31.4982 19.4959 31.4995H19.4912L12.7579 31.4955H12.7219H12.7139L12.6472 31.4915H12.6226H12.6146H12.5732C12.1221 31.4532 11.6881 31.3007 11.3122 31.0483C10.9362 30.7959 10.6308 30.4519 10.4246 30.0488C10.2905 29.7887 10.1704 29.5217 10.0646 29.2488C9.96579 28.9837 9.89649 28.7085 9.8579 28.4282C9.6119 26.6815 10.6759 25.0155 11.4226 24.1615C13.2006 22.2508 14.6499 21.2188 15.1112 19.0668C15.2722 18.1389 15.3009 17.1928 15.1966 16.2568C16.2939 16.9526 17.2237 17.8826 17.9192 18.9802C18.4615 19.8404 18.7626 20.8304 18.7912 21.8468C19.0865 21.5525 19.3166 21.1993 19.4666 20.8102C19.5813 20.3669 19.606 19.9051 19.5392 19.4522C19.5392 19.4522 22.1692 23.4948 22.1652 26.5022Z" fill="#FF8300"/>
<path fill-rule="evenodd" clip-rule="evenodd" d="M19.5375 19.4521C19.6043 19.9051 19.5796 20.3669 19.4648 20.8101C19.3142 21.196 19.0847 21.5462 18.7908 21.8381C18.7619 20.8218 18.4607 19.8318 17.9188 18.9715C17.8095 18.8068 17.6988 18.6501 17.5855 18.5015C16.9955 20.2428 15.6655 21.2501 14.0708 22.9628C13.3248 23.8188 12.2608 25.4848 12.5068 27.2295C12.5128 27.2721 12.5268 27.3401 12.5488 27.4295C12.758 28.2356 13.2262 28.9507 13.8815 29.4648C14.5367 29.9789 15.3427 30.2635 16.1755 30.2748L17.6848 30.3055H18.2955C19.3035 30.3145 20.2745 29.926 20.9982 29.2243C21.722 28.5225 22.1401 27.564 22.1622 26.5561V26.5001C22.1695 23.4948 19.5375 19.4521 19.5375 19.4521Z" fill="#FFA511"/>
<path d="M25.0414 9.16007L23.632 6.76007C23.573 6.65949 23.4806 6.58274 23.3709 6.54309C23.2612 6.50344 23.1411 6.50339 23.0313 6.54294C22.9216 6.5825 22.8292 6.65917 22.77 6.7597C22.7108 6.86022 22.6887 6.97826 22.7074 7.0934C22.8316 7.93516 22.7881 8.79318 22.5794 9.61807C22.4572 9.96282 22.2906 10.2902 22.084 10.5921C21.8631 8.87139 21.2634 7.22111 20.328 5.76007C18.8734 3.45938 16.9233 1.51265 14.62 0.0620658C14.5269 0.011509 14.4203 -0.00842346 14.3152 0.00510011C14.2101 0.0186237 14.112 0.0649155 14.0347 0.137399C13.9575 0.210112 13.9055 0.305586 13.8863 0.409913C13.8671 0.514239 13.8817 0.621966 13.928 0.717399C14.4637 1.82051 14.788 3.01421 14.884 4.23673C14.8447 5.63073 14.3854 6.4994 12.154 9.3994C11.0308 10.9848 10.3849 12.8586 10.2927 14.7994C9.42003 13.6054 7.35936 12.4554 7.10469 12.3161C7.01344 12.2665 6.90902 12.2465 6.8059 12.2589C6.70278 12.2713 6.60607 12.3154 6.52916 12.3852C6.45226 12.455 6.39896 12.547 6.37666 12.6485C6.35436 12.7499 6.36416 12.8558 6.40469 12.9514C6.41603 12.9774 7.48803 15.5561 6.15203 17.2181L6.00003 17.4047C4.17536 19.6714 2.60003 21.6274 3.03136 25.3014C3.76469 31.5454 12.37 31.9794 12.736 31.9954C12.8017 31.9982 12.8672 31.988 12.929 31.9654C12.9907 31.9428 13.0474 31.9083 13.0957 31.8638C13.1441 31.8193 13.1833 31.7658 13.2109 31.7061C13.2386 31.6465 13.2543 31.5821 13.257 31.5164C13.2598 31.4507 13.2496 31.3852 13.227 31.3235C13.2044 31.2617 13.1699 31.2051 13.1254 31.1567C13.081 31.1083 13.0274 31.0692 12.9678 31.0415C12.9082 31.0138 12.8437 30.9982 12.778 30.9954C12.6967 30.9921 4.65803 30.5821 4.02469 25.1841C3.64203 21.9274 4.95803 20.2927 6.77936 18.0314L6.93136 17.8427C7.34195 17.2733 7.62369 16.6213 7.757 15.9321C7.89031 15.2429 7.87201 14.5329 7.70336 13.8514C8.45985 14.2961 9.11462 14.8945 9.62536 15.6081C9.91716 16.1425 10.1533 16.7054 10.33 17.2881C10.3578 17.4138 10.4331 17.524 10.5402 17.5956C10.6472 17.6673 10.7778 17.6948 10.9046 17.6726C11.0315 17.6503 11.1449 17.5799 11.2212 17.4761C11.2974 17.3723 11.3307 17.2431 11.314 17.1154C11.3087 17.0727 10.7974 12.8034 12.948 10.0087C15.2147 7.06273 15.8347 6.01607 15.8847 4.26473C15.8718 3.44387 15.7255 2.63058 15.4514 1.85673C17.0238 3.12123 18.3884 4.62435 19.4954 6.3114C20.538 7.97876 21.1204 9.89255 21.1834 11.8581C21.1828 11.9564 21.2112 12.0527 21.265 12.1349C21.3188 12.2172 21.3957 12.2818 21.486 12.3207C21.5763 12.3596 21.676 12.371 21.7727 12.3536C21.8695 12.3362 21.959 12.2907 22.03 12.2227C22.6857 11.5743 23.1961 10.794 23.5274 9.9334C23.634 9.60286 23.7046 9.26177 23.738 8.91607L24.172 9.6554C25.618 12.2974 28.0427 17.3334 28.0427 21.3427C28.0427 27.1981 24.1094 29.5514 21.5587 30.4627C22.339 29.294 22.727 27.9073 22.6667 26.5034C22.6714 23.3827 20.0667 19.3494 19.958 19.1794C19.8955 19.0836 19.802 19.0121 19.6931 18.9769C19.5843 18.9416 19.4667 18.9447 19.3598 18.9856C19.253 19.0266 19.1634 19.1028 19.1059 19.2018C19.0485 19.3007 19.0266 19.4163 19.044 19.5294C19.0797 19.7877 19.0853 20.0492 19.0607 20.3087C18.905 19.7365 18.6608 19.1921 18.3367 18.6954C17.598 17.5297 16.6081 16.5439 15.4394 15.8101C15.3587 15.7657 15.2674 15.7445 15.1754 15.7487C15.0835 15.7529 14.9945 15.7824 14.9182 15.834C14.842 15.8855 14.7815 15.9571 14.7433 16.0409C14.7052 16.1247 14.6909 16.2174 14.702 16.3087C14.7986 17.1899 14.7722 18.0802 14.6234 18.9541C14.29 20.5227 13.3754 21.4447 12.1127 22.7221C11.7794 23.0594 11.4254 23.4174 11.046 23.8247C10.5734 24.3661 9.05603 26.3041 9.36403 28.4914C9.40736 28.8077 9.48561 29.1183 9.59736 29.4174C9.61677 29.4834 9.64958 29.5446 9.69374 29.5974C9.7379 29.6501 9.79247 29.6931 9.85402 29.7238C9.91557 29.7545 9.98279 29.7721 10.0515 29.7756C10.1202 29.7792 10.1888 29.7685 10.2532 29.7442C10.3175 29.72 10.3762 29.6828 10.4255 29.6348C10.4748 29.5869 10.5137 29.5293 10.5398 29.4657C10.5658 29.402 10.5785 29.3337 10.5769 29.2649C10.5753 29.1962 10.5596 29.1285 10.5307 29.0661C10.4454 28.835 10.3852 28.5954 10.3514 28.3514C10.1027 26.5841 11.3954 24.9421 11.7867 24.4934C12.1474 24.1061 12.4934 23.7554 12.8207 23.4267C14.154 22.0821 15.2014 21.0201 15.598 19.1654C15.7193 18.543 15.7728 17.9093 15.7574 17.2754C16.4284 17.8484 17.0153 18.5131 17.5007 19.2501C17.9866 20.0279 18.2586 20.9201 18.2894 21.8367C18.2886 21.935 18.3169 22.0314 18.3706 22.1137C18.4243 22.196 18.5011 22.2607 18.5914 22.2996C18.6817 22.3385 18.7815 22.35 18.8782 22.3325C18.9749 22.315 19.0644 22.2694 19.1354 22.2014C19.4613 21.88 19.7209 21.4976 19.8994 21.0761C20.6487 22.4761 21.6667 24.7114 21.664 26.5041C21.6587 30.2161 19.434 30.9947 19.344 31.0247C19.2313 31.0615 19.1354 31.1371 19.0733 31.238C19.0111 31.3389 18.9869 31.4586 19.0048 31.5758C19.0227 31.6929 19.0817 31.7999 19.1712 31.8776C19.2607 31.9553 19.3749 31.9987 19.4934 32.0001C19.514 32.0001 19.5347 32.0001 19.5554 31.9967C19.65 31.9847 29.0427 30.7227 29.0427 21.3427C29.0427 17.3214 26.8714 12.5054 25.0414 9.16007Z" fill="black"/>
</g>
<defs>
<clipPath id="clip0_7854_62444">
<rect width="32" height="32" fill="white"/>
</clipPath>
</defs>
</svg>
