<svg width="41" height="40" viewBox="0 0 41 40" fill="none" xmlns="http://www.w3.org/2000/svg">
<g clip-path="url(#clip0_6379_20269)">
<path d="M37.6168 23.6431C34.1671 27.9246 29.0974 31.9944 23.2631 30.574C20.9142 30.0018 18.9154 28.4019 17.9183 26.2794C17.5193 25.432 17.2799 24.501 17.2424 23.5186C17.1431 20.9197 18.3267 18.4167 17.8198 15.8039C17.3199 13.2303 15.524 11.0347 12.9147 10.4468C12.2702 10.3013 11.6083 10.2561 10.9534 10.3057C9.22114 10.7359 7.66044 11.7915 6.68935 13.9697C6.04138 15.4215 5.6556 17.3741 5.6556 19.973C5.6556 20.6444 5.73575 21.288 5.88208 21.9003C4.43372 21.2506 3.19872 20.0879 2.39747 18.7031C1.26005 16.7374 0.930829 14.3772 1.14942 12.1172C1.39505 9.5749 2.35653 7.03443 4.18981 5.256C6.3506 3.15795 9.52161 2.32795 12.5263 2.52217C15.5318 2.71553 18.405 3.83639 21.0893 5.20201C23.7735 6.5685 26.3236 8.19107 29.0365 9.49654C31.9628 10.9057 36.05 12.1215 38.9546 10.0879C39.2507 9.87975 39.6626 10.0557 39.7245 10.4127C40.4239 14.4634 39.1593 18.8764 36.3984 21.9168C36.1319 22.2094 36.293 22.6797 36.6841 22.7424C36.8905 22.7746 37.0978 22.8104 37.3042 22.8426C37.6822 22.9012 37.8572 23.3453 37.6168 23.6431Z" fill="#6A61B2"/>
<path d="M37.3038 22.8428C37.0974 22.8105 36.8901 22.7748 36.6837 22.7426C36.2927 22.6799 36.1315 22.2096 36.398 21.917C39.1588 18.8766 40.4235 14.4636 39.7241 10.4129C39.6622 10.0558 39.2503 9.87988 38.9542 10.0881C38.4729 10.425 37.9591 10.6723 37.4236 10.8447C38.0206 14.8189 36.7527 19.1017 34.0542 22.0733C33.7878 22.366 33.9488 22.8363 34.3399 22.8989C34.5463 22.9311 34.7536 22.9669 34.96 22.9991C35.338 23.0575 35.5131 23.5016 35.2727 23.7995C32.6848 27.0113 29.1853 30.104 25.1353 30.8492C30.179 31.1079 34.5413 27.4597 37.6164 23.6432C37.8568 23.3453 37.6818 22.9011 37.3038 22.8428Z" fill="#5F55AD"/>
<path d="M16.6143 32.2514V26.6243H9.65988V32.2514C9.65988 32.5533 9.46238 32.8193 9.1734 32.9068C6.50371 33.7154 2.13574 34.5041 2.13574 38.1706V38.5653C2.13574 38.8638 2.37777 39.1058 2.67629 39.1058H23.5979C23.8964 39.1058 24.1384 38.8638 24.1384 38.5653V38.1706C24.1384 34.5041 19.7704 33.7154 17.1007 32.9068C16.8118 32.8193 16.6143 32.5533 16.6143 32.2514Z" fill="#FFCDBE"/>
<path d="M17.1007 32.9068C16.8118 32.8193 16.6143 32.5533 16.6143 32.2514V26.6243H14.2705V32.2514C14.2705 32.5533 14.468 32.8193 14.757 32.9068C17.4267 33.7154 21.7946 34.5041 21.7946 38.1706V38.5653C21.7946 38.8638 21.5526 39.1058 21.2541 39.1058H23.5979C23.8964 39.1058 24.1384 38.8638 24.1384 38.5653V38.1706C24.1385 34.504 19.7705 33.7154 17.1007 32.9068Z" fill="#EBAE9D"/>
<path d="M6.17264 23.0053C8.21203 23.0053 9.86529 21.6815 9.86529 20.0486C9.86529 18.4156 8.21203 17.0919 6.17264 17.0919C4.13324 17.0919 2.47998 18.4156 2.47998 20.0486C2.47998 21.6815 4.13324 23.0053 6.17264 23.0053Z" fill="#EBAE9D"/>
<path d="M17.2421 23.5186C17.2796 24.501 17.5191 25.432 17.918 26.2794C16.339 27.9011 14.4117 28.8373 13.1366 28.8373C10.9601 28.8373 6.88246 26.1096 5.88176 21.9004C5.73543 21.2881 5.65527 20.6445 5.65527 19.973C5.65527 17.3742 6.04105 15.4215 6.68902 13.9697C7.66012 11.7915 9.22082 10.736 10.9531 10.3057C11.608 10.2561 12.2699 10.3014 12.9144 10.4468C15.5237 11.0347 17.3196 13.2304 17.8195 15.8039C18.3264 18.4167 17.1429 20.9197 17.2421 23.5186Z" fill="#FFCDBE"/>
<path d="M11.3618 28.226C11.2161 28.226 11.0614 28.2126 10.8994 28.1866C11.7236 28.6102 12.5092 28.8373 13.1367 28.8373C14.4118 28.8373 16.3391 27.901 17.9181 26.2794C17.5756 25.5517 17.3511 24.7624 17.2706 23.9319C15.6839 26.6032 12.9768 28.226 11.3618 28.226Z" fill="#EBAE9D"/>
<path d="M30.2491 9.96497V2.37872C30.2491 1.55888 29.5845 0.894348 28.7647 0.894348C27.9449 0.894348 27.2803 1.55896 27.2803 2.37872V9.96505C27.2803 10.7961 26.8598 11.5709 26.1626 12.0231C24.847 12.8762 23.9766 14.3571 23.9766 16.0419V18.2873C23.9766 18.4873 24.1388 18.6495 24.3388 18.6495H33.1906C33.3906 18.6495 33.5528 18.4873 33.5528 18.2873V16.0419C33.5528 14.3572 32.6823 12.8762 31.3668 12.0231C30.6695 11.5708 30.2491 10.7961 30.2491 9.96497Z" fill="#91DAFA"/>
<path d="M31.3672 12.023C30.6699 11.5708 30.2495 10.7961 30.2495 9.96497V2.37872C30.2495 1.55888 29.5849 0.894348 28.7651 0.894348C28.427 0.894348 28.1163 1.00872 27.8667 1.19911C28.2222 1.47029 28.4526 1.89708 28.4526 2.3788V9.96513C28.4526 10.7962 28.8731 11.571 29.5704 12.0232C30.8859 12.8763 31.7564 14.3572 31.7564 16.042V18.2874C31.7564 18.4874 31.5942 18.6496 31.3942 18.6496H33.1911C33.3911 18.6496 33.5533 18.4874 33.5533 18.2874V16.042C33.5532 14.3571 32.6828 12.8762 31.3672 12.023Z" fill="#75CFF9"/>
<path d="M24.8422 30.2418C24.3634 30.2005 23.8789 30.1207 23.4024 30.0047C21.2203 29.4731 19.3693 27.9869 18.4491 26.0302C17.5307 24.0774 17.792 22.4147 18.1696 20.2912C18.4325 18.8126 18.7044 17.2838 18.3957 15.6924C18.346 15.4368 18.2844 15.1854 18.2119 14.9387C19.232 16.2176 20.035 17.6974 20.3961 18.8895C20.4728 19.1426 20.7053 19.3057 20.9567 19.3057C21.3491 19.3057 21.6318 18.9262 21.5177 18.5497C20.8008 16.1837 18.6168 12.9436 16.1844 11.5655C15.2988 10.7219 14.2242 10.1413 13.0446 9.87553C12.0343 9.64756 11.0126 9.6878 10.813 9.73733C10.6368 9.78108 10.465 9.83084 10.2967 9.88545C10.8506 9.49623 11.4571 9.18077 12.0946 8.96241C13.6441 8.43186 16.1057 8.22491 19.0339 10.2537C19.3 10.438 19.665 10.3719 19.8492 10.1058C20.0334 9.83975 19.9672 9.47475 19.7012 9.29045C16.3707 6.98303 13.5199 7.23561 11.7148 7.85381C9.29425 8.6828 7.25144 10.7211 6.49144 13.0576C6.37183 13.2728 6.2594 13.4969 6.15495 13.7311C5.78753 14.5542 5.51315 15.5051 5.33206 16.5746C4.23018 16.7532 3.29479 17.2715 2.67925 17.9912C1.63964 15.9315 1.58401 13.7142 1.73315 12.1738C1.98933 9.5278 3.00698 7.22053 4.59878 5.67678C4.67003 5.60756 4.74722 5.53569 4.83472 5.45709C5.07534 5.24069 5.09503 4.87022 4.87862 4.62959C4.66222 4.38897 4.29175 4.36928 4.05112 4.58569C3.95229 4.67452 3.86433 4.75647 3.78261 4.83592C1.99182 6.57272 0.849716 9.13858 0.566825 12.061C0.329325 14.5149 0.70495 17.0789 2.01511 19.2026C1.93636 19.4737 1.89456 19.7569 1.89456 20.0487C1.89456 21.9068 3.63136 23.4343 5.8312 23.5792C6.54284 25.214 7.69948 26.639 9.07495 27.707V32.2516C9.07495 32.2948 9.04597 32.3337 9.00433 32.3463C7.44581 32.8183 5.46136 33.2513 3.89331 34.229C2.33901 35.198 1.55089 36.5241 1.55089 38.1703V38.5648C1.55089 39.186 2.05628 39.6914 2.67745 39.6914H23.5982C24.2194 39.6914 24.7248 39.186 24.7248 38.5648V38.1703C24.7248 36.5241 23.9367 35.198 22.3824 34.229C21.1132 33.4376 19.5557 32.9976 18.1816 32.6093C17.8597 32.5183 17.5556 32.4324 17.2712 32.3462C17.2297 32.3337 17.2007 32.2948 17.2007 32.2516V27.7039C17.3927 27.5551 17.5815 27.3984 17.766 27.2346C18.9186 29.1574 20.8703 30.594 23.1253 31.1433C23.6597 31.2734 24.2035 31.363 24.7417 31.4094C25.0632 31.4373 25.3479 31.1989 25.3758 30.876C25.4035 30.5536 25.1646 30.2696 24.8422 30.2418ZM3.06643 20.0487C3.06643 19.0272 3.94675 18.1297 5.17011 17.8063C5.10417 18.4888 5.07042 19.2112 5.07042 19.9732C5.07042 20.7924 5.18065 21.574 5.39308 22.3439C4.05636 22.079 3.06643 21.1505 3.06643 20.0487ZM16.9316 33.4678C18.3998 33.9126 20.3521 34.3441 21.7622 35.2233C22.9839 35.985 23.5528 36.9214 23.5528 38.1702V38.5194H2.72276V38.1702C2.72276 36.9214 3.29175 35.985 4.51339 35.2233C5.92378 34.344 7.87487 33.9128 9.34386 33.4679C9.88401 33.3044 10.2468 32.8156 10.2468 32.2516V28.4964C11.2697 29.0853 12.2968 29.4233 13.1375 29.4233C13.985 29.4233 15.0107 29.0805 16.0287 28.4933V32.2515C16.0288 32.8156 16.3916 33.3044 16.9316 33.4678ZM13.1375 28.2515C10.9604 28.2515 6.24229 24.9206 6.24229 19.9733C6.24229 17.8652 6.50261 15.4185 7.54276 13.5767C7.54604 13.5707 7.54987 13.5651 7.55315 13.559C8.31151 12.1412 9.49706 11.2837 11.0475 10.8869C14.1874 10.6737 16.6442 12.8216 17.2453 15.9158C17.5125 17.2932 17.2712 18.6497 17.0159 20.086C16.8175 21.2019 16.6123 22.3558 16.6576 23.541C16.6917 24.4382 16.8808 25.3126 17.2207 26.146C16.1709 27.1447 14.475 28.2515 13.1375 28.2515Z" fill="black"/>
<path d="M37.3962 22.2645C37.294 22.2482 36.9904 22.1983 36.941 22.1902C39.738 19.0315 41.0248 14.4968 40.3018 10.313C40.2381 9.94457 39.9938 9.63911 39.6484 9.4959C39.3056 9.35379 38.9202 9.39629 38.6188 9.60864C36.3388 11.2045 33.1953 10.5479 30.8352 9.63895V2.37903C30.8352 1.23747 29.9065 0.308716 28.7649 0.308716C27.6234 0.308716 26.6945 1.23747 26.6945 2.37903V7.61809C26.102 7.29192 25.5115 6.95926 24.9345 6.63356C23.772 5.97739 22.5702 5.29887 21.3552 4.68051C18.0143 2.98036 15.221 2.10879 12.5648 1.93754C10.4021 1.79833 8.30596 2.1627 6.50213 2.99137C6.20806 3.12645 6.07924 3.47434 6.21424 3.7684C6.34931 4.06239 6.6972 4.19137 6.99127 4.05629C8.61916 3.30848 10.5204 2.98028 12.4893 3.107C14.9813 3.26762 17.6295 4.0995 20.8237 5.72489C22.0161 6.33176 23.2068 7.00395 24.3584 7.65403C25.121 8.08458 25.9067 8.527 26.6945 8.95262V9.96528C26.6945 10.6007 26.3766 11.1863 25.8439 11.5318C24.3079 12.5279 23.3909 14.214 23.3909 16.0421V18.2874C23.3909 18.8102 23.8162 19.2355 24.339 19.2355H24.7214V21.7853C24.7214 22.1089 24.9837 22.3712 25.3074 22.3712C25.631 22.3712 25.8933 22.1089 25.8933 21.7853V19.2355H27.0261V21.7853C27.0261 22.1089 27.2884 22.3712 27.612 22.3712C27.9357 22.3712 28.198 22.1089 28.198 21.7853V19.2355H29.3316V21.7853C29.3316 22.1089 29.5938 22.3712 29.9175 22.3712C30.2412 22.3712 30.5035 22.1089 30.5035 21.7853V19.2355H31.6363V21.7853C31.6363 22.1089 31.8985 22.3712 32.2222 22.3712C32.5459 22.3712 32.8081 22.1089 32.8081 21.7853V19.2355H33.1909C33.7136 19.2355 34.139 18.8102 34.139 18.2874V16.0421C34.139 14.214 33.222 12.5279 31.686 11.5317C31.4674 11.3899 31.2856 11.2072 31.1465 10.9977C34.4063 12.1019 37.1602 11.9871 39.1702 10.651C39.7902 14.5022 38.5688 18.6559 35.9658 21.5225C35.6965 21.8179 35.611 22.2352 35.7427 22.6115C35.8739 22.9864 36.1995 23.2582 36.5927 23.3209C36.6949 23.3372 37.0077 23.3886 37.0624 23.3975C34.8922 26.0636 31.4862 29.3411 27.417 30.1086C27.099 30.1686 26.8898 30.475 26.9498 30.7929C27.0028 31.0743 27.2487 31.2704 27.5249 31.2704C27.5609 31.2704 27.5975 31.267 27.6341 31.2601C32.1163 30.4147 35.7852 26.8512 38.0738 24.0107C38.3191 23.7063 38.381 23.3071 38.2395 22.9426C38.0973 22.5771 37.7809 22.3233 37.3962 22.2645ZM32.967 16.0421V18.0636C30.1738 18.0636 27.3696 18.0636 24.5628 18.0636V16.0421C24.5628 14.6127 25.2802 13.2941 26.4817 12.5149C27.3488 11.9525 27.8664 10.9994 27.8664 9.96528V2.37903C27.8664 1.88364 28.2695 1.48059 28.7649 1.48059C29.2603 1.48059 29.6634 1.88364 29.6634 2.37903C29.6634 2.37903 29.6659 10.0596 29.6667 10.0732C29.7015 11.0653 30.2113 11.9722 31.0481 12.5148C32.2497 13.2941 32.967 14.6127 32.967 16.0421Z" fill="black"/>
<path d="M14.6009 23.1598C13.6163 23.6272 12.659 23.6272 11.6743 23.1598C11.3818 23.021 11.0325 23.1454 10.8937 23.4378C10.7549 23.7301 10.8793 24.0795 11.1717 24.2184C11.824 24.5281 12.4809 24.6829 13.1377 24.6829C13.7945 24.6829 14.4513 24.5281 15.1036 24.2184C15.3959 24.0796 15.5204 23.7301 15.3816 23.4378C15.2427 23.1454 14.8932 23.021 14.6009 23.1598Z" fill="black"/>
<path d="M10.2144 17.7097C9.89068 17.7097 9.62842 17.9721 9.62842 18.2957V19.1437C9.62842 19.4673 9.89068 19.7296 10.2144 19.7296C10.538 19.7296 10.8003 19.4673 10.8003 19.1437V18.2957C10.8003 17.9721 10.538 17.7097 10.2144 17.7097Z" fill="black"/>
<path d="M11.0707 16.46C11.164 16.5149 11.2663 16.541 11.3672 16.541C11.568 16.541 11.7636 16.4377 11.8729 16.2521C12.0369 15.9732 11.9438 15.614 11.6649 15.45C10.716 14.8918 9.71303 14.8918 8.76405 15.45C8.48514 15.614 8.39201 15.9732 8.55608 16.2521C8.72022 16.531 9.0792 16.624 9.35819 16.46C9.94233 16.1164 10.4866 16.1164 11.0707 16.46Z" fill="black"/>
</g>
<defs>
<clipPath id="clip0_6379_20269">
<rect width="40" height="40" fill="white" transform="translate(0.5)"/>
</clipPath>
</defs>
</svg>
