<svg width="40" height="41" viewBox="0 0 40 41" fill="none" xmlns="http://www.w3.org/2000/svg">
<path fill-rule="evenodd" clip-rule="evenodd" d="M19.7447 17.6265C17.2147 17.6265 15.1562 19.6815 15.1562 22.2098C15.1562 24.7381 17.2147 26.7931 19.7447 26.7931C22.2747 26.7931 24.3313 24.7381 24.3313 22.2098C24.3313 19.6815 22.2747 17.6265 19.7447 17.6265Z" fill="white"/>
<path fill-rule="evenodd" clip-rule="evenodd" d="M28.1099 15.6745C27.1599 15.6745 26.3849 14.9045 26.3849 13.9595C26.3849 13.0112 27.1599 12.2412 28.1099 12.2412C29.0599 12.2412 29.8333 13.0112 29.8333 13.9595C29.8333 14.9045 29.0599 15.6745 28.1099 15.6745ZM19.7433 29.2929C15.8366 29.2929 12.6566 26.1162 12.6566 22.2095C12.6566 18.3029 15.8366 15.1262 19.7433 15.1262C23.6516 15.1262 26.8299 18.3029 26.8299 22.2095C26.8299 26.1162 23.6516 29.2929 19.7433 29.2929ZM27.0316 5.82617H12.9733C7.70826 5.82617 4.16992 9.52951 4.16992 15.0428V28.2762C4.16992 33.7879 7.70826 37.4929 12.9733 37.4929H27.0299C32.2966 37.4929 35.8366 33.7879 35.8366 28.2762V15.0428C35.8366 9.52951 32.2983 5.82617 27.0316 5.82617Z" fill="white"/>
</svg>
