<svg width="41" height="40" viewBox="0 0 41 40" fill="none" xmlns="http://www.w3.org/2000/svg">
<g clip-path="url(#clip0_6379_20292)">
<path d="M33.4396 24.118C32.8851 25.5918 32.1964 25.6375 31.6745 27.0591C30.8017 29.4328 32.1855 30.7541 31.6745 32.9427C31.4854 33.7515 31.0119 34.7844 29.7867 35.8713H20.4963C18.6161 35.4772 14.6096 34.3514 11.4485 30.8613C4.13447 22.7861 5.684 6.60806 19.7837 2.94611C26.8667 3.17426 32.6309 8.61882 33.3615 15.5644L33.506 19.6439C33.9133 21.1183 33.9853 22.6632 33.4396 24.118Z" fill="#7888AF"/>
<path d="M20.496 29.8947V35.8713H8.85211C7.62693 34.7844 7.15342 33.7515 6.96433 32.9428C6.45332 30.7542 7.83712 29.4329 6.96433 27.0591C6.4416 25.637 5.75321 25.5917 5.19922 24.118C4.57804 22.4631 4.80776 20.8238 5.13281 19.6439L5.27736 15.5644C6.04927 8.22363 12.4069 2.68398 19.7834 2.94613C15.2382 4.60106 11.8916 9.74713 11.7479 15.891C11.576 21.9674 14.8484 28.3355 20.496 29.8947Z" fill="#5972A5"/>
<path d="M30.3848 16.2282C30.8144 15.66 31.4959 15.2928 32.2631 15.2928C33.5628 15.2928 34.6164 16.3464 34.6164 17.6462C34.6164 19.6161 32.3533 20.6837 30.8302 19.5131C22.497 19.9433 22.3942 18.6321 30.3848 16.2282Z" fill="#FFCCBF"/>
<path d="M8.62029 16.9338C8.31845 15.9823 7.42808 15.2928 6.37676 15.2928C5.07703 15.2928 4.02344 16.3464 4.02344 17.6462C4.02344 19.6165 6.28705 20.6837 7.80986 19.5128C8.90088 19.6261 13.0403 20.0273 13.1957 19.3421C13.3458 18.6806 9.70983 17.3284 8.62029 16.9338Z" fill="#FFBBAE"/>
<path d="M15.4138 33.1967L14.9014 31.168L17.069 25.653L22.9813 28.2436C23.6611 28.4734 24.3081 28.7648 24.9136 29.111C27.4779 33.9331 18.7954 34.8254 15.4138 33.1967Z" fill="#FFCCBF"/>
<path d="M18.4837 28.2436C16.7839 29.3787 15.7017 31.2309 15.4137 33.1967C13.6788 32.3614 13.1521 30.8726 13.726 29.111C14.3315 28.7648 14.9785 28.4734 15.6583 28.2436C19.3416 25.2938 21.2126 24.3495 18.4837 28.2436Z" fill="#FFBBAE"/>
<path d="M29.909 37.3552C29.909 38.5319 28.9557 39.4141 27.847 39.4141H26.3764L25.7904 38.6327L25.2044 39.4141H17.2962C13.0875 38.07 10.5074 36.1426 10.7468 34.8177C11.0215 33.2973 14.9677 32.8005 15.4959 32.7381C19.5514 34.1969 23.8841 33.1771 26.8781 30.5565C28.7739 32.3268 29.909 34.7384 29.909 37.3552Z" fill="#FFBED8"/>
<path d="M17.2964 39.4141H13.4341L12.8481 38.6327L12.262 39.4141H10.7915C9.66166 39.4141 8.73184 38.5054 8.72949 37.3763C8.72949 34.736 9.85857 32.3333 11.7604 30.5565C12.1761 30.9206 13.4872 32.0161 15.4961 32.7381C14.995 35.0899 15.6239 37.6276 17.2964 39.4141Z" fill="#FF97C1"/>
<path d="M26.879 30.5565C24.56 34.4297 19.4272 35.7812 15.3484 33.8062L13.6816 31.672L15.8852 31.4691C19.0838 33.3128 23.6675 32.1574 24.9139 29.111C25.6311 29.5204 26.2906 30.0064 26.879 30.5565Z" fill="#F5E578"/>
<path d="M15.8853 31.4691C15.587 32.2013 15.4022 32.9982 15.3485 33.8062C13.8404 33.0748 12.5903 31.9411 11.7612 30.5565C12.3496 30.0064 13.0091 29.5204 13.7264 29.111C14.1186 30.0689 14.8844 30.8925 15.8853 31.4691Z" fill="#FFC86B"/>
<path d="M31.0836 17.3303C30.9309 24.1739 24.9063 29.5845 17.8964 28.7391C14.0649 27.4967 11.0364 24.6596 9.50684 21.0556L11.7479 15.8911C12.8183 15.3246 13.7873 14.5652 14.6108 13.6423C14.9726 13.2368 15.5688 13.1438 16.0454 13.4055C20.3452 15.7645 25.1186 16.6459 29.7795 16.1356C30.4866 16.0575 31.0992 16.6185 31.0836 17.3303Z" fill="#FFDED0"/>
<path d="M17.8969 28.739C12.4422 28.0811 8.13769 23.6921 7.60792 18.2007C7.54854 17.5842 7.98689 17.0326 8.5987 16.9372C9.71136 16.7638 10.7725 16.4083 11.7484 15.891C11.6067 20.9011 13.7679 26.1468 17.8969 28.739Z" fill="#FFCCBF"/>
<path d="M13.4347 36.4722V39.414H12.2627V36.4722C12.2627 36.1487 12.5245 35.8862 12.8487 35.8862C13.1722 35.8862 13.4347 36.1487 13.4347 36.4722Z" fill="#FF83B4"/>
<path d="M26.3771 36.487V39.414H25.2051V36.487C25.2051 36.1635 25.4676 35.901 25.7911 35.901C26.1154 35.901 26.3771 36.1635 26.3771 36.487Z" fill="#FF97C1"/>
<path d="M19.3197 37.0608C19.9696 37.0608 20.4964 36.534 20.4964 35.8842C20.4964 35.2343 19.9696 34.7075 19.3197 34.7075C18.6699 34.7075 18.1431 35.2343 18.1431 35.8842C18.1431 36.534 18.6699 37.0608 19.3197 37.0608Z" fill="#FBF198"/>
<path d="M5.94142 2.69046L5.81641 2.37791C5.48761 1.55591 4.32408 1.55591 3.99528 2.37791L3.87026 2.69046C3.74563 3.00199 3.49888 3.24874 3.18734 3.37337L2.8748 3.49839C2.0528 3.82719 2.0528 4.99072 2.8748 5.31952L3.18734 5.44454C3.49888 5.56917 3.74563 5.81592 3.87026 6.12745L3.99528 6.44C4.32408 7.26199 5.48761 7.26199 5.81641 6.44L5.94142 6.12745C6.06605 5.81592 6.31281 5.56917 6.62434 5.44454L6.93689 5.31952C7.75888 4.99072 7.75888 3.82719 6.93689 3.49839L6.62434 3.37337C6.31281 3.24874 6.06597 3.00191 5.94142 2.69046Z" fill="#F5E578"/>
<path d="M32.11 1.51382L32.235 1.20128C32.5638 0.379279 33.7274 0.379279 34.0562 1.20128L34.1812 1.51382C34.3058 1.82535 34.5526 2.07211 34.8641 2.19674L35.1766 2.32175C35.9986 2.65055 35.9986 3.81409 35.1766 4.14288L34.8641 4.2679C34.5526 4.39253 34.3058 4.63929 34.1812 4.95082L34.0562 5.26336C33.7274 6.08536 32.5638 6.08536 32.235 5.26336L32.11 4.95082C31.9854 4.63929 31.7386 4.39253 31.4271 4.2679L31.1145 4.14288C30.2925 3.81409 30.2925 2.65055 31.1145 2.32175L31.4271 2.19674C31.7386 2.07211 31.9854 1.82527 32.11 1.51382Z" fill="#F5E578"/>
<path d="M5.81633 24.1459C5.48753 23.3239 4.324 23.3239 3.9952 24.1459C3.73352 24.8001 3.70508 24.9342 2.8748 25.2663C2.0528 25.5951 2.0528 26.7586 2.8748 27.0874L3.18734 27.2124C3.73102 27.4299 3.85573 27.859 3.99528 28.2079C4.32408 29.0299 5.48761 29.0299 5.81641 28.2079C6.07848 27.5526 6.10708 27.4193 6.93681 27.0875C7.7588 26.7587 7.7588 25.5951 6.93681 25.2663L6.62426 25.1413C6.08051 24.9238 5.95588 24.4947 5.81633 24.1459Z" fill="#F5E578"/>
<path d="M31.1663 28.7669C33.1631 30.403 35.0136 31.8233 36.3585 32.733C37.689 33.6329 39.5158 31.4118 38.3759 30.28C37.2237 29.136 35.4729 27.5945 33.4822 25.9509C32.3602 24.8309 30.8262 24.8493 30.2562 25.4614C29.658 26.1039 29.7859 27.7615 31.1663 28.7669Z" fill="#E8B192"/>
<path d="M32.2018 24.376C31.9381 23.5754 31.665 22.7384 31.3233 21.9514C30.5111 20.0809 28.0034 19.7368 26.708 21.3117L25.3064 23.0159C24.0111 24.5909 24.8328 26.985 26.8248 27.4209C27.6583 27.6032 28.5269 27.7094 29.359 27.8131C30.4627 28.1428 31.6252 27.7146 32.1817 26.8125C32.627 26.0905 32.6283 25.156 32.2018 24.376Z" fill="#E7E5FF"/>
<path d="M31.4429 28.5221L33.2957 26.2693C33.7063 25.7701 33.6345 25.0326 33.1352 24.622C32.607 24.1875 31.8759 24.2908 31.4782 24.7745L29.6253 27.0273C29.2148 27.5265 29.2866 28.264 29.7858 28.6746C30.3141 29.1091 31.0452 29.0058 31.4429 28.5221Z" fill="#DD926D"/>
<path d="M2.65746 5.86356L2.96993 5.9885C3.13175 6.05328 3.26169 6.18314 3.32639 6.34496L3.45141 6.65751C3.97594 7.96895 5.83621 7.96903 6.36067 6.65751L6.48576 6.34496C6.55046 6.18322 6.6804 6.05328 6.84214 5.98858L7.15469 5.86356C8.46613 5.33903 8.46621 3.47875 7.15469 2.9543L6.84214 2.82921C6.68032 2.76451 6.55046 2.63464 6.48576 2.47282L6.36074 2.16028C5.83614 0.848755 3.97602 0.848755 3.45141 2.16028L3.32647 2.47275C3.26169 2.63457 3.13183 2.76443 2.97001 2.82921L2.65754 2.95422C1.34594 3.47875 1.34594 5.33895 2.65746 5.86356ZM3.09276 4.04243L3.40523 3.91741C3.86342 3.73418 4.23137 3.36632 4.41467 2.90804L4.53961 2.59558C4.67245 2.26357 5.1397 2.26357 5.27254 2.59558L5.39755 2.90804C5.58086 3.36624 5.94873 3.73418 6.40692 3.91741L6.71947 4.04251C7.05139 4.17526 7.05139 4.6426 6.71947 4.77535L6.40692 4.90037C5.94865 5.08368 5.58078 5.45163 5.39763 5.90974L5.27254 6.22229C5.13978 6.55421 4.67245 6.55421 4.53969 6.22229L4.41467 5.90974C4.23137 5.45155 3.8635 5.08368 3.40531 4.90037L3.09284 4.77543C2.76076 4.64252 2.76076 4.17526 3.09276 4.04243Z" fill="black"/>
<path d="M30.8972 4.68685L31.2098 4.81194C31.3715 4.87664 31.5014 5.00658 31.5662 5.1684L31.6912 5.48087C32.2159 6.79239 34.0759 6.79239 34.6005 5.48087L34.7255 5.16832C34.7903 5.0065 34.9201 4.87656 35.082 4.81187L35.3945 4.68685C36.706 4.16224 36.706 2.30212 35.3945 1.77751L35.082 1.65257C34.9202 1.58779 34.7904 1.45793 34.7256 1.29611L34.6006 0.983642C34.0759 -0.327881 32.2159 -0.327881 31.6913 0.983642L31.5663 1.29619C31.5015 1.45801 31.3717 1.58795 31.2098 1.65265L30.8973 1.77767C29.5857 2.3022 29.5857 4.16239 30.8972 4.68685ZM31.3325 2.8658L31.6451 2.74078C32.1032 2.55747 32.4711 2.1896 32.6543 1.73141L32.7794 1.41886C32.9122 1.08686 33.3795 1.08694 33.5123 1.41886L33.6373 1.73141C33.8205 2.1896 34.1885 2.55747 34.6467 2.74078L34.9591 2.86572C35.2911 2.99855 35.2911 3.46581 34.9591 3.59864L34.6466 3.72366C34.1885 3.90689 33.8205 4.27483 33.6372 4.73303L33.5121 5.04557C33.3794 5.37757 32.9121 5.3775 32.7793 5.04557L32.6543 4.73303C32.471 4.27483 32.103 3.90689 31.645 3.72374L31.3324 3.59864C31.0005 3.46588 31.0005 2.99855 31.3325 2.8658Z" fill="black"/>
<path d="M20.8465 19.9342C20.6025 19.7216 20.2323 19.747 20.0196 19.991C19.6495 20.4158 18.9917 20.4158 18.6215 19.991C18.4088 19.747 18.0387 19.7217 17.7946 19.9342C16.8359 20.7699 19.4416 22.4381 20.9032 20.761C21.1159 20.517 21.0904 20.1468 20.8465 19.9342Z" fill="black"/>
<path d="M15.9873 18.381C15.7433 18.1684 15.3732 18.1938 15.1605 18.4378C14.6895 18.9783 13.8523 18.9783 13.3814 18.4378C13.1686 18.1938 12.7986 18.1684 12.5545 18.381C12.3105 18.5937 12.2851 18.9638 12.4977 19.2078C13.4356 20.2839 15.1062 20.2839 16.044 19.2078C16.2567 18.9638 16.2313 18.5937 15.9873 18.381Z" fill="black"/>
<path d="M26.0864 18.381C25.8424 18.1684 25.4722 18.1938 25.2596 18.4378C24.7887 18.9783 23.9514 18.9783 23.4805 18.4378C23.2677 18.1938 22.8977 18.1684 22.6537 18.381C22.4096 18.5937 22.3842 18.9638 22.5969 19.2078C24.214 21.0633 27.0817 19.2485 26.0864 18.381Z" fill="black"/>
<path d="M38.7892 29.8642C38.3886 29.4665 37.909 29.0138 37.3637 28.5187C37.1241 28.3011 36.7535 28.3191 36.5359 28.5586C36.3183 28.7983 36.3363 29.1689 36.5759 29.3864C37.1083 29.8698 37.5751 30.3104 37.9634 30.6959C38.5984 31.3264 37.4285 32.7489 36.6872 32.2475C35.5081 31.4501 33.8714 30.2078 32.0382 28.721L33.6058 26.8148C34.8851 27.8817 34.9028 27.9849 35.2046 27.9849C35.7441 27.9849 36.0009 27.3095 35.5863 26.9541C35.1256 26.559 34.6381 26.1483 34.1356 25.7312C34.1841 25.3124 34.0841 24.9196 33.8792 24.5935C34.5229 23.1015 34.545 21.4741 34.1707 19.8798C35.6481 18.6161 35.5188 16.3059 33.9107 15.2134C33.4747 11.7328 31.8058 8.5258 29.1898 6.156C23.5909 1.08423 15.0493 1.08423 9.45035 6.156C6.83426 8.52573 5.16542 11.7328 4.72942 15.2134C3.12113 16.306 2.99189 18.6162 4.46954 19.8799C4.20661 21.0007 4.15558 22.0655 4.31686 23.0577C3.66309 23.3215 3.49408 23.8217 3.32648 24.2409C3.20419 24.5464 2.95884 24.6018 2.65747 24.7223C1.34595 25.247 1.34595 27.107 2.65747 27.6316C3.22263 27.8577 3.20599 27.812 3.45149 28.4256C3.97602 29.7372 5.83614 29.7371 6.36075 28.4256C6.49007 28.1023 6.50499 28.0357 6.60282 27.9259C6.9499 29.6886 5.90358 30.9755 6.39459 33.0761C6.64814 34.1605 7.26487 35.1738 8.22814 36.0923C8.16923 36.5378 8.14368 36.952 8.14414 37.3779C8.14578 38.8238 9.33534 40.0002 10.792 40.0002H27.8481C29.2838 40.0002 30.4959 38.8491 30.4959 37.3553C30.4959 36.9301 30.467 36.5086 30.4119 36.0923C31.3752 35.1739 31.9919 34.1606 32.2455 33.0762C32.4921 32.0209 32.3503 31.1659 32.1905 30.347C33.6886 31.5384 35.0208 32.5357 36.0305 33.2186C37.9505 34.517 40.434 31.4973 38.7892 29.8642ZM30.9903 28.1499C30.6491 28.5648 29.9968 28.3305 29.9478 27.8273C29.9326 27.672 29.9789 27.5201 30.078 27.3995L31.9309 25.1466C32.0032 25.0586 32.0975 24.9954 32.2035 24.9617C32.2627 24.9616 32.3229 24.9526 32.3823 24.9335C32.8605 24.913 33.1637 25.5072 32.8432 25.897L30.9903 28.1499ZM26.9509 26.8484C25.3867 26.5061 24.7427 24.6248 25.7598 23.3882L27.1614 21.6839C28.1785 20.4472 30.1487 20.716 30.7865 22.1847C31.0426 22.7747 31.2609 23.4003 31.4674 24.0197C31.1241 24.2297 31.1866 24.2064 29.1727 26.6551C29.0461 26.8091 28.95 26.9807 28.8828 27.1624C28.2352 27.0793 27.5792 26.9859 26.9509 26.8484ZM24.1376 29.3606C22.2579 32.5662 16.3825 32.5662 14.5028 29.3606C14.8769 29.1724 15.2672 29.0057 15.6714 28.8612C17.9658 29.5695 20.5188 29.617 22.9697 28.8615C23.3735 29.0059 23.7636 29.1725 24.1376 29.3606ZM8.19181 18.1444C8.16251 17.8402 8.3809 17.5643 8.68907 17.5162C11.1234 17.1373 13.382 15.9002 15.0486 14.0326C15.2272 13.8324 15.5216 13.7857 15.7643 13.9189C20.0794 16.2866 24.9483 17.2545 29.8443 16.7178C30.2003 16.6789 30.5065 16.9588 30.4986 17.3168C30.4784 18.2224 30.3473 19.1169 30.1115 19.9856C28.7706 19.4259 27.2085 19.7816 26.2564 20.9393L24.8547 22.6435C23.8261 23.8942 23.8781 25.6169 24.804 26.8038C17.8418 30.7313 8.97513 26.2702 8.19181 18.1444ZM32.9149 23.8442C32.8198 23.8139 32.7221 23.793 32.6228 23.7794C32.1208 22.2649 31.8169 21.328 31.1369 20.664C31.1643 20.5743 31.1908 20.4844 31.2162 20.394C31.8053 20.6188 32.4706 20.6501 33.0978 20.4641C33.3401 21.6992 33.279 22.8334 32.9149 23.8442ZM31.4825 19.2309C31.5932 18.6092 31.6561 17.9784 31.6702 17.343C31.6797 16.9182 31.5352 16.5078 31.2691 16.1844C32.4194 15.3985 34.0305 16.2137 34.0305 17.6461C34.0306 18.9524 32.6531 19.8104 31.4825 19.2309ZM19.3202 3.52412C25.9649 3.52412 31.5466 8.28319 32.6551 14.7337C31.7428 14.6116 30.839 14.9132 30.1887 15.5646C30.0342 15.5397 29.8755 15.5354 29.7166 15.5527C25.0606 16.063 20.4311 15.1427 16.3281 12.8914C15.604 12.494 14.7182 12.6424 14.1741 13.2522C12.7953 14.7972 10.9641 15.8577 8.97661 16.2723C8.40754 15.1898 7.2233 14.5678 5.98523 14.7336C7.09375 8.28327 12.6754 3.52412 19.3202 3.52412ZM6.37708 15.8788C6.96412 15.8788 7.49491 16.164 7.81933 16.6232C7.28597 16.9696 6.96084 17.5896 7.02515 18.2569C7.05672 18.5842 7.10196 18.9088 7.15908 19.2303C5.99507 19.8076 4.60979 18.9591 4.60979 17.6461C4.60979 16.6717 5.40264 15.8788 6.37708 15.8788ZM5.39772 27.6776L5.27262 27.9902C5.13987 28.3222 4.67253 28.3222 4.53978 27.9902L4.41476 27.6776C4.23145 27.2194 3.86359 26.8516 3.40539 26.6683L3.09285 26.5432C2.76084 26.4105 2.76092 25.9432 3.09285 25.8104L3.40539 25.6854C3.86359 25.5021 4.23145 25.1342 4.41476 24.676L4.5397 24.3635C4.67253 24.0315 5.13979 24.0315 5.27262 24.3635L5.39764 24.6761C5.58087 25.1342 5.94874 25.5021 6.40693 25.6854L6.71948 25.8105C7.05148 25.9432 7.0514 26.4105 6.71948 26.5433L6.40693 26.6683C5.9489 26.8516 5.58095 27.2195 5.39772 27.6776ZM7.65876 27.3073C8.46654 26.5345 8.22853 25.1516 7.15486 24.7222L6.84231 24.5972C6.5368 24.475 6.48155 24.2299 6.36083 23.9282C6.20026 23.5267 5.8899 23.2213 5.5086 23.0633C5.34928 22.2609 5.36045 21.3902 5.54212 20.4639C6.17018 20.6503 6.83575 20.6185 7.42443 20.3939C8.41965 23.9504 10.9301 26.7752 14.0959 28.2533C11.282 29.622 9.29861 32.0037 8.52061 34.6978C6.20495 31.9457 8.45942 30.2139 7.65876 27.3073ZM29.324 37.3749C29.3231 38.1761 28.6601 38.828 27.8482 38.828H26.3778V36.4874C26.3778 36.1637 26.1154 35.9013 25.7918 35.9013C25.4681 35.9013 25.2057 36.1637 25.2057 36.4874V38.828H13.4346V36.4725C13.4346 36.1488 13.1722 35.8864 12.8486 35.8864C12.525 35.8864 12.2626 36.1488 12.2626 36.4725V38.828H10.7921C10.004 38.828 9.31635 38.2058 9.31635 37.3551C9.31635 35.1666 10.1886 33.0987 11.6738 31.4856C12.0705 32.0336 12.5318 32.538 13.0529 32.9901C13.2974 33.2022 13.6675 33.176 13.8796 32.9316C14.0917 32.6871 14.0655 32.317 13.8211 32.1049C13.3258 31.6753 12.8936 31.1917 12.5292 30.6646C12.8316 30.408 13.1513 30.1672 13.4885 29.9455C15.8266 33.9326 22.8138 33.9326 25.152 29.9455C25.4894 30.1674 25.8093 30.4085 26.112 30.6652C23.9416 33.804 19.638 34.981 16.0166 33.4643C15.7183 33.3393 15.3747 33.4801 15.2497 33.7785C15.1247 34.077 15.2654 34.4204 15.5639 34.5454C16.2557 34.8352 16.9744 35.0408 17.7127 35.1624C17.1886 36.3252 18.0448 37.6467 19.3202 37.6467C20.5967 37.6467 21.4529 36.3227 20.9266 35.1598C23.3686 34.753 25.5563 33.4318 26.9663 31.4852C28.4465 33.0929 29.3266 35.1529 29.324 37.3749ZM19.9108 35.8842C19.9108 36.2098 19.6459 36.4748 19.3202 36.4748C18.9945 36.4748 18.7295 36.2098 18.7295 35.8842C18.7295 35.5585 18.9945 35.2935 19.3202 35.2935C19.6459 35.2935 19.9108 35.5585 19.9108 35.8842ZM30.1197 34.6979C29.3452 32.0156 27.3697 29.6282 24.5463 28.2544C24.9525 28.0646 25.349 27.8519 25.7343 27.6172C26.4539 28.0368 27.4152 28.1583 28.8701 28.3424C29.145 29.1448 29.9722 29.6639 30.851 29.5059C31.0436 30.9519 31.8321 32.6627 30.1197 34.6979Z" fill="black"/>
</g>
<defs>
<clipPath id="clip0_6379_20292">
<rect width="40" height="40" fill="white" transform="translate(0.5)"/>
</clipPath>
</defs>
</svg>
