<svg width="41" height="40" viewBox="0 0 41 40" fill="none" xmlns="http://www.w3.org/2000/svg">
<g clip-path="url(#clip0_6379_20325)">
<path d="M11.2075 39.2032V18.6351C11.2075 12.9802 15.7917 8.39587 21.4468 8.39587C27.1017 8.39587 31.686 12.9801 31.686 18.6351V39.2033" fill="#FFDBD6"/>
<path d="M19.1144 4.54303H24.1864C26.7399 4.54303 28.7728 6.68154 28.6437 9.23182L28.1214 19.5431C28.1214 23.1169 25.2242 26.0141 21.6504 26.0141C18.0766 26.0141 15.1794 23.1169 15.1794 19.5431L14.6572 9.23182C14.528 6.68154 16.5609 4.54303 19.1144 4.54303Z" fill="#FF5C7D"/>
<path d="M34.7767 7.33717L36.0282 5.04877L37.2798 7.33717L39.5683 8.58873L37.2798 9.84038L36.0282 12.1288L34.7767 9.84038L32.4883 8.58873L34.7767 7.33717Z" fill="#FFEE80"/>
<path d="M6.20987 2.87351L7.3512 0.786682L8.49253 2.87351L10.5794 4.01483L8.49253 5.15616L7.3512 7.24299L6.20987 5.15616L4.12305 4.01483L6.20987 2.87351Z" fill="#FFEE80"/>
<path d="M3.64969 22.0385L4.86249 19.821L6.07529 22.0385L8.29286 23.2513L6.07529 24.4642L4.86249 26.6818L3.64969 24.4642L1.43213 23.2513L3.64969 22.0385Z" fill="#FFEE80"/>
<path d="M31.5637 32.4171C31.1679 32.474 30.8843 32.8313 30.8843 33.2311V39.2312C30.8843 40.2555 32.4796 40.257 32.4796 39.2312V33.2062C32.4796 32.7269 32.0567 32.3462 31.5637 32.4171Z" fill="black"/>
<path d="M29.4405 9.2722C29.5142 7.81834 29.0024 6.43659 27.9993 5.38149C26.9964 4.32639 25.6423 3.74536 24.1866 3.74536H19.1146C17.6589 3.74536 16.3048 4.32639 15.3019 5.38149C13.8844 6.87245 13.8297 8.66125 13.927 10.5811C11.686 12.6664 10.4058 15.5966 10.4058 18.6632V39.2313C10.4058 40.2556 12.0011 40.2571 12.0011 39.2313V18.6631C12.0011 16.5232 12.7305 14.4612 14.0396 12.8054L14.382 19.5639C14.3931 23.5625 17.6495 26.8118 21.6507 26.8118C25.6518 26.8118 28.9082 23.5625 28.9193 19.5639L29.2351 13.328C30.3072 14.8864 30.8843 16.7292 30.8843 18.6631V26.6818C30.8843 27.706 32.4796 27.7075 32.4796 26.6818V18.6631C32.4796 15.7643 31.3711 13.0404 29.3546 10.9688L29.4405 9.2722ZM27.8471 9.19148L27.3249 19.5028C27.3243 19.5162 27.3239 19.5296 27.3239 19.5431C27.3239 22.6714 24.7789 25.2164 21.6505 25.2164C18.5222 25.2164 15.9772 22.6714 15.9772 19.5431C15.9772 19.5296 15.9769 19.5162 15.9762 19.5028L15.4539 9.19148C15.4009 8.14324 15.7846 7.14876 16.5323 6.40468C17.231 5.70942 18.1907 5.34073 19.1763 5.34073H24.1246C25.1102 5.34073 26.0699 5.70942 26.7686 6.40468C27.5165 7.14876 27.9002 8.14324 27.8471 9.19148Z" fill="black"/>
<path d="M39.9507 7.88894L37.8673 6.74945L36.7278 4.66597C36.4344 4.12953 35.6239 4.12522 35.3281 4.66597L34.1886 6.74945L32.1051 7.88894C31.5687 8.18233 31.5644 8.99286 32.1051 9.28864L34.1886 10.4281L35.3281 12.5115C35.6215 13.048 36.432 13.0523 36.7278 12.5115L37.8673 10.4281L39.9507 9.28864C40.487 8.99525 40.4914 8.18464 39.9507 7.88894ZM37.9056 8.58875L36.6918 9.25258L36.028 10.4663L35.3641 9.25258L34.1504 8.58867L35.3641 7.92484L36.028 6.71108L36.6919 7.92484L37.9056 8.58875Z" fill="black"/>
<path d="M3.74086 4.71464L5.62268 5.74389L6.65186 7.62571C6.94524 8.16216 7.75577 8.16646 8.05155 7.62571L9.08081 5.74389L10.9626 4.71464C11.4991 4.42125 11.5034 3.61072 10.9626 3.31494L9.08081 2.28577L8.05155 0.403949C7.75816 -0.132494 6.94764 -0.136801 6.65186 0.403949L5.62268 2.28577L3.74086 3.31502C3.20442 3.60833 3.20011 4.41894 3.74086 4.71464ZM5.78605 4.01483L6.79823 3.46124L7.35182 2.44905L7.90542 3.46124L8.9176 4.01475L7.90542 4.56834L7.35182 5.58053L6.79831 4.56834L5.78605 4.01483Z" fill="black"/>
<path d="M8.67572 22.5516L6.66317 21.4507L5.56244 19.4382C5.26905 18.9017 4.45852 18.8974 4.16274 19.4382L3.06202 21.4507L1.04946 22.5516C0.513014 22.8449 0.508706 23.6555 1.04946 23.9513L3.06202 25.052L4.16274 27.0645C4.45605 27.6009 5.26674 27.6053 5.56244 27.0645L6.66317 25.052L8.67572 23.9513C9.21209 23.6579 9.21648 22.8473 8.67572 22.5516ZM5.48762 23.8765L4.86247 25.0194L4.23749 23.8766L3.09456 23.2515L4.23757 22.6263L4.86255 21.4835L5.48762 22.6264L6.63054 23.2515L5.48762 23.8765Z" fill="black"/>
<path d="M30.9452 30.2299C31.2136 30.8737 32.1578 30.8767 32.4222 30.2203C32.5054 30.0137 32.4977 29.7768 32.3996 29.5768C32.188 29.1455 31.6709 29.0162 31.2889 29.2311C30.9429 29.4258 30.7927 29.8635 30.9452 30.2299Z" fill="black"/>
<path d="M23.8337 32.6088C24.858 32.6088 24.8595 31.0134 23.8337 31.0134H19.3898C18.3656 31.0134 18.3641 32.6088 19.3898 32.6088H23.8337Z" fill="black"/>
<path d="M25.0812 34.2696H18.2204C17.1962 34.2696 17.1947 35.865 18.2204 35.865H25.0812C26.1054 35.865 26.1069 34.2696 25.0812 34.2696Z" fill="black"/>
</g>
<defs>
<clipPath id="clip0_6379_20325">
<rect width="40" height="40" fill="white" transform="translate(0.5)"/>
</clipPath>
</defs>
</svg>
