<svg width="41" height="40" viewBox="0 0 41 40" fill="none" xmlns="http://www.w3.org/2000/svg">
<g clip-path="url(#clip0_6379_20250)">
<path fill-rule="evenodd" clip-rule="evenodd" d="M30.6738 38.608L39.1067 30.1854C39.8218 29.4712 39.8218 28.3014 39.1067 27.5872L37.7163 26.2007C37.0012 25.4864 35.8322 25.4864 35.1171 26.2007L35.0796 26.236L26.7197 34.5858L26.6843 34.6234C25.9692 35.3376 25.9692 36.5052 26.6843 37.2194L28.0747 38.608C28.2164 38.7496 28.3779 38.8646 28.5506 38.9508H30.1978C30.3705 38.8646 30.5299 38.7496 30.6738 38.608Z" fill="#DAD0D3"/>
<path fill-rule="evenodd" clip-rule="evenodd" d="M26.7194 34.5858L35.0792 26.2361L31.4218 22.583C25.9446 19.4807 21.5101 26.5921 22.7299 30.6011L26.7194 34.5858Z" fill="#FFDCD5"/>
<path fill-rule="evenodd" clip-rule="evenodd" d="M10.6625 38.9508H12.3097C12.4824 38.8647 12.6418 38.7497 12.7857 38.6081L14.1761 37.2194C14.8912 36.5052 14.8912 35.3376 14.1761 34.6234L14.1384 34.5858L5.77857 26.2361L5.74311 26.2008C5.02803 25.4865 3.85686 25.4865 3.14178 26.2008L1.75365 27.5873C1.0385 28.3015 1.0385 29.4713 1.75365 30.1855L10.1843 38.6082C10.3282 38.7497 10.4897 38.8647 10.6625 38.9508Z" fill="#9D9AE8"/>
<path fill-rule="evenodd" clip-rule="evenodd" d="M24.0854 29.909L29.2482 24.7546L31.4224 22.5831L32.1065 21.8999C32.8614 21.1436 32.8614 19.9097 32.1065 19.1557C31.3516 18.3994 30.1139 18.3994 29.359 19.1557L30.0475 18.4657C30.8046 17.7118 30.8046 16.4757 30.0475 15.7216C29.2925 14.9654 28.055 14.9654 27.3 15.7216L27.9886 15.0317C28.7457 14.2777 28.7457 13.0416 27.9886 12.2875C27.2336 11.5335 25.9961 11.5335 25.2411 12.2875L25.9318 11.5999C26.6868 10.8436 26.6868 9.60973 25.9318 8.85348C25.4736 8.39793 24.8404 8.21668 24.2448 8.31395C23.8551 8.3759 23.481 8.55497 23.1821 8.85348L20.4302 11.6043L20.5187 11.6927L20.5342 11.7082C21.2892 12.4622 21.2892 13.6983 20.5342 14.4524C19.7793 15.2086 18.5417 15.2086 17.7867 14.4524C18.5417 15.2086 18.5417 16.4425 17.7867 17.1987C17.0296 17.9528 15.7942 17.9528 15.037 17.1987C15.7942 17.9528 15.7942 19.1889 15.037 19.9429C14.2821 20.6969 13.0467 20.6969 12.2895 19.9429C13.0467 20.6969 13.0467 21.9331 12.2895 22.6871C11.5346 23.4433 10.297 23.4433 9.54199 22.6871L9.43793 22.5831L5.77832 26.2361L14.1381 34.5858L17.6317 31.0965C18.6213 30.0727 20.9393 30.9682 22.7304 30.6011C23.2397 30.4972 23.7046 30.2893 24.0854 29.909Z" fill="#FFD0C7"/>
<path fill-rule="evenodd" clip-rule="evenodd" d="M17.787 14.4523C18.542 15.2086 19.7795 15.2086 20.5345 14.4523C21.2895 13.6983 21.2895 12.4622 20.5345 11.7082L20.519 11.6927C19.3523 11.6087 17.1206 9.58539 16.9878 8.1657C16.2305 7.40945 14.9952 7.40945 14.2381 8.1657C13.4831 8.91976 13.4831 10.1559 14.2381 10.9098L14.9288 11.5998L17.787 14.4523Z" fill="#FFDCD5"/>
<path fill-rule="evenodd" clip-rule="evenodd" d="M15.0371 17.1987C15.7943 17.9527 17.0297 17.9527 17.7868 17.1987C18.5418 16.4424 18.5418 15.2086 17.7868 14.4523L14.9287 11.5998C14.1715 10.8436 12.9361 10.8436 12.1812 11.5998C11.424 12.3538 11.424 13.5877 12.1812 14.344L12.8697 15.0317L15.0371 17.1987Z" fill="#FFDCD5"/>
<path fill-rule="evenodd" clip-rule="evenodd" d="M12.2899 19.9429C13.0471 20.6968 14.2825 20.6968 15.0374 19.9429C15.7946 19.1888 15.7946 17.9527 15.0374 17.1986L12.87 15.0316C12.1151 14.2776 10.8775 14.2776 10.1225 15.0316C9.36541 15.7879 9.36541 17.0218 10.1225 17.778L11.5018 19.1556L12.2899 19.9429Z" fill="#FFDCD5"/>
<path fill-rule="evenodd" clip-rule="evenodd" d="M9.54211 22.687C10.2971 23.4433 11.5347 23.4433 12.2896 22.687C13.0468 21.9331 13.0468 20.6969 12.2896 19.9429L11.5015 19.1556C10.7443 18.3994 9.50891 18.3994 8.7518 19.1556C7.9968 19.9097 7.9968 21.1435 8.7518 21.8998L9.43812 22.583L9.54211 22.687Z" fill="#FFDCD5"/>
<path fill-rule="evenodd" clip-rule="evenodd" d="M20.4303 11.6042L23.1822 8.85343C23.4811 8.55491 23.8553 8.37585 24.2449 8.3139L18.9292 7.3078C17.8799 7.10874 16.8858 7.10218 16.9877 8.16577C17.1205 9.58538 19.3521 11.6087 20.5189 11.6927L20.4303 11.6042Z" fill="#FFDCD5"/>
<path d="M20.4299 5.08281C20.8644 5.08281 21.2167 4.73055 21.2167 4.29602V0.786797C21.2167 0.352266 20.8644 0 20.4299 0C19.9953 0 19.6431 0.352266 19.6431 0.786797V4.29602C19.6431 4.73055 19.9954 5.08281 20.4299 5.08281Z" fill="black"/>
<path d="M39.6625 27.0301L38.2726 25.6441C37.7781 25.1503 37.1191 24.8782 36.4169 24.8782C35.9679 24.8782 35.5369 24.99 35.155 25.1993L32.5358 22.5832L32.6633 22.4557C33.7259 21.3911 33.7255 19.661 32.6633 18.5999C32.2837 18.2196 31.81 17.966 31.2937 17.8593C31.3647 17.6139 31.4022 17.3568 31.4022 17.0938C31.4022 16.3629 31.1183 15.6776 30.6044 15.1658C30.2247 14.7855 29.7511 14.5319 29.2347 14.4252C29.3058 14.1798 29.3433 13.9229 29.3433 13.6597C29.3433 12.9288 29.0594 12.2436 28.5446 11.731C28.1558 11.3427 27.6779 11.0969 27.1762 10.9923C27.4446 10.0668 27.2152 9.02543 26.4871 8.29606C25.8811 7.69254 25.0586 7.43317 24.266 7.51723L19.0758 6.53481C18.2842 6.38465 17.2957 6.28535 16.6718 6.85449C16.6324 6.89043 16.5922 6.93176 16.5526 6.97778C15.5851 6.62512 14.4568 6.83512 13.6819 7.60903C13.1679 8.12238 12.8848 8.80738 12.8848 9.53785C12.8848 9.80098 12.9221 10.0579 12.9931 10.3034C12.4773 10.41 12.0043 10.6633 11.6259 11.0424C11.1109 11.5553 10.8269 12.2395 10.8264 12.9691C10.8262 13.2329 10.8636 13.4907 10.935 13.7368C10.419 13.8432 9.94561 14.096 9.56607 14.475C9.05107 14.9895 8.76748 15.6749 8.76748 16.405C8.76748 16.9643 8.93443 17.4969 9.24381 17.9469C8.85318 18.0793 8.49537 18.2997 8.19576 18.599C7.13248 19.661 7.13209 21.3911 8.19647 22.4574L8.32357 22.584L5.70404 25.1987C4.73053 24.7404 3.53107 24.9121 2.72771 25.7144L1.33693 27.1013C0.842246 27.5954 0.569902 28.2544 0.569824 28.957C0.569824 29.6597 0.842246 30.3188 1.33693 30.8129L3.07264 32.5465C3.38006 32.8536 3.87826 32.8533 4.18529 32.5459C4.4924 32.2385 4.49209 31.7403 4.18467 31.4332L2.44896 29.6997C2.25193 29.5029 2.14342 29.2391 2.14342 28.9571C2.14342 28.6751 2.25193 28.4115 2.4485 28.2151L3.83936 26.8282C4.18686 26.481 4.71873 26.4293 5.12264 26.6708C5.15107 26.7136 5.18396 26.7543 5.22162 26.7919C5.28896 26.8595 5.36592 26.9113 5.44771 26.9492L13.4237 34.9135C13.4616 34.9961 13.5137 35.0738 13.5815 35.1418C13.6476 35.208 13.723 35.2591 13.803 35.2968C13.9717 35.4875 14.0649 35.7311 14.0649 35.9909C14.0649 36.2729 13.9564 36.5366 13.7594 36.7334L12.3699 38.1212C11.9594 38.53 11.2915 38.5299 10.8822 38.1225L9.14647 36.3866C8.8392 36.0793 8.34107 36.0793 8.03381 36.3865C7.72654 36.6938 7.72647 37.1919 8.03373 37.4992L9.77068 39.2363C10.282 39.7454 10.9534 39.9999 11.6251 39.9999C12.2969 39.9999 12.9691 39.745 13.481 39.2354L14.8713 37.8468C15.366 37.3526 15.6384 36.6936 15.6384 35.9908C15.6384 35.4893 15.499 35.0104 15.2396 34.5975L18.1877 31.6529C18.1908 31.6497 18.194 31.6465 18.1972 31.6434C18.5347 31.2944 19.4748 31.3597 20.384 31.4229C21.0299 31.4677 21.7501 31.5177 22.4537 31.4366L25.6821 34.6612C25.4729 35.0425 25.3613 35.473 25.3613 35.9213C25.3613 36.6232 25.6337 37.2819 26.1284 37.7761L27.5188 39.1647C28.0132 39.6586 28.6722 39.9306 29.3744 39.9306C30.0765 39.9306 30.7354 39.6586 31.2299 39.1647L39.6628 30.7421C40.1575 30.248 40.4299 29.5889 40.4299 28.8863C40.4301 28.1837 40.1576 27.5247 39.6625 27.0301ZM18.7828 8.0809L22.1958 8.72692L20.153 10.769C19.8369 10.6172 19.4038 10.3339 18.9287 9.87934C18.2783 9.25715 17.813 8.53879 17.7707 8.09074C17.7706 8.09051 17.7706 8.09028 17.7706 8.09004C17.7706 8.08996 17.7706 8.08989 17.7706 8.08981C17.7676 8.05762 17.7668 8.03192 17.7672 8.01231C17.8699 7.98731 18.1433 7.95957 18.7828 8.0809ZM14.7939 8.72239C15.1925 8.32418 15.8117 8.27824 16.2621 8.58324C16.5173 9.6534 17.4302 10.6233 17.8409 11.0163C18.1453 11.3075 19.1219 12.1807 20.1077 12.4207C20.2411 12.6119 20.3137 12.8398 20.3137 13.0803C20.3137 13.39 20.1945 13.6797 19.9774 13.8965C19.7609 14.1134 19.4708 14.2328 19.1605 14.2328C18.8501 14.2328 18.5601 14.1134 18.3426 13.8955L18.3425 13.8954L18.3421 13.895L14.7938 10.3532C14.5775 10.1372 14.4583 9.84754 14.4583 9.53785C14.4584 9.22809 14.5776 8.93848 14.7939 8.72239ZM12.7379 12.1557C12.9544 11.9389 13.2442 11.8195 13.554 11.8195C13.8643 11.8195 14.155 11.9392 14.3729 12.1568L17.2301 15.0083C17.68 15.4589 17.68 16.1922 17.2316 16.6413C17.014 16.8581 16.7229 16.9775 16.412 16.9775C16.1012 16.9775 15.8101 16.8581 15.5933 16.6422L15.5933 16.6422L13.4257 14.475C13.4223 14.4717 13.4187 14.4686 13.4152 14.4651L12.7371 13.7873C12.5195 13.57 12.3997 13.2798 12.4 12.9703C12.4003 12.6618 12.5197 12.3731 12.7379 12.1557ZM10.6781 15.5884C10.8947 15.3721 11.1851 15.2529 11.4959 15.2529C11.8041 15.2529 12.092 15.3704 12.3077 15.5829L14.4819 17.7561C14.6987 17.9721 14.8182 18.2614 14.8182 18.5707C14.8182 18.88 14.6987 19.1693 14.4811 19.3861C14.2645 19.6024 13.9744 19.7215 13.6642 19.7215C13.3535 19.7215 13.0625 19.6021 12.8456 19.3861L12.0574 18.5989C12.0572 18.5986 12.057 18.5985 12.0569 18.5983L10.6782 17.2213C10.4608 17.0042 10.3412 16.7142 10.3412 16.4048C10.3412 16.0955 10.4608 15.8054 10.6781 15.5884ZM9.30779 19.7124C9.52537 19.495 9.81615 19.3754 10.1265 19.3754C10.4368 19.3754 10.7275 19.495 10.9451 19.7122L11.7344 20.5005C11.9512 20.7164 12.0706 21.0057 12.0706 21.3151C12.0706 21.6245 11.9512 21.9137 11.7327 22.1314C11.5162 22.3482 11.2262 22.4676 10.9158 22.4676C10.6054 22.4676 10.3154 22.3482 10.0973 22.1298L9.9985 22.0314C9.99717 22.03 9.99615 22.0286 9.9949 22.0274C9.99342 22.026 9.99186 22.0247 9.99037 22.0233L9.30857 21.3442C8.85865 20.8932 8.85826 20.1613 9.30779 19.7124ZM25.3417 28.6543C25.0346 28.3468 24.5364 28.3466 24.229 28.6536L23.529 29.3527C22.8639 30.0179 21.6587 29.9341 20.493 29.8532C19.2273 29.7653 17.9185 29.6745 17.0715 30.544L14.1735 33.4386L6.92639 26.2021L9.49107 23.642C9.91498 23.9018 10.4041 24.0411 10.9159 24.0411C11.647 24.0411 12.3327 23.7577 12.8448 23.2447C13.3604 22.7312 13.6444 22.046 13.6444 21.315C13.6444 21.3082 13.6439 21.3015 13.6439 21.2947C13.6507 21.2948 13.6575 21.2952 13.6643 21.2952C14.3944 21.2952 15.0795 21.0126 15.5923 20.5004C16.1079 19.987 16.3919 19.3017 16.3919 18.5708C16.3919 18.564 16.3914 18.5573 16.3914 18.5505C16.3983 18.5505 16.4051 18.551 16.4121 18.551C17.142 18.551 17.8275 18.2687 18.3437 17.7546C18.8797 17.2178 19.1447 16.5111 19.1397 15.8058C19.1467 15.8058 19.1537 15.8063 19.1608 15.8063C19.8919 15.8063 20.5775 15.5229 21.0904 15.009C21.6044 14.4957 21.8875 13.8107 21.8875 13.0802C21.8875 12.5694 21.7486 12.0811 21.4896 11.6579L23.7375 9.41098C23.905 9.24418 24.1115 9.13949 24.328 9.09629C24.3515 9.09379 24.3746 9.09004 24.3975 9.08551C24.7448 9.03762 25.1096 9.14473 25.3752 9.40934C25.8251 9.86004 25.8251 10.5933 25.3769 11.0424L24.6922 11.7242C24.69 11.7264 24.6876 11.7285 24.6853 11.7308L23.8969 12.518C23.5894 12.825 23.589 13.3232 23.8962 13.6307C24.2033 13.9382 24.7015 13.9384 25.0088 13.6314L25.6961 12.945C25.6963 12.9448 25.6965 12.9447 25.6966 12.9445L25.8005 12.841C26.2517 12.3939 26.9826 12.3949 27.4333 12.845C27.6502 13.0609 27.7697 13.3502 27.7697 13.6596C27.7697 13.9689 27.6502 14.2582 27.4316 14.4758L26.7431 15.1657C26.743 15.1658 26.7429 15.1659 26.7429 15.1661L25.9544 15.9513C25.6465 16.2579 25.6455 16.7561 25.9522 17.0639C26.2588 17.3718 26.7569 17.3728 27.0648 17.0662L27.8569 16.2774C28.0733 16.0605 28.3634 15.9411 28.6737 15.9411C28.9841 15.9411 29.2743 16.0605 29.4923 16.2789C29.7092 16.495 29.8286 16.7843 29.8286 17.0936C29.8286 17.4029 29.7092 17.6922 29.4911 17.9093L28.1184 19.2825C27.8112 19.5899 27.8113 20.088 28.1186 20.3952C28.2722 20.5488 28.4735 20.6255 28.6748 20.6255C28.8762 20.6255 29.0776 20.5486 29.2312 20.395L29.904 19.722C29.9078 19.7183 29.9119 19.7151 29.9158 19.7113C30.1322 19.4944 30.4223 19.375 30.7326 19.375C31.0429 19.375 31.3331 19.4944 31.5504 19.7121C31.9998 20.1611 31.9994 20.8931 31.5504 21.3429L30.8665 22.0261C30.8662 22.0264 30.8659 22.0266 30.8657 22.0268C30.8654 22.0271 30.8652 22.0274 30.865 22.0276L29.7794 23.1119C29.4719 23.419 29.4716 23.9172 29.7787 24.2247C29.9323 24.3785 30.1339 24.4554 30.3354 24.4554C30.5366 24.4554 30.7378 24.3787 30.8914 24.2254L31.4224 23.695L33.9675 26.2371L26.721 33.4747L24.1246 30.8815C24.3056 30.765 24.4788 30.6282 24.6414 30.4656L25.341 29.7668C25.6485 29.46 25.6488 28.9618 25.3417 28.6543ZM38.5509 29.6287L30.118 38.0514C29.9208 38.2484 29.6567 38.3569 29.3745 38.3569C29.0923 38.3569 28.8283 38.2484 28.6309 38.0513L27.2405 36.6626C27.0435 36.4659 26.935 36.2026 26.935 35.9213C26.935 35.64 27.0435 35.3768 27.2405 35.18L35.6734 26.7573C35.8708 26.5602 36.1348 26.4517 36.417 26.4517C36.6992 26.4517 36.9633 26.5602 37.161 26.7578L38.5509 28.1438C38.7479 28.3406 38.8565 28.6042 38.8565 28.8862C38.8565 29.1683 38.7479 29.432 38.5509 29.6287Z" fill="black"/>
<path d="M9.98231 4.41953C10.1359 4.57282 10.337 4.64938 10.5381 4.64938C10.7396 4.64938 10.9413 4.57235 11.095 4.41836C11.4019 4.11078 11.4014 3.61266 11.0939 3.30571L8.22684 0.444378C7.91934 0.137347 7.42113 0.137815 7.11418 0.445472C6.80723 0.75305 6.8077 1.25117 7.11527 1.55813L9.98231 4.41953Z" fill="black"/>
<path d="M30.3224 4.64947C30.5236 4.64947 30.7248 4.57275 30.8784 4.41939L33.7433 1.55799C34.0507 1.25095 34.051 0.752752 33.7439 0.44533C33.4369 0.13783 32.9388 0.137595 32.6312 0.444705L29.7664 3.30611C29.459 3.61314 29.4587 4.11135 29.7658 4.41877C29.9195 4.57252 30.1209 4.64947 30.3224 4.64947Z" fill="black"/>
<path d="M5.40735 33.8441C5.10274 34.1539 5.10696 34.6521 5.41688 34.9568L5.41915 34.9589C5.57204 35.1093 5.77056 35.1841 5.96899 35.1841C6.17267 35.1841 6.37634 35.1053 6.53063 34.9483C6.83524 34.6385 6.82985 34.1392 6.52001 33.8346C6.21017 33.53 5.71204 33.5343 5.40735 33.8441Z" fill="black"/>
<path d="M27.2663 27.5209C27.386 27.5209 27.5074 27.4936 27.6214 27.4362C28.0094 27.2405 28.1652 26.7674 27.9696 26.3794C27.7739 25.9914 27.3007 25.8355 26.9128 26.0312L26.9084 26.0334C26.5205 26.2291 26.3668 26.7011 26.5624 27.0891C26.7006 27.3631 26.9784 27.5209 27.2663 27.5209Z" fill="black"/>
</g>
<defs>
<clipPath id="clip0_6379_20250">
<rect width="40" height="40" fill="white" transform="translate(0.5)"/>
</clipPath>
</defs>
</svg>
