<svg width="41" height="40" viewBox="0 0 41 40" fill="none" xmlns="http://www.w3.org/2000/svg">
<g clip-path="url(#clip0_6379_20205)">
<mask id="mask0_6379_20205" style="mask-type:luminance" maskUnits="userSpaceOnUse" x="0" y="0" width="41" height="40">
<path d="M0.5 0H40.5V40H0.5V0Z" fill="white"/>
</mask>
<g mask="url(#mask0_6379_20205)">
<path d="M27.1279 3.13029C17.811 -0.530218 7.29079 4.05517 3.63029 13.372C-0.0302165 22.6889 4.55517 33.2092 13.872 36.8697C23.1889 40.5302 33.7092 35.9448 37.3697 26.6279C41.0302 17.311 36.4448 6.79079 27.1279 3.13029Z" fill="#DAAAAA"/>
<path fill-rule="evenodd" clip-rule="evenodd" d="M20.5 20L3.63029 13.3721C-0.0302179 22.6889 4.55516 33.2092 13.872 36.8697L20.5 20Z" fill="#6B2B2B"/>
<path d="M20.5 20L3.63029 13.3721C-0.0302165 22.6889 4.55517 33.2091 13.872 36.8697L20.5 20Z" fill="#44B3E6"/>
<path d="M3.88477 27.242C5.73816 31.4943 9.21375 35.0394 13.8722 36.8697L20.5001 20L3.88477 27.242Z" fill="#57A0D7"/>
<path d="M20.5001 20L27.128 3.13035C17.8111 -0.530157 7.29087 4.05523 3.63037 13.3721L20.5001 20Z" fill="#FEED58"/>
<path d="M13.2586 3.38464C9.0063 5.23803 5.46112 8.71362 3.63086 13.3721L20.5006 20L13.2586 3.38464Z" fill="#66BB6A"/>
<path d="M20.5005 20L37.3702 26.6279C33.7097 35.9448 23.1894 40.5302 13.8726 36.8697L20.5005 20Z" fill="#EF5451"/>
<path d="M27.742 36.6153C23.4898 38.4687 18.5305 38.6999 13.8721 36.8697L20.5 20L27.742 36.6153Z" fill="#9B51A0"/>
<path d="M20.5 20L27.1279 3.13037C36.4448 6.79086 41.0302 17.3111 37.3697 26.628L20.5 20Z" fill="#FAA629"/>
<path d="M37.1153 12.7579C38.9688 17.0102 39.1999 21.9695 37.3697 26.6279L20.5 20L37.1153 12.7579Z" fill="#EC417A"/>
<path fill-rule="evenodd" clip-rule="evenodd" d="M37.6403 25.893C34.3857 35.3593 24.0734 40.3949 14.607 37.1403C5.14076 33.8856 0.105189 23.5733 3.3598 14.107C6.61441 4.6407 16.9267 -0.394872 26.393 2.85974C35.8594 6.11435 40.8949 16.4267 37.6403 25.893ZM4.70033 14.0722C6.17799 10.1275 8.98917 7.04856 12.4416 5.1733L19.2255 19.0661L4.70033 14.0722ZM20.3488 18.5176L13.5613 4.61751C17.1649 2.99118 21.3436 2.62029 25.3919 3.84936L20.3488 18.5176ZM15.6082 36.1506L20.5497 21.7779L27.2367 35.4721C23.6795 37.0221 19.581 37.3568 15.6082 36.1506ZM21.673 21.2294L28.3635 34.9309C31.8188 33.112 34.6534 30.0976 36.1874 26.2196L21.673 21.2294ZM5.67337 28.0584C7.52542 31.4681 10.5515 34.2523 14.4261 35.7442L19.3676 21.3714L5.67337 28.0584ZM5.11758 26.9388C3.51129 23.3796 3.12969 19.2594 4.30468 15.258L18.8192 20.2482L5.11758 26.9388ZM21.5309 18.9241L26.574 4.25577C30.5222 5.77599 33.5894 8.63807 35.431 12.1366L21.5309 18.9241ZM22.0794 20.0473L35.9722 13.2634C37.5415 16.8652 37.865 21.0219 36.6046 25.0412L22.0794 20.0473Z" fill="black"/>
</g>
</g>
<defs>
<clipPath id="clip0_6379_20205">
<rect width="40" height="40" fill="white" transform="translate(0.5)"/>
</clipPath>
</defs>
</svg>
