<svg width="40" height="40" viewBox="0 0 40 40" fill="none" xmlns="http://www.w3.org/2000/svg">
<g clip-path="url(#clip0_6361_47883)">
<path d="M31.4224 7.29847C32.7062 6.7105 33.7591 6.52034 34.5851 6.6812C35.4614 7.12253 36.084 8.47909 36.084 10.8861C36.084 13.5573 33.6088 15.4988 31.4224 12.415V7.29847Z" fill="#DA8BC1"/>
<path d="M34.5854 6.68164C35.1636 7.62836 35.3032 9.22867 35.3032 10.886C35.3032 12.6109 34.347 14.0326 31.4229 12.4149V14.4737C35.0824 16.1496 36.8657 14.5937 36.8657 10.886C36.8657 8.47914 36.1139 6.97953 34.5854 6.68164Z" fill="#D273B3"/>
<path d="M16.7732 13.0557L8.90812 13.8369C8.82085 14.0666 8.6957 14.2821 8.53445 14.4725L6.50031 16.8746C6.00218 17.4628 6.25406 18.3679 6.98437 18.6143L8.37335 19.083C8.37335 19.083 8.2657 19.5789 8.1496 20.1596C8.13828 20.2161 8.1332 20.2721 8.1307 20.3275L9.20234 21.251L9.49257 24.052C9.51531 24.2717 9.56999 24.4809 9.65101 24.6758L16.7733 24.6525L16.7732 13.0557Z" fill="#F4E2C1"/>
<path d="M9.04086 10.7119L9.05164 13.0557C9.05234 13.3248 9.00234 13.5892 8.9082 13.8369H16.7733L15.6072 23.4537C15.6072 23.4537 12.622 24.6346 9.65101 24.6758C9.98734 25.4844 10.7839 26.0428 11.7003 26.0428C13.578 26.0428 15.6072 25.0967 15.6072 25.0967H16.6617L16.6714 32.9034L25.813 30.4636C25.813 30.4636 25.813 24.913 25.813 24.2518C25.813 22.4212 26.5112 21.2933 27.4459 20.3161V10.7119H9.04086Z" fill="#F3D69E"/>
<path d="M27.4237 29.7341L26.6425 27.8887L12.6619 31.6348C12.0438 31.8004 11.6832 32.4254 11.8245 33.031L27.4237 29.7341Z" fill="#6BBDD5"/>
<path d="M26.6428 27.8885V28.1611C26.6428 28.6915 26.2865 29.1558 25.7742 29.2931L11.8247 33.0308C11.8361 33.0798 11.8498 33.1287 11.8679 33.1772L12.7746 35.5998L28.1179 31.5178V29.0203C28.1179 28.2499 27.3871 27.6891 26.6428 27.8885Z" fill="#5595A2"/>
<path d="M12.4418 19.8756C12.2851 19.5924 11.9287 19.4899 11.6454 19.6466C11.0452 19.9788 9.67892 20.3667 8.64322 20.3667C8.55025 20.3667 8.35783 20.3505 8.13095 20.3275C8.10392 20.9373 8.5915 21.4653 9.22478 21.4653C10.3156 21.4653 11.4631 21.0868 12.2128 20.672C12.496 20.5153 12.5985 20.1588 12.4418 19.8756Z" fill="#EAACDE"/>
<path d="M27.5079 2.43749C25.7027 1.27172 23.387 0.585938 20.5763 0.585938C9.74481 0.585938 6.42334 4.34389 6.42334 8.81114C6.42334 9.52223 6.526 10.1717 6.65678 10.7118L15.6071 12.2743V25.0966C15.6071 25.7823 15.5047 26.3949 15.3628 26.9157C18.4894 25.3523 19.9513 22.4162 19.9513 16.8318V11.6569H31.4191C31.4191 7.29833 29.3054 4.24545 27.5079 2.43749Z" fill="#EAACDE"/>
<path d="M32.1017 10.0431C31.7107 6.90259 30.1617 4.15126 27.5083 2.43774C28.7161 4.25931 30.317 7.25376 30.5955 10.6417L31.4196 11.6572L32.1017 10.0431Z" fill="#DA8BC1"/>
<path d="M15.0211 7.24731C14.6975 7.24731 14.4352 7.50966 14.4352 7.83325V10.7118H6.65674C6.88721 11.6636 7.20541 12.2743 7.20541 12.2743H15.6071C15.6071 9.72919 15.6071 7.83325 15.6071 7.83325C15.6071 7.50966 15.3447 7.24731 15.0211 7.24731Z" fill="#DA8BC1"/>
<path d="M27.0853 19.2064C29.1569 17.3738 31.4196 15.4448 31.4196 11.6571L30.5955 10.6416C27.3269 11.626 23.321 10.955 20.5767 8.52246H19.4048L20.5767 16.832L24.4051 18.0354L27.0853 19.2064Z" fill="#DA8BC1"/>
<path d="M32.1012 10.043C31.6238 10.2852 31.1186 10.4838 30.5951 10.6414C30.6226 10.9764 30.6379 11.315 30.6379 11.657C30.6379 15.4446 29.1565 16.5923 27.0849 18.425C27.1253 18.1618 27.1468 17.8905 27.1468 17.613C27.1468 16.0545 26.0257 14.7909 24.6427 14.7909C23.2598 14.7909 22.1387 16.0545 22.1387 17.613L24.4046 18.0352L27.4458 20.316C29.3383 18.3377 32.2003 16.9777 32.2003 11.657C32.2004 11.1099 32.167 10.571 32.1012 10.043Z" fill="#D273B3"/>
<path d="M20 12.415C21.3037 13.7998 23.0368 14.3194 23.4692 14.5272L20 17.9912V12.415Z" fill="#D273B3"/>
<path d="M20.5762 16.8319C20.5762 15.2733 21.6973 14.0098 23.0802 14.0098C24.4632 14.0098 25.5843 15.2733 25.5843 16.8319C25.5843 19.468 23.6439 21.5363 22.0307 21.5363C21.4041 21.5363 20.678 21.2868 20.2852 20.8728L20.5762 16.8319Z" fill="#F4E2C1"/>
<path d="M19.9904 2.89575C19.6669 2.89575 19.4045 3.15809 19.4045 3.48169V16.8319C19.4045 21.7376 18.1824 24.7671 15.363 26.9157C15.0412 28.0968 14.5156 28.8032 14.5156 28.8032C18.7812 26.5978 20.5764 22.7815 20.5764 16.8319V3.48169C20.5764 3.15802 20.314 2.89575 19.9904 2.89575Z" fill="#DA8BC1"/>
<path d="M22.8442 24.6501C22.8442 23.8469 22.8442 21.5023 22.8442 20.8872C22.8442 20.3161 22.5439 19.8045 22.1891 19.6807C22.0739 19.655 21.9546 19.6404 21.8318 19.6404C20.9275 19.6404 20.1943 20.3735 20.1943 21.2778V24.8063C20.1943 25.3678 20.5647 25.8737 20.9532 26.2501C22.2111 26.2501 22.8442 25.4705 22.8442 24.6501Z" fill="#F5FCFF"/>
<path d="M22.1891 19.6807C22.258 19.8616 22.2973 20.0571 22.2973 20.2621V24.65C22.2973 25.1747 21.5993 25.7914 20.9531 26.2501C21.3815 26.6653 21.8318 26.923 21.8318 26.923C21.8318 26.923 23.4692 25.987 23.4692 24.8063C23.4692 24.0032 23.4692 21.8929 23.4692 21.2778C23.4692 20.4964 22.9214 19.8439 22.1891 19.6807Z" fill="#DCF2F6"/>
<path d="M38.9453 34.6838C38.9453 34.5655 38.9453 34.1375 38.5823 33.9531C38.4746 33.9206 38.3605 33.9026 38.2422 33.9026C37.595 33.9026 37.0703 34.4273 37.0703 35.0745C37.0703 35.1928 37.0882 35.3069 37.1209 35.4145C37.3703 35.8557 37.6552 35.8557 37.7734 35.8557C38.4206 35.8557 38.9453 35.331 38.9453 34.6838Z" fill="#EAACDE"/>
<path d="M38.582 33.9531C38.6147 34.0608 38.6326 34.1749 38.6326 34.2932C38.6326 34.9404 38.1079 35.4651 37.4607 35.4651C37.3423 35.4651 37.2283 35.4472 37.1206 35.4145C37.2664 35.8958 37.7131 36.2463 38.2419 36.2463C38.8891 36.2463 39.4138 35.7216 39.4138 35.0745C39.4138 34.5455 39.0633 34.0989 38.582 33.9531Z" fill="#DA8BC1"/>
<path d="M10.6435 38.2205L8.76318 35.0229C7.57607 35.341 6.43584 35.8133 5.37154 36.4278L2.09326 38.3205L5.87873 39.1018C7.10772 39.1018 9.45646 38.5386 10.6435 38.2205Z" fill="#DCF2F6"/>
<path d="M9.51834 37.8413C8.3313 38.1594 7.10763 38.3204 5.87873 38.3204H2.09326C1.57412 38.6201 1.78677 39.4138 2.38623 39.4138H6.1717C7.4006 39.4138 8.62427 39.2527 9.81131 38.9347L10.6435 38.2204L9.51834 37.8413Z" fill="#BAE6EF"/>
<path d="M37.7167 27.2651L8.76318 35.0232L9.51834 37.8416L38.4719 30.8648C38.93 30.742 39.3757 29.7255 39.0606 28.4154C38.7207 27.6339 38.1749 27.1423 37.7167 27.2651Z" fill="#F5FCFF"/>
<path d="M39.2469 28.9512C39.1961 28.7614 39.1328 28.5818 39.0603 28.4153C39.1567 29.2619 38.9297 29.9607 38.4716 30.0834L9.51807 37.8415L9.81103 38.9349L38.7646 31.1768C39.3204 31.0278 39.5364 30.0314 39.2469 28.9512Z" fill="#DCF2F6"/>
<path d="M6.17165 39.9998H2.3862C2.09331 39.9998 1.82503 39.8964 1.61901 39.7182L0.737764 39.9543C0.425031 40.0381 0.10386 39.8526 0.0201107 39.54C-0.063639 39.2274 0.121829 38.9062 0.434406 38.8223L1.23222 38.6086C1.29268 38.2816 1.49284 37.9906 1.80026 37.813L5.07853 35.9202C6.18657 35.2805 7.37516 34.7881 8.61148 34.4569L11.4377 33.6996L11.319 33.3824C11.1456 32.9191 11.1762 32.4013 11.4025 31.9615C11.6289 31.5219 12.0327 31.1964 12.5105 31.0684L16.0845 30.1107L16.0793 28.559C15.6741 28.832 15.2429 29.0865 14.7847 29.3234C14.5426 29.4487 14.2456 29.3901 14.069 29.1821C13.8924 28.9741 13.8827 28.6718 14.0458 28.4529C14.0529 28.4431 14.7424 27.4865 14.9578 25.9847C14.1492 26.2711 12.9002 26.6283 11.7005 26.6283C10.2581 26.6283 9.05851 25.5465 8.90984 24.1119L8.67391 21.9591C8.38297 21.8589 8.1225 21.6796 7.92219 21.4352C7.60274 21.0455 7.47625 20.5385 7.57516 20.0442C7.61657 19.837 7.65719 19.6393 7.69219 19.471L6.79719 19.169C6.27009 18.9912 5.86642 18.565 5.71735 18.0291C5.56829 17.4931 5.69392 16.9199 6.05337 16.4954L8.0875 14.0934C8.33258 13.804 8.46687 13.4359 8.46586 13.0567L8.465 12.8598H7.20555C6.98727 12.8598 6.78712 12.7384 6.6861 12.545C6.65149 12.4785 5.83751 10.8946 5.83751 8.81075C5.83751 6.13716 6.93743 4.02725 9.10679 2.53968C11.5646 0.854606 15.4236 0 20.5764 0C24.3374 0 27.483 1.19617 29.6733 3.45905C30.5298 4.34389 31.2219 5.38115 31.7344 6.52919C33.3935 5.87951 34.7404 5.87584 35.7432 6.51951C36.8768 7.24716 37.4515 8.71622 37.4515 10.8861C37.4515 13.0144 36.8974 14.4698 35.8047 15.2119C34.8909 15.8323 33.6794 15.8984 32.1983 15.4104C31.4654 17.4385 30.1633 18.6091 28.9677 19.6841C27.5325 20.9747 26.3988 21.9939 26.3988 24.2516V27.3472L26.4908 27.3225C27.023 27.18 27.5788 27.2906 28.0159 27.6259C28.4529 27.9612 28.7036 28.4696 28.7036 29.0204V29.0734L37.565 26.699C38.4611 26.4582 39.4278 27.3616 39.8131 28.7995C39.9768 29.4104 40.0061 30.0275 39.8956 30.5373C39.7577 31.1736 39.4008 31.6129 38.9165 31.7427L9.96296 39.5008C8.72672 39.8319 7.45118 39.9998 6.17165 39.9998ZM2.3862 38.828H6.17165C7.15336 38.828 8.13258 38.7205 9.09031 38.5081L8.35211 35.7529C7.41633 36.0477 6.51454 36.4444 5.66446 36.9352L2.3862 38.828ZM9.4807 35.4373L10.2255 38.217L38.6081 30.612C38.7221 30.5357 38.913 29.968 38.6812 29.1027C38.4493 28.2375 38.0002 27.8412 37.8632 27.8321L9.4807 35.4373ZM26.9473 28.4341C26.8963 28.4341 26.8449 28.4408 26.7941 28.4544L12.8137 32.2005C12.6521 32.2439 12.5209 32.3495 12.4443 32.4982C12.3677 32.647 12.3579 32.8153 12.4165 32.9719L12.5748 33.395L27.5316 29.3873V29.0204C27.5316 28.8367 27.4481 28.6673 27.3023 28.5556C27.1985 28.4757 27.0743 28.4341 26.9473 28.4341ZM17.2479 27.6568L17.2553 29.7971L25.227 27.6611V24.2515C25.227 22.5312 25.8027 21.3579 26.5861 20.4035L25.4949 19.585C25.1347 20.2794 24.6438 20.8876 24.0551 21.3448V24.806C24.0551 26.284 22.3203 27.3183 22.1225 27.4313C21.9424 27.5341 21.721 27.5341 21.541 27.4313C21.3432 27.3183 19.6085 26.2839 19.6085 24.806V24.6044C19.3631 25.0829 19.0882 25.5344 18.7826 25.9597C18.9511 26.4928 19.2051 26.9076 19.5468 27.2115C19.7887 27.4265 19.8104 27.7968 19.5953 28.0386C19.3804 28.2806 19.01 28.3022 18.7682 28.0872C18.4289 27.7855 18.1519 27.4204 17.9363 26.9886C17.7186 27.2205 17.4892 27.4432 17.2479 27.6568ZM15.6072 7.24724C15.9308 7.24724 16.1931 7.5095 16.1931 7.83317V25.0965C16.1931 25.9279 16.055 26.6607 15.8722 27.2668C16.4907 26.8001 17.0353 26.278 17.5089 25.6948C17.4088 25.1887 17.3592 24.624 17.3592 23.9977V13.0555C17.3592 12.7318 17.6214 12.4696 17.9451 12.4696C18.2688 12.4696 18.5311 12.7318 18.5311 13.0555V23.9978C18.5311 24.044 18.5314 24.0899 18.532 24.1352C19.5236 22.2386 19.9904 19.8425 19.9904 16.8318V2.9346C19.9904 2.61093 20.2527 2.34866 20.5764 2.34866C20.9 2.34866 21.1623 2.61093 21.1623 2.9346V5.00248C23.7011 7.44442 27.4402 8.20942 30.6544 6.98521C30.1984 5.96966 29.5861 5.05396 28.8312 4.27412C26.8668 2.2446 24.0124 1.17187 20.5764 1.17187C15.6646 1.17187 12.0286 1.95741 9.76953 3.50655C7.93805 4.76256 7.00938 6.54724 7.00938 8.81114C7.00938 10.0954 7.37625 11.1771 7.58492 11.6883H8.45961L8.45492 10.6446C8.45344 10.321 8.71461 10.0575 9.03828 10.0561H9.04093C9.36336 10.0561 9.62531 10.3167 9.62679 10.6394L9.63148 11.6884H10.9908C10.6876 11.0011 10.3602 9.98652 10.3602 8.81122C10.3602 6.85474 10.9369 5.19029 12.074 3.8642C12.2846 3.61842 12.6546 3.59006 12.9002 3.80077C13.1459 4.01139 13.1743 4.38131 12.9637 4.62694C12.0138 5.73474 11.5322 7.14247 11.5322 8.81122C11.5322 10.1203 12.0378 11.2146 12.2962 11.6884H15.0213V7.83325C15.0212 7.50958 15.2836 7.24724 15.6072 7.24724ZM21.8318 20.2261C21.2521 20.2261 20.7803 20.6978 20.7803 21.2776V24.8061C20.7803 25.3428 21.3994 25.9086 21.8319 26.2222C22.2639 25.9089 22.8833 25.3429 22.8833 24.8061V21.2776C22.8833 20.6978 22.4116 20.2261 21.8318 20.2261ZM9.85882 22.0151L10.075 23.988C10.1619 24.8268 10.8605 25.4568 11.7004 25.4568C12.9966 25.4568 14.3927 24.9621 15.0213 24.7094V12.8602H9.63679L9.63765 13.0529C9.63945 13.7111 9.40656 14.3494 8.98172 14.851L6.94758 17.2531C6.83758 17.3829 6.80063 17.5514 6.84626 17.7153C6.89188 17.8793 7.01055 18.0045 7.1718 18.0589L8.56063 18.5276C8.84328 18.623 9.00922 18.9156 8.94594 19.207C8.94484 19.2119 8.83789 19.7054 8.72422 20.2742C8.68351 20.4779 8.77195 20.6237 8.82836 20.6925C8.92562 20.8112 9.07008 20.8792 9.22453 20.8792C10.2602 20.8792 11.3287 20.4913 11.9288 20.1591C12.2121 20.0025 12.5685 20.105 12.7252 20.3882C12.8819 20.6713 12.7794 21.0279 12.4962 21.1845C11.8669 21.5327 10.8923 21.9008 9.85882 22.0151ZM21.8318 19.0542C22.6184 19.0542 23.3109 19.4647 23.7062 20.0828C24.4107 19.354 24.9985 18.1952 24.9985 16.8317C24.9985 15.5987 24.138 14.5956 23.0803 14.5956C22.0227 14.5956 21.1622 15.5987 21.1622 16.8317C21.1622 17.6621 21.1279 18.4481 21.0587 19.1929C21.2996 19.1032 21.5601 19.0542 21.8318 19.0542ZM25.9421 18.4557L27.3913 19.5426C27.6509 19.2922 27.9184 19.0516 28.1841 18.8127C29.8706 17.2963 31.6144 15.7284 31.6144 11.6567C31.6144 11.4071 31.6071 11.1597 31.5927 10.9146C29.9483 11.5704 28.0495 11.8071 26.1688 11.5809C24.3192 11.3589 22.6085 10.7219 21.1622 9.72379V14.1616C21.6896 13.6998 22.3562 13.4237 23.0803 13.4237C24.7842 13.4237 26.1703 14.9525 26.1703 16.8317C26.1703 17.3838 26.0908 17.9321 25.9421 18.4557ZM32.5227 14.2835C33.6591 14.6672 34.5406 14.6538 35.1463 14.2424C35.8877 13.739 36.2797 12.5783 36.2797 10.8861C36.2797 9.68645 36.0768 8.12622 35.1102 7.50567C34.3085 6.99122 33.1365 7.23997 32.1569 7.6227C32.5708 8.87793 32.7864 10.2379 32.7864 11.6568C32.7864 12.6541 32.6907 13.5211 32.5227 14.2835ZM21.1623 8.25333C23.9311 10.5631 28.194 11.1545 31.4594 9.69965C31.3691 9.14207 31.2398 8.60067 31.0731 8.07966C27.7686 9.33817 23.977 8.74051 21.1624 6.55044V8.25333H21.1623ZM27.6859 38.4889C27.4272 38.4889 27.1905 38.3163 27.1204 38.0545C27.0366 37.7419 27.2221 37.4206 27.5347 37.3368L36.4897 34.9373C36.5597 34.0318 37.319 33.3165 38.2422 33.3165C39.2114 33.3165 40 34.1051 40 35.0743C40 36.0435 39.2114 36.8321 38.2422 36.8321C37.6418 36.8321 37.111 36.5297 36.7936 36.0691L27.838 38.4687C27.7871 38.4824 27.7361 38.4889 27.6859 38.4889ZM38.2421 34.4885C37.919 34.4885 37.6562 34.7513 37.6562 35.0744C37.6562 35.3975 37.919 35.6603 38.2421 35.6603C38.5653 35.6603 38.8281 35.3975 38.8281 35.0744C38.8281 34.7513 38.5652 34.4885 38.2421 34.4885ZM12.5087 15.9227C12.023 15.9227 11.5374 15.8245 11.1502 15.6279C10.8617 15.4815 10.7465 15.1288 10.893 14.8403C11.0394 14.5517 11.3923 14.4365 11.6806 14.583C12.1139 14.8028 12.9033 14.8028 13.3367 14.583C13.6253 14.4363 13.9779 14.5517 14.1244 14.8403C14.2708 15.1288 14.1556 15.4815 13.8671 15.6279C13.48 15.8245 12.9944 15.9227 12.5087 15.9227Z" fill="black"/>
</g>
<defs>
<clipPath id="clip0_6361_47883">
<rect width="40" height="40" fill="white"/>
</clipPath>
</defs>
</svg>
