<svg width="40" height="40" viewBox="0 0 40 40" fill="none" xmlns="http://www.w3.org/2000/svg">
<path d="M23.385 30.0181L23.3546 29.9947L16.6531 29.9939L16.6226 30.0173C11.3602 30.5697 7.5 32.3814 7.5 34.5313C7.5 37.1204 13.096 39.2188 19.9999 39.2188C26.9037 39.2188 32.4997 37.1204 32.4997 34.5314C32.4997 32.3822 28.6436 30.5712 23.385 30.0181Z" fill="#85E374"/>
<path d="M20.0936 0.781606C26.9975 0.83395 32.5513 6.47216 32.4997 13.3752C32.456 19.2213 28.9779 22.6642 23.3545 29.9946C22.3076 31.3587 21.1865 32.8571 19.9998 34.5313C18.8162 32.8555 17.6975 31.3571 16.6529 29.9938C10.9578 22.5658 7.4554 19.1768 7.49993 13.1877C7.55228 6.28388 13.1906 0.730044 20.0936 0.781606ZM24.6873 13.3166C24.7068 10.7276 22.624 8.61357 20.035 8.59404C17.446 8.57451 15.332 10.6573 15.3124 13.2463C15.2929 15.8353 17.3757 17.9494 19.9647 17.9689C22.5538 17.9885 24.6678 15.9057 24.6873 13.3166Z" fill="#FD6244"/>
<path d="M20.0649 4.68777C20.4961 4.69089 20.8485 4.34402 20.8516 3.91277C20.8547 3.48152 20.5078 3.12917 20.0766 3.12527C19.6446 3.12214 19.2922 3.4698 19.2891 3.90105C19.286 4.3323 19.6328 4.68464 20.0649 4.68777Z" fill="black"/>
<path d="M20.0411 7.81288C17.0246 7.79148 14.5542 10.225 14.5314 13.2406C14.5087 16.2559 16.9435 18.7275 19.9591 18.7503C19.9731 18.7503 19.987 18.7504 20.0009 18.7504C22.9973 18.7504 25.4461 16.3242 25.4688 13.3226C25.4915 10.3073 23.0567 7.83562 20.0411 7.81288ZM20.0008 17.188C19.9909 17.188 19.9806 17.1879 19.9708 17.1878C17.8168 17.1716 16.0776 15.4061 16.0938 13.2523C16.11 11.1081 17.8591 9.37515 19.9994 9.37515C20.0092 9.37515 20.0195 9.37523 20.0294 9.37531C22.1834 9.39156 23.9226 11.157 23.9063 13.3109C23.8901 15.455 22.1411 17.188 20.0008 17.188Z" fill="black"/>
<path d="M23.4087 3.71774C23.0023 3.57352 22.5555 3.78641 22.4113 4.19313C22.2672 4.59985 22.4801 5.04633 22.8867 5.19055C26.3279 6.41016 28.6212 9.68759 28.5937 13.346C28.5905 13.7774 28.9376 14.1298 29.3691 14.1331C29.3711 14.1331 29.3731 14.1331 29.3751 14.1331C29.8037 14.1331 30.153 13.7871 30.1562 13.3577C30.1887 9.03368 27.4771 5.15969 23.4087 3.71774Z" fill="black"/>
<path d="M33.2809 13.3811C33.3359 6.01837 27.3608 0 19.9986 0C12.7223 0 6.77402 5.89282 6.71871 13.1819C6.67402 19.1925 9.98176 22.6756 15.214 29.4085C10.0089 30.1863 6.71871 32.1408 6.71871 34.5313C6.71871 36.1327 8.19887 37.5696 10.8866 38.5774C13.3329 39.4948 16.5694 40 19.9998 40C23.4302 40 26.6667 39.4948 29.1131 38.5774C31.8008 37.5695 33.2809 36.1326 33.2809 34.5312C33.2809 32.1419 29.9938 30.188 24.7934 29.4096C29.9898 22.7209 33.2371 19.2331 33.2809 13.3811ZM31.7184 34.5314C31.7184 36.3754 26.707 38.4377 19.9998 38.4377C13.2925 38.4377 8.28106 36.3754 8.28106 34.5314C8.28106 33.1639 11.277 31.4364 16.3144 30.8382C17.4279 32.2992 18.4041 33.6266 19.3616 34.9822C19.5079 35.1892 19.7455 35.3125 19.999 35.3126C19.9993 35.3126 19.9995 35.3126 19.9998 35.3126C20.253 35.3126 20.4906 35.1898 20.6371 34.9832C21.5855 33.6452 22.5885 32.2851 23.6925 30.839C28.7252 31.4378 31.7184 33.1648 31.7184 34.5314ZM22.7348 29.519C21.7541 30.7968 20.8535 32.0049 20.001 33.1867C19.151 32.0042 18.2683 30.8177 17.2729 29.5185C11.5475 22.0511 8.23879 18.885 8.28113 13.1937C8.32988 6.76173 13.5779 1.5625 19.9987 1.5625C26.4955 1.5625 31.767 6.87408 31.7185 13.3695C31.6769 18.9268 28.233 22.3515 22.7348 29.519Z" fill="black"/>
</svg>
