<svg width="41" height="40" viewBox="0 0 41 40" fill="none" xmlns="http://www.w3.org/2000/svg">
<g clip-path="url(#clip0_6379_20186)">
<path d="M9.21484 23.8422H15.5805V35.3383H9.21484V23.8422Z" fill="#B5CDFF"/>
<path d="M31.3071 1.22815H9.69307C9.27354 1.22815 8.93213 1.57112 8.93213 1.99299V6.70002C8.93213 7.12034 9.27354 7.46331 9.69307 7.46331H31.3071C31.7267 7.46331 32.0681 7.12112 32.0681 6.70002V1.99299C32.0681 1.57112 31.7267 1.22815 31.3071 1.22815Z" fill="#E5E5E8"/>
<path d="M40.5 16.6633V15.4039C40.5 15.3039 40.4758 15.2063 40.4305 15.1172L37.1508 8.76096C36.7375 7.96018 35.7961 7.46252 34.6953 7.46252H33.168C33.2648 7.22737 33.3187 6.96956 33.3187 6.69924V1.99299C33.3187 0.882056 32.4164 -0.0218506 31.3078 -0.0218506H9.69297C8.58359 -0.0218506 7.68203 0.882056 7.68203 1.99299V6.70002C7.68203 6.97034 7.73594 7.22737 7.83281 7.46331H6.30469C5.20078 7.46331 4.25937 7.96174 3.84922 8.76174L0.569531 15.1172C0.524219 15.2063 0.5 15.3047 0.5 15.4039V16.6633C0.5 18.8992 2.13672 20.7594 4.27344 21.1086V35.3375H2.83906C1.54922 35.3375 0.5 36.3891 0.5 37.6813V39.3969C0.5 39.7422 0.779687 40.0219 1.125 40.0219H39.875C40.2203 40.0219 40.5 39.7422 40.5 39.3969V37.6813C40.5 36.3891 39.45 35.3383 38.1586 35.3383H36.7266V21.1086C38.8633 20.7594 40.5 18.8992 40.5 16.6633ZM36.0398 9.3344L38.657 14.4063H32.5477L30.2797 8.71252H34.6953C35.3172 8.71252 35.8445 8.95706 36.0398 9.3344ZM16.9547 8.71252L16.0875 14.4063H9.79766L12.0656 8.71252H16.9547ZM18.2188 8.71252H22.7812L23.6484 14.4063H17.3516L18.2188 8.71252ZM24.9125 14.4063L24.0453 8.71252H28.9344L31.2023 14.4063H24.9125ZM8.93203 6.70002V1.99299C8.93203 1.57112 9.27344 1.22815 9.69297 1.22815H31.307C31.7266 1.22815 32.068 1.57112 32.068 1.99299V6.70002C32.068 7.12034 31.7266 7.46331 31.307 7.46331H9.69297C9.27344 7.46252 8.93203 7.12034 8.93203 6.70002ZM4.96094 9.33284C5.15078 8.96174 5.69141 8.71252 6.30469 8.71252H10.7203L8.45234 14.4063H2.34297L4.96094 9.33284ZM1.75 16.6633V15.6563H39.25V16.6633C39.25 18.4578 37.7922 19.918 35.9992 19.918C34.2062 19.918 32.7484 18.4578 32.7484 16.6633C32.7484 16.318 32.4688 16.0383 32.1234 16.0383C31.7781 16.0383 31.4984 16.318 31.4984 16.6633C31.4984 18.4578 30.0414 19.918 28.25 19.918C26.4578 19.918 24.9992 18.4578 24.9992 16.6633C24.9992 16.318 24.7195 16.0383 24.3742 16.0383C24.0289 16.0383 23.7492 16.318 23.7492 16.6633C23.7492 18.4578 22.2914 19.918 20.4984 19.918C18.7055 19.918 17.2477 18.4578 17.2477 16.6633C17.2477 16.318 16.968 16.0383 16.6227 16.0383C16.2773 16.0383 15.9977 16.318 15.9977 16.6633C15.9977 18.4578 14.5398 19.918 12.7469 19.918C10.9555 19.918 9.49844 18.4578 9.49844 16.6633C9.49844 16.318 9.21875 16.0383 8.87344 16.0383C8.52812 16.0383 8.24844 16.318 8.24844 16.6633C8.24844 18.4578 6.79063 19.918 4.99766 19.918C3.20469 19.918 1.75 18.4578 1.75 16.6633ZM39.25 37.6813V38.7719H1.75V37.6813C1.75 37.0782 2.23828 36.5883 2.83906 36.5883H38.1586C38.7602 36.5875 39.25 37.0782 39.25 37.6813ZM15.5812 35.3375H9.21562V23.8422H15.5812V35.3375ZM16.8312 35.3375V23.2172C16.8312 22.8719 16.5516 22.5922 16.2062 22.5922H8.59062C8.24531 22.5922 7.96562 22.8719 7.96562 23.2172V35.3383H5.52344V21.1375C6.95 20.9711 8.17578 20.1352 8.87578 18.9524C9.65938 20.2781 11.1023 21.1688 12.7492 21.1688C14.3969 21.1688 15.8406 20.2781 16.625 18.9524C17.4094 20.2781 18.8531 21.1688 20.5008 21.1688C22.1484 21.1688 23.5922 20.2781 24.3766 18.9524C25.1609 20.2781 26.6047 21.1688 28.2523 21.1688C29.8992 21.1688 31.3422 20.2781 32.1258 18.9524C32.8258 20.1352 34.0516 20.9719 35.4781 21.1375V35.3383H16.8312V35.3375ZM32.432 22.5922H19.8758C19.5305 22.5922 19.2508 22.8719 19.2508 23.2172V32.5242C19.2508 32.8696 19.5305 33.1492 19.8758 33.1492H32.432C32.7773 33.1492 33.057 32.8696 33.057 32.5242V23.2172C33.057 22.8719 32.7773 22.5922 32.432 22.5922ZM31.807 31.8992H20.5008V23.8422H31.807V31.8992ZM13.4906 30.8789V30.0547C13.4906 29.7094 13.7703 29.4297 14.1156 29.4297C14.4609 29.4297 14.7406 29.7094 14.7406 30.0547V30.8797C14.7406 31.225 14.4609 31.5047 14.1156 31.5047C13.7703 31.5047 13.4906 31.2242 13.4906 30.8789ZM28.1469 1.66956H26.6898C26.3445 1.66956 26.0648 1.94924 26.0648 2.29456V6.39846C26.0648 6.74377 26.3445 7.02346 26.6898 7.02346C27.0352 7.02346 27.3148 6.74377 27.3148 6.39846V5.37424H28.1469C29.168 5.37424 29.9984 4.54299 29.9984 3.52112C29.9984 2.50002 29.168 1.66956 28.1469 1.66956ZM28.1469 4.12424H27.3148V2.91956H28.1469C28.4789 2.91956 28.7484 3.18909 28.7484 3.52034C28.7484 3.85315 28.4789 4.12424 28.1469 4.12424ZM14.7242 5.13674C14.807 5.56096 14.6984 5.98284 14.4172 6.32424C14.0672 6.74924 13.4625 7.02346 12.8773 7.02346C12.1875 7.02346 11.5469 6.67971 11.1633 6.10393C10.9719 5.81643 11.05 5.42893 11.3367 5.23752C11.6242 5.04612 12.0117 5.12424 12.2031 5.41096C12.3539 5.63752 12.6062 5.77346 12.8766 5.77346C13.0859 5.77346 13.3391 5.66643 13.4516 5.52971C13.5078 5.46174 13.5047 5.41721 13.4969 5.37659C13.4664 5.22112 12.9844 5.04924 12.6656 4.93518C12.0102 4.70081 11.1945 4.4094 11.0281 3.55627C10.9453 3.13206 11.0539 2.71018 11.3352 2.36956C11.6852 1.94456 12.2906 1.66956 12.8773 1.66956C13.5656 1.66956 14.2055 2.01331 14.5891 2.58909C14.7805 2.87659 14.7023 3.26409 14.4156 3.45549C14.1281 3.6469 13.7406 3.56877 13.5492 3.28206C13.3984 3.05549 13.1477 2.91956 12.8781 2.91956C12.6672 2.91956 12.4133 3.02659 12.3008 3.16409C12.2453 3.23206 12.2477 3.27659 12.2555 3.31643C12.2859 3.4719 12.768 3.64377 13.0867 3.75784C13.7422 3.99221 14.5578 4.28362 14.7242 5.13674ZM19.9336 2.29456V6.39846C19.9336 6.74377 19.6539 7.02346 19.3086 7.02346C18.9633 7.02346 18.6836 6.74377 18.6836 6.39846V4.97034H16.8977V6.39846C16.8977 6.74377 16.618 7.02346 16.2727 7.02346C15.9273 7.02346 15.6477 6.74377 15.6477 6.39846V2.29456C15.6477 1.94924 15.9273 1.66956 16.2727 1.66956C16.618 1.66956 16.8977 1.94924 16.8977 2.29456V3.72034H18.6836V2.29456C18.6836 1.94924 18.9633 1.66956 19.3086 1.66956C19.6539 1.66956 19.9336 1.94924 19.9336 2.29456ZM22.9648 1.66956C21.7836 1.66956 20.8227 2.63127 20.8227 3.81331V4.87971C20.8227 6.06174 21.7836 7.02346 22.9648 7.02346C24.1461 7.02346 25.107 6.06174 25.107 4.87971V3.81331C25.107 2.63127 24.1461 1.66956 22.9648 1.66956ZM23.857 4.87971C23.857 5.37268 23.457 5.77346 22.9648 5.77346C22.4727 5.77346 22.0727 5.37268 22.0727 4.87971V3.81331C22.0727 3.32034 22.4727 2.91956 22.9648 2.91956C23.457 2.91956 23.857 3.32034 23.857 3.81331V4.87971Z" fill="black"/>
<path d="M10.7201 8.71252H6.30449C5.69121 8.71252 5.15059 8.96174 4.96074 9.33284L2.34277 14.4063H8.45215L10.7201 8.71252Z" fill="#FC6067"/>
<path d="M16.0877 14.4063L16.9549 8.71252H12.0658L9.79785 14.4063H16.0877Z" fill="#E5E5E8"/>
<path d="M17.3516 14.4063H23.6484L22.7813 8.71252H18.2188L17.3516 14.4063Z" fill="#FC6067"/>
<path d="M24.0454 8.71252L24.9126 14.4063H31.2024L28.9345 8.71252H24.0454Z" fill="#E5E5E8"/>
<path d="M32.5478 14.4063H38.6571L36.0399 9.3344C35.8446 8.95706 35.3173 8.71252 34.6954 8.71252H30.2798L32.5478 14.4063Z" fill="#FC6067"/>
<path d="M1.75 37.6812V38.7719H39.25V37.6812C39.25 37.0781 38.7602 36.5883 38.1586 36.5883H2.83906C2.23828 36.5875 1.75 37.0781 1.75 37.6812Z" fill="#334A5C"/>
<path d="M35.4767 35.3375V21.1375C34.0501 20.9711 32.8243 20.1351 32.1243 18.9523C31.3407 20.2781 29.8978 21.1687 28.2509 21.1687C26.6032 21.1687 25.1595 20.2781 24.3751 18.9523C23.5907 20.2781 22.147 21.1687 20.4993 21.1687C18.8517 21.1687 17.4079 20.2781 16.6235 18.9523C15.8392 20.2781 14.3954 21.1687 12.7478 21.1687C11.1009 21.1687 9.65791 20.2781 8.87432 18.9523C8.17432 20.1351 6.94854 20.9719 5.52197 21.1375V35.3383H7.96338V23.2172C7.96338 22.8719 8.24307 22.5922 8.58838 22.5922H16.204C16.5493 22.5922 16.829 22.8719 16.829 23.2172V35.3383H35.4767V35.3375ZM19.2509 23.2172C19.2509 22.8719 19.5306 22.5922 19.8759 22.5922H32.4321C32.7774 22.5922 33.0571 22.8719 33.0571 23.2172V32.5242C33.0571 32.8695 32.7774 33.1492 32.4321 33.1492H19.8759C19.5306 33.1492 19.2509 32.8695 19.2509 32.5242V23.2172Z" fill="#FDCF66"/>
<path d="M20.501 23.8422H31.8072V31.8992H20.501V23.8422Z" fill="#B5CDFF"/>
<path d="M1.75 16.6633C1.75 18.4578 3.20781 19.918 5.00078 19.918C6.79375 19.918 8.25156 18.4578 8.25156 16.6633C8.25156 16.318 8.53125 16.0383 8.87656 16.0383C9.22188 16.0383 9.50156 16.318 9.50156 16.6633C9.50156 18.4578 10.9586 19.918 12.75 19.918C14.5422 19.918 16.0008 18.4578 16.0008 16.6633C16.0008 16.318 16.2805 16.0383 16.6258 16.0383C16.9711 16.0383 17.2508 16.318 17.2508 16.6633C17.2508 18.4578 18.7086 19.918 20.5016 19.918C22.2945 19.918 23.7523 18.4578 23.7523 16.6633C23.7523 16.318 24.032 16.0383 24.3773 16.0383C24.7227 16.0383 25.0023 16.318 25.0023 16.6633C25.0023 18.4578 26.4602 19.918 28.2531 19.918C30.0445 19.918 31.5016 18.4578 31.5016 16.6633C31.5016 16.318 31.7812 16.0383 32.1266 16.0383C32.4719 16.0383 32.7516 16.318 32.7516 16.6633C32.7516 18.4578 34.2094 19.918 36.0023 19.918C37.7953 19.918 39.25 18.4578 39.25 16.6633V15.6562H1.75V16.6633Z" fill="#EA5762"/>
<path d="M32.1237 15.6562H24.3745V16.0383C24.7198 16.0383 24.9995 16.318 24.9995 16.6633C24.9995 18.4578 26.4573 19.918 28.2503 19.918C30.0417 19.918 31.4987 18.4578 31.4987 16.6633C31.4987 16.318 31.7784 16.0383 32.1237 16.0383V15.6562Z" fill="#DCDCE2"/>
<path d="M8.87549 15.6562V16.0383C9.2208 16.0383 9.50049 16.318 9.50049 16.6633C9.50049 18.4578 10.9575 19.918 12.7489 19.918C14.5411 19.918 15.9997 18.4578 15.9997 16.6633C15.9997 16.318 16.2794 16.0383 16.6247 16.0383V15.6562H8.87549Z" fill="#DCDCE2"/>
</g>
<defs>
<clipPath id="clip0_6379_20186">
<rect width="40" height="40" fill="white" transform="translate(0.5)"/>
</clipPath>
</defs>
</svg>
