<svg width="56" height="56" viewBox="0 0 56 56" fill="none" xmlns="http://www.w3.org/2000/svg">
<path d="M29.8477 6.31641L32.9092 9.67578L37.2412 8.29688L39.8564 7.46484L40.4424 10.1455L41.4131 14.5859L45.8545 15.5576L48.5352 16.1436L47.7031 18.7588L46.3232 23.0898L49.6836 26.1523L51.7119 28L49.6836 29.8477L46.3232 32.9092L47.7031 37.2412L48.5352 39.8564L45.8545 40.4424L41.4131 41.4131L40.4424 45.8545L39.8564 48.5352L37.2412 47.7031L32.9092 46.3232L29.8477 49.6836L28 51.7119L26.1523 49.6836L23.0898 46.3232L18.7588 47.7031L16.1436 48.5352L15.5576 45.8545L14.5859 41.4131L10.1455 40.4424L7.46484 39.8564L8.29688 37.2412L9.67578 32.9092L6.31641 29.8477L4.28809 28L6.31641 26.1523L9.67578 23.0898L8.29688 18.7588L7.46484 16.1436L10.1455 15.5576L14.5859 14.5859L15.5576 10.1455L16.1436 7.46484L18.7588 8.29688L23.0898 9.67578L26.1523 6.31641L28 4.28809L29.8477 6.31641Z" fill="#667085" stroke="#D0D5DD" stroke-width="5"/>
<path d="M12.1418 20.1072L14.0964 19.7221L16.1049 29.9168L14.1503 30.3019L12.1418 20.1072ZM17.6129 24.4758C17.4609 23.7042 17.4313 22.9615 17.5243 22.2478C17.6223 21.533 17.828 20.8927 18.1411 20.3267C18.8126 19.1274 19.8177 18.3959 21.1566 18.1321C22.4392 17.8794 23.5615 18.1599 24.5234 18.9737C25.4598 19.766 26.0806 20.9363 26.3856 22.4846C26.7299 24.2323 26.5435 25.6837 25.8262 26.839C25.1858 27.8729 24.2294 28.5152 22.957 28.7659C21.7255 29.0085 20.6047 28.7356 19.5947 27.9472C18.5715 27.1455 17.9109 25.9884 17.6129 24.4758ZM20.7729 26.3694C21.0551 26.6164 21.3682 26.7909 21.7121 26.893C22.0551 26.99 22.3875 27.0068 22.7094 26.9434C23.0365 26.879 23.3264 26.7475 23.5793 26.5491C23.8322 26.3506 24.0428 26.0862 24.2113 25.7557C24.5883 25.0019 24.6726 24.0961 24.4642 23.0384C24.2508 21.955 23.8655 21.1311 23.3084 20.5667C22.7482 20.0135 22.0976 19.8099 21.3567 19.9559C20.6106 20.1029 20.073 20.5539 19.744 21.3088C19.4109 22.0698 19.349 22.9818 19.5584 24.0447C19.7588 25.0616 20.1636 25.8365 20.7729 26.3694ZM28.0681 22.4159C27.9161 21.6443 27.8866 20.9016 27.9795 20.1879C28.0776 19.4732 28.2832 18.8328 28.5964 18.2668C29.2678 17.0675 30.273 16.336 31.6118 16.0722C32.8945 15.8195 34.0168 16.1 34.9787 16.9138C35.9151 17.7061 36.5358 18.8764 36.8409 20.4248C37.1852 22.1724 36.9987 23.6239 36.2814 24.7791C35.6411 25.813 34.6847 26.4553 33.4123 26.706C32.1807 26.9486 31.06 26.6757 30.05 25.8874C29.0268 25.0856 28.3661 23.9285 28.0681 22.4159ZM31.2282 24.3095C31.5104 24.5565 31.8235 24.7311 32.1674 24.8332C32.5103 24.9302 32.8428 24.947 33.1647 24.8835C33.4917 24.8191 33.7817 24.6876 34.0346 24.4892C34.2874 24.2907 34.4981 24.0263 34.6666 23.6958C35.0436 22.942 35.1279 22.0363 34.9195 20.9785C34.7061 19.8951 34.3208 19.0713 33.7637 18.5068C33.2035 17.9537 32.5529 17.7501 31.8119 17.896C31.0659 18.043 30.5283 18.494 30.1993 19.2489C29.8661 20.01 29.8043 20.9219 30.0137 21.9848C30.214 23.0017 30.6189 23.7766 31.2282 24.3095ZM16.2286 35.2818C16.6071 35.155 17.0004 35.0513 17.4084 34.971C18.1685 34.8212 18.7808 34.8864 19.2453 35.1664C19.7121 35.4432 20.0154 35.9364 20.1553 36.6463C20.2802 37.2806 20.1625 37.8249 19.802 38.2792C19.4651 38.7055 18.978 38.9815 18.3408 39.107C18.2682 39.1213 18.1877 39.1328 18.0994 39.1415L18.4017 40.6757L17.3328 40.8863L16.2286 35.2818ZM17.7332 35.9564C17.6493 35.9729 17.5661 35.9923 17.4833 36.0144L17.9177 38.2193C18.0094 38.2128 18.1195 38.197 18.248 38.1716C18.3766 38.1463 18.5055 38.0933 18.6347 38.0127C18.7634 37.9293 18.8657 37.8293 18.9414 37.7128C19.0996 37.4697 19.146 37.1819 19.0805 36.8493C18.934 36.1059 18.4849 35.8083 17.7332 35.9564ZM20.8629 37.9395C20.8024 37.6321 20.7962 37.3285 20.8446 37.0286C20.8952 36.7255 20.9976 36.4498 21.152 36.2017C21.4903 35.6647 22.0005 35.3291 22.6823 35.1947C23.3614 35.0609 23.9429 35.1685 24.4268 35.5173C24.89 35.8499 25.1858 36.3417 25.3141 36.9929C25.4423 37.644 25.3516 38.2222 25.0418 38.7274C24.7146 39.2621 24.2073 39.5972 23.5198 39.7327C22.81 39.8725 22.2101 39.7599 21.7201 39.3949C21.2742 39.0618 20.9885 38.5767 20.8629 37.9395ZM21.8766 37.7137C21.9113 37.8897 21.9742 38.0544 22.0654 38.2077C22.1566 38.361 22.2682 38.4857 22.4003 38.5816C22.6824 38.7902 23.012 38.8573 23.3893 38.783C23.7386 38.7141 23.9894 38.5356 24.1416 38.2472C24.2899 37.9683 24.326 37.6361 24.25 37.2504C24.1729 36.8592 24.0101 36.5632 23.7616 36.3625C23.4957 36.1478 23.1756 36.0773 22.8011 36.1511C22.421 36.226 22.1504 36.4216 21.9892 36.7378C21.8431 37.0279 21.8056 37.3532 21.8766 37.7137ZM25.3871 33.4513C25.5418 33.0579 25.7146 32.7045 25.9054 32.3911L26.9462 32.922C26.8553 33.0938 26.7721 33.2611 26.6968 33.424C26.6968 33.424 26.6192 33.5975 26.464 33.9445L25.3871 33.4513ZM27.5062 38.3943C27.5535 38.6346 27.59 38.79 27.6154 38.8605L26.5507 39.0702L25.6877 34.6897L26.7356 34.4832L27.5062 38.3943ZM29.7817 37.8763C29.8302 38.1222 29.8766 38.2988 29.921 38.4062L28.8688 38.6135L28.0058 34.233L29.0244 34.0323L29.0979 34.4054C29.4068 34.0281 29.7708 33.7982 30.19 33.7156C30.6483 33.6253 31.0452 33.7097 31.3808 33.9687C31.7158 34.2249 31.9333 34.6074 32.0336 35.116L32.3623 36.7843C32.4553 37.2566 32.5182 37.5389 32.5509 37.6312C32.5836 37.7234 32.6138 37.7813 32.6417 37.8049C32.6724 37.8279 32.6983 37.8489 32.7194 37.8679L32.7144 37.8864C32.4841 37.9114 32.3173 37.9341 32.2139 37.9545L31.9205 38.0123C31.8311 38.0299 31.7117 38.0578 31.5625 38.0959L31.1124 35.8113C30.9511 34.9925 30.6217 34.6321 30.1242 34.7301C29.7554 34.8028 29.484 35.0536 29.3102 35.4827L29.7817 37.8763ZM35.5702 36.3352C35.9307 36.2642 36.1596 36.1218 36.2568 35.9082L36.2904 35.9016L36.4945 36.8716C36.3846 37.0355 36.1482 37.1764 35.7853 37.2944C35.6874 37.3282 35.5631 37.3599 35.4122 37.3897C35.264 37.4189 35.0965 37.4228 34.9094 37.4016C34.7251 37.3799 34.5591 37.3182 34.4114 37.2167C34.1058 37.0069 33.8986 36.6254 33.7896 36.072L33.4146 34.1689L32.7816 34.2936C32.7629 34.2131 32.7452 34.131 32.7287 34.0471L32.6015 33.4016C32.5922 33.3541 32.5889 33.33 32.5917 33.3295L33.2247 33.2048L32.9893 32.0101L34.0163 31.8078L34.2517 33.0024L35.4044 32.7753L35.5944 33.7395L34.4416 33.9666L34.7786 35.6769C34.865 36.1156 35.0359 36.3418 35.2911 36.3554C35.3738 36.3623 35.4668 36.3556 35.5702 36.3352ZM38.883 36.7058C38.095 36.8611 37.4728 36.8342 37.0164 36.6251C37.0055 36.5401 36.9952 36.4435 36.9854 36.3351L36.9637 36.0258C36.9469 35.823 36.9367 35.6973 36.9329 35.6487C36.9286 35.5973 36.9276 35.5699 36.9298 35.5666C36.9315 35.5604 36.9583 35.5784 37.0101 35.6204C37.0614 35.6597 37.1526 35.7027 37.2837 35.7494C37.4148 35.7961 37.5625 35.8309 37.7267 35.8537C38.0818 35.9028 38.4396 35.8918 38.8001 35.8208C39.2836 35.7255 39.4936 35.5172 39.4303 35.1958C39.41 35.0924 39.3487 35.0247 39.2466 34.9925C39.0652 34.9412 38.8097 34.9262 38.48 34.9476C38.1526 34.9657 37.8787 34.9529 37.6581 34.9092C37.4376 34.8656 37.2515 34.7977 37.0998 34.7057C36.8188 34.5317 36.6431 34.2659 36.5726 33.9082C36.4867 33.4722 36.5869 33.0968 36.8733 32.7821C37.1574 32.4706 37.5929 32.2571 38.1797 32.1415C38.761 32.0269 39.2895 32.0941 39.7653 32.3429C39.76 32.4194 39.7528 32.4934 39.7437 32.5649C39.7158 32.762 39.6944 32.9041 39.6796 32.9912L39.632 33.2575C39.6308 33.281 39.6288 33.293 39.626 33.2935C39.6204 33.2946 39.5923 33.2697 39.5416 33.2187C39.3253 33.0494 39.025 32.9692 38.6407 32.9782C38.5217 32.9784 38.4021 32.9903 38.282 33.014C37.7733 33.1142 37.5493 33.318 37.6099 33.6254C37.6308 33.7316 37.6999 33.8022 37.8171 33.8372C38.0364 33.9043 38.3229 33.9291 38.6765 33.9117C39.033 33.8937 39.3092 33.9104 39.5051 33.9618C39.7005 34.0104 39.8645 34.0841 39.9971 34.1828C40.2413 34.3611 40.3989 34.6305 40.4699 34.991C40.5475 35.3851 40.4527 35.7362 40.1854 36.0443C39.9068 36.3692 39.4727 36.5897 38.883 36.7058ZM42.7327 34.2535C42.5869 34.2648 42.3407 34.3046 41.9942 34.3728L41.6588 34.4389L40.8427 30.3409L41.2275 30.2825L41.3197 30.2643C41.6439 30.2005 41.8485 30.1486 41.9335 30.1086L42.7327 34.2535ZM42.8685 34.8102C42.8849 34.9521 42.9145 35.1321 42.9574 35.3501C42.9998 35.5653 43.0363 35.7207 43.0667 35.8163L41.9559 36.0351C41.9441 35.8575 41.9217 35.6848 41.8886 35.5171C41.8551 35.3466 41.8142 35.1834 41.766 35.0274L42.8685 34.8102Z" fill="white"/>
</svg>
