<svg width="56" height="56" viewBox="0 0 56 56" fill="none" xmlns="http://www.w3.org/2000/svg">
<path d="M30.1807 6.31641L33.2422 9.67578L37.5742 8.29688L40.1895 7.46484L40.7754 10.1455L41.7461 14.5859L46.1875 15.5576L48.8682 16.1436L48.0361 18.7588L46.6562 23.0898L50.0166 26.1523L52.0449 28L50.0166 29.8477L46.6562 32.9092L48.0361 37.2412L48.8682 39.8564L46.1875 40.4424L41.7461 41.4131L40.7754 45.8545L40.1895 48.5352L37.5742 47.7031L33.2422 46.3232L30.1807 49.6836L28.333 51.7119L26.4854 49.6836L23.4229 46.3232L19.0918 47.7031L16.4766 48.5352L15.8906 45.8545L14.9189 41.4131L10.4785 40.4424L7.79785 39.8564L8.62988 37.2412L10.0088 32.9092L6.64941 29.8477L4.62109 28L6.64941 26.1523L10.0088 23.0898L8.62988 18.7588L7.79785 16.1436L10.4785 15.5576L14.9189 14.5859L15.8906 10.1455L16.4766 7.46484L19.0918 8.29688L23.4229 9.67578L26.4854 6.31641L28.333 4.28809L30.1807 6.31641Z" fill="#667085" stroke="#D0D5DD" stroke-width="5"/>
<path d="M17.9292 27.2113L18.0924 28.4594L18.0647 28.4735C17.7968 28.2041 17.405 28.0722 16.8894 28.078C16.7268 28.0781 16.5729 28.0925 16.4276 28.1211C16.2851 28.1492 16.1646 28.186 16.0661 28.2315C15.9705 28.2765 15.891 28.3299 15.8277 28.3917C15.6938 28.5226 15.6429 28.6691 15.6748 28.8312C15.7166 29.0435 15.8151 29.1896 15.9702 29.2694C16.1632 29.3649 16.4591 29.4009 16.858 29.3775C17.2564 29.3513 17.5817 29.3598 17.8341 29.4029C18.0865 29.4461 18.3016 29.5213 18.4795 29.6285C18.8152 29.8294 19.0293 30.1647 19.1218 30.6342C19.2429 31.249 19.1043 31.7683 18.7059 32.1923C18.3652 32.5555 17.8931 32.7966 17.2894 32.9155C16.8032 33.0113 16.3043 33.0138 15.7929 32.923C15.6243 32.8923 15.4733 32.848 15.34 32.7901L15.1103 31.3809L15.1246 31.3651C15.5889 31.8948 16.2165 32.0818 17.0074 31.926C17.5691 31.8153 17.9141 31.6066 18.0423 31.2997C18.0856 31.1954 18.0963 31.0873 18.0743 30.9755C18.0517 30.861 18.0151 30.7709 17.9644 30.7054C17.9132 30.6371 17.8405 30.5847 17.7462 30.5481C17.5632 30.4738 17.2767 30.4563 16.8867 30.4954C16.4966 30.5345 16.1702 30.5277 15.9072 30.4749C15.6443 30.4222 15.4255 30.3362 15.251 30.2167C14.9355 30.0001 14.7304 29.6515 14.6357 29.1709C14.5377 28.6734 14.633 28.2366 14.9218 27.8604C15.215 27.4775 15.6621 27.2268 16.2629 27.1084C16.8665 26.9895 17.422 27.0238 17.9292 27.2113ZM22.6226 31.7821C22.4851 31.7917 22.1384 31.8513 21.5822 31.9609L21.4481 31.9873L20.5347 27.3511L19.7047 27.5146C19.4588 27.5631 19.3159 27.6043 19.2762 27.6383C19.2364 27.6722 19.2059 27.7015 19.1846 27.726L19.1712 27.7243L18.9598 26.6511L18.9699 26.6361C19.0681 26.6487 19.3199 26.615 19.7251 26.5352L22.3534 26.0174C22.5993 25.9689 22.7422 25.9277 22.7819 25.8938C22.8217 25.8598 22.8522 25.8306 22.8735 25.806L22.8869 25.8077L23.0983 26.8809L23.0882 26.8959C22.99 26.8834 22.7382 26.917 22.333 26.9968L21.7042 27.1207L22.6226 31.7821ZM25.3196 31.2594C25.0749 31.2844 24.7918 31.3286 24.4704 31.3919L24.1393 31.4571L24.956 25.988C24.9919 25.7428 25.0063 25.6021 24.9991 25.5658C24.9914 25.5267 24.9853 25.5032 24.9809 25.4954L24.9834 25.4861C25.1667 25.4587 25.3604 25.4249 25.5644 25.3847C25.7321 25.3517 25.9327 25.3093 26.1664 25.2574L26.1722 25.265C26.1688 25.2773 26.1691 25.2932 26.1729 25.3128C26.1834 25.3659 26.2531 25.4987 26.3821 25.7114L29.2517 30.463C29.1952 30.4712 29.1293 30.4827 29.0538 30.4976C29.0538 30.4976 28.9806 30.5091 28.8342 30.5321C28.7643 30.5459 28.7014 30.5583 28.6456 30.5693L27.9958 30.6973L27.3639 29.5677L25.4692 29.941L25.3196 31.2594ZM26.8388 28.6261L25.8217 26.8015L25.5896 28.8722L26.8388 28.6261ZM31.065 30.1188C30.9276 30.1284 30.6674 30.171 30.2846 30.2464L29.9492 30.3125L28.8475 24.7205C29.0286 24.6964 29.2267 24.6632 29.4419 24.6208C29.6571 24.5784 29.8072 24.5372 29.8922 24.4973L31.7722 26.6133L32.6546 23.953C32.7485 23.9577 32.9211 23.9353 33.1726 23.8858C33.4242 23.8362 33.6382 23.7882 33.8149 23.7418L34.9166 29.3338L34.5813 29.3999C34.1984 29.4753 33.9416 29.5346 33.8107 29.5778L33.0707 25.8219L32.1831 28.5442L30.3639 26.5598L31.065 30.1188ZM35.1999 23.4559C35.5785 23.3291 35.9717 23.2254 36.3797 23.1451C37.1399 22.9953 37.7522 23.0605 38.2167 23.3405C38.6835 23.6173 38.9868 24.1105 39.1266 24.8204C39.2516 25.4547 39.1338 25.999 38.7734 26.4533C38.4364 26.8796 37.9494 27.1556 37.3122 27.2811C37.2395 27.2954 37.1591 27.3069 37.0708 27.3156L37.3731 28.8498L36.3041 29.0604L35.1999 23.4559ZM36.7045 24.1305C36.6207 24.147 36.5374 24.1664 36.4547 24.1885L36.8891 26.3934C36.9807 26.3869 37.0908 26.3711 37.2194 26.3457C37.3479 26.3204 37.4768 26.2674 37.6061 26.1868C37.7348 26.1034 37.837 26.0034 37.9128 25.8869C38.071 25.6438 38.1174 25.356 38.0518 25.0234C37.9054 24.28 37.4563 23.9824 36.7045 24.1305ZM41.6166 26.3852C41.4707 26.3965 41.2245 26.4363 40.878 26.5045L40.5427 26.5706L39.7266 22.4726L40.1113 22.4142L40.2036 22.3961C40.5277 22.3322 40.7323 22.2803 40.8174 22.2403L41.6166 26.3852ZM41.7524 26.9419C41.7687 27.0839 41.7984 27.2638 41.8413 27.4818C41.8837 27.697 41.9201 27.8524 41.9506 27.948L40.8397 28.1668C40.828 27.9892 40.8055 27.8165 40.7725 27.6488C40.7389 27.4783 40.6981 27.3151 40.6499 27.1591L41.7524 26.9419Z" fill="white"/>
</svg>
