<svg width="34" height="34" viewBox="0 0 34 34" fill="none" xmlns="http://www.w3.org/2000/svg">
<path d="M18.1084 3.99023L19.9453 6.00586L22.5449 5.17871L24.1133 4.67871L24.4658 6.28711L25.0479 8.95117L27.7129 9.53418L29.3213 9.88672L28.8213 11.4551L27.9932 14.0537L30.0098 15.8916L31.2275 17L30.0098 18.1084L27.9932 19.9453L28.8213 22.5449L29.3213 24.1133L27.7129 24.4658L25.0479 25.0479L24.4658 27.7129L24.1133 29.3213L22.5449 28.8213L19.9453 27.9932L18.1084 30.0098L17 31.2275L15.8916 30.0098L14.0537 27.9932L11.4551 28.8213L9.88672 29.3213L9.53418 27.7129L8.95117 25.0479L6.28711 24.4658L4.67871 24.1133L5.17871 22.5449L6.00586 19.9453L3.99023 18.1084L2.77246 17L3.99023 15.8916L6.00586 14.0537L5.17871 11.4551L4.67871 9.88672L6.28711 9.53418L8.95117 8.95117L9.53418 6.28711L9.88672 4.67871L11.4551 5.17871L14.0537 6.00586L15.8916 3.99023L17 2.77246L18.1084 3.99023Z" fill="#FFBB00" stroke="#DB9A00" stroke-width="3"/>
<path d="M10.7964 16.723L10.8943 17.4719L10.8777 17.4804C10.7169 17.3187 10.4819 17.2396 10.1725 17.2431C10.075 17.2431 9.9826 17.2518 9.89541 17.2689C9.8099 17.2858 9.73761 17.3079 9.67854 17.3352C9.62115 17.3622 9.57346 17.3942 9.53548 17.4313C9.45516 17.5098 9.42457 17.5977 9.44373 17.695C9.46884 17.8224 9.52791 17.9101 9.62095 17.9579C9.73675 18.0152 9.91432 18.0368 10.1537 18.0228C10.3927 18.007 10.5879 18.0121 10.7393 18.038C10.8907 18.0639 11.0198 18.1091 11.1265 18.1734C11.328 18.2939 11.4564 18.4951 11.5119 18.7768C11.5846 19.1457 11.5014 19.4573 11.2624 19.7117C11.058 19.9296 10.7747 20.0742 10.4125 20.1456C10.1208 20.2031 9.82147 20.2046 9.51461 20.1501C9.41345 20.1317 9.32286 20.1051 9.24286 20.0703L9.10502 19.2248L9.11359 19.2153C9.39221 19.5332 9.76877 19.6454 10.2433 19.5519C10.5803 19.4855 10.7873 19.3602 10.8643 19.1761C10.8902 19.1135 10.8966 19.0487 10.8834 18.9816C10.8699 18.9128 10.8479 18.8588 10.8175 18.8195C10.7868 18.7785 10.7431 18.7471 10.6866 18.7251C10.5768 18.6806 10.4049 18.67 10.1708 18.6935C9.93684 18.717 9.74095 18.7129 9.58318 18.6812C9.42541 18.6496 9.29417 18.598 9.18947 18.5263C9.00015 18.3964 8.87707 18.1872 8.82025 17.8988C8.76145 17.6003 8.81868 17.3382 8.99193 17.1125C9.16788 16.8828 9.4361 16.7324 9.79661 16.6613C10.1588 16.59 10.492 16.6105 10.7964 16.723ZM13.6124 19.4655C13.5299 19.4713 13.3219 19.5071 12.9882 19.5728L12.9077 19.5887L12.3597 16.8069L11.8617 16.9051C11.7141 16.9341 11.6284 16.9589 11.6046 16.9792C11.5807 16.9996 11.5624 17.0172 11.5496 17.0319L11.5416 17.0308L11.4147 16.387L11.4208 16.3779C11.4797 16.3855 11.6308 16.3653 11.8739 16.3174L13.4509 16.0067C13.5985 15.9776 13.6842 15.9529 13.708 15.9325C13.7319 15.9122 13.7502 15.8946 13.763 15.8799L13.771 15.8809L13.8979 16.5248L13.8918 16.5338C13.8328 16.5263 13.6818 16.5465 13.4387 16.5944L13.0614 16.6687L13.6124 19.4655ZM15.2306 19.1519C15.0838 19.1669 14.914 19.1934 14.7211 19.2314L14.5224 19.2706L15.0125 15.9891C15.034 15.842 15.0426 15.7575 15.0383 15.7357C15.0337 15.7123 15.0301 15.6982 15.0274 15.6935L15.0289 15.688C15.1389 15.6715 15.2551 15.6512 15.3775 15.6271C15.4781 15.6073 15.5985 15.5818 15.7387 15.5507L15.7422 15.5553C15.7401 15.5626 15.7403 15.5722 15.7426 15.5839C15.7489 15.6158 15.7907 15.6955 15.8681 15.8231L17.5899 18.6741C17.556 18.679 17.5164 18.6859 17.4711 18.6948C17.4711 18.6948 17.4272 18.7017 17.3394 18.7156C17.2975 18.7238 17.2597 18.7313 17.2262 18.7379L16.8363 18.8147L16.4572 18.1369L15.3204 18.3609L15.2306 19.1519ZM16.1421 17.5719L15.5319 16.4772L15.3926 17.7196L16.1421 17.5719ZM18.6779 18.4675C18.5954 18.4733 18.4393 18.4989 18.2096 18.5441L18.0084 18.5838L17.3474 15.2286C17.456 15.2141 17.5749 15.1942 17.704 15.1688C17.8331 15.1433 17.9231 15.1186 17.9742 15.0946L19.1022 16.3643L19.6316 14.7681C19.6879 14.7709 19.7915 14.7575 19.9424 14.7277C20.0933 14.698 20.2218 14.6692 20.3278 14.6414L20.9888 17.9966L20.7876 18.0362C20.5579 18.0815 20.4038 18.117 20.3253 18.143L19.8813 15.8894L19.3487 17.5228L18.2572 16.3322L18.6779 18.4675ZM21.1588 14.4698C21.3859 14.3937 21.6219 14.3315 21.8667 14.2833C22.3228 14.1935 22.6902 14.2326 22.9689 14.4006C23.2489 14.5666 23.4309 14.8626 23.5148 15.2885C23.5898 15.6691 23.5192 15.9957 23.3029 16.2682C23.1007 16.524 22.8085 16.6896 22.4262 16.7649C22.3826 16.7735 22.3343 16.7804 22.2813 16.7856L22.4627 17.7062L21.8213 17.8325L21.1588 14.4698ZM22.0616 14.8746C22.0113 14.8845 21.9613 14.8961 21.9117 14.9094L22.1723 16.2323C22.2273 16.2284 22.2933 16.2189 22.3705 16.2037C22.4476 16.1885 22.5249 16.1567 22.6025 16.1084C22.6797 16.0583 22.7411 15.9983 22.7865 15.9284C22.8815 15.7825 22.9093 15.6099 22.87 15.4103C22.7821 14.9643 22.5126 14.7857 22.0616 14.8746ZM25.0088 16.2274C24.9213 16.2342 24.7736 16.258 24.5657 16.299L24.3645 16.3386L23.8748 13.8798L24.1057 13.8448L24.161 13.8339C24.3555 13.7956 24.4783 13.7644 24.5293 13.7404L25.0088 16.2274ZM25.0903 16.5614C25.1001 16.6466 25.1179 16.7546 25.1436 16.8853C25.1691 17.0145 25.1909 17.1077 25.2092 17.1651L24.5427 17.2964C24.5356 17.1898 24.5222 17.0862 24.5024 16.9856C24.4822 16.8833 24.4577 16.7853 24.4288 16.6918L25.0903 16.5614Z" fill="white"/>
</svg>
