<svg width="41" height="40" viewBox="0 0 41 40" fill="none" xmlns="http://www.w3.org/2000/svg">
<g clip-path="url(#clip0_6379_20346)">
<path d="M15.3804 13.8785L14.0929 12.2682C13.9899 12.1393 13.8339 12.0643 13.669 12.0643H10.3293C10.1644 12.0643 10.0084 12.1393 9.90539 12.2682L8.61789 13.8785H6.10742V23.522H17.261C17.6087 23.522 17.8906 23.2401 17.8906 22.8924V14.5082C17.8906 14.1604 17.6087 13.8785 17.261 13.8785H15.3804Z" fill="#30569F"/>
<path d="M17.261 22.0572H6.10742V23.522H17.261C17.6087 23.522 17.8906 23.2401 17.8906 22.8924V21.4276C17.8906 21.7753 17.6087 22.0572 17.261 22.0572Z" fill="#26447E"/>
<path d="M11.9992 21.6917C13.6513 21.6917 14.9906 20.3524 14.9906 18.7003C14.9906 17.0482 13.6513 15.7089 11.9992 15.7089C10.3471 15.7089 9.00781 17.0482 9.00781 18.7003C9.00781 20.3524 10.3471 21.6917 11.9992 21.6917Z" fill="#5392F9"/>
<path d="M3.28572 23.522H6.15455C6.47502 23.522 6.73478 23.2623 6.73478 22.9418V14.4588C6.73478 14.1383 6.47502 13.8787 6.15463 13.8787H3.28572C2.96525 13.8787 2.70557 14.1384 2.70557 14.4588V22.9419C2.70557 23.2623 2.96533 23.522 3.28572 23.522Z" fill="#75CFF9"/>
<path d="M6.15455 22.0572H3.28572C2.96525 22.0572 2.70557 21.7974 2.70557 21.4769V22.9418C2.70557 23.2622 2.96533 23.522 3.28572 23.522H6.15455C6.47502 23.522 6.73478 23.2622 6.73478 22.9418V21.4769C6.73478 21.7974 6.47502 22.0572 6.15455 22.0572Z" fill="#5FA7EE"/>
<path d="M13.7756 25.8621H10.222C10.1018 25.8621 10.0044 25.7647 10.0044 25.6445V23.522H13.9932V25.6445C13.9932 25.7647 13.8958 25.8621 13.7756 25.8621Z" fill="#BED9FD"/>
<path d="M33.1082 0.585938H24.0333C23.8017 0.585938 23.5877 0.709531 23.4719 0.910078L18.9345 8.76914C18.8187 8.96969 18.8187 9.2168 18.9345 9.41742L23.4719 17.2765C23.5877 17.477 23.8018 17.6006 24.0333 17.6006H33.1082C33.3398 17.6006 33.5538 17.477 33.6696 17.2765L38.207 9.41742C38.3228 9.21688 38.3228 8.96977 38.207 8.76914L33.6696 0.910078C33.5538 0.709531 33.3398 0.585938 33.1082 0.585938Z" fill="#75CFF9"/>
<path d="M38.2072 8.76913L37.3946 7.36163C37.4102 7.49843 37.383 7.63906 37.3119 7.76226L32.7401 15.6807C32.6235 15.8828 32.4079 16.0073 32.1745 16.0073H23.0312C22.904 16.0073 22.7826 15.9692 22.6792 15.9028L23.4722 17.2764C23.588 17.4769 23.802 17.6005 24.0337 17.6005H33.1085C33.3401 17.6005 33.5541 17.4769 33.6699 17.2764L38.2073 9.41734C38.3231 9.21679 38.3231 8.96968 38.2072 8.76913Z" fill="#5FA7EE"/>
<path d="M28.571 11.4373C29.8656 11.4373 30.915 10.3879 30.915 9.09331C30.915 7.79877 29.8656 6.74933 28.571 6.74933C27.2765 6.74933 26.2271 7.79877 26.2271 9.09331C26.2271 10.3879 27.2765 11.4373 28.571 11.4373Z" fill="#F4DAA7"/>
<path d="M27.1304 23.8345V39.1016C27.1304 39.2741 27.2703 39.4141 27.4429 39.4141H29.6997C29.8723 39.4141 30.0122 39.2741 30.0122 39.1016V23.8345C30.0122 23.662 29.8723 23.522 29.6997 23.522H27.4429C27.2703 23.522 27.1304 23.662 27.1304 23.8345Z" fill="#30569F"/>
<path d="M15.1188 31.9152H8.87973C8.46777 31.9152 8.13379 31.5812 8.13379 31.1693V29.9778C8.13379 29.5659 8.46777 29.2319 8.87973 29.2319H15.1187C15.5307 29.2319 15.8646 29.5659 15.8646 29.9778V31.1693C15.8647 31.5812 15.5307 31.9152 15.1188 31.9152Z" fill="#75CFF9"/>
<path d="M15.1185 29.2319H13.124C13.536 29.2319 13.87 29.5659 13.87 29.9778V31.1693C13.87 31.5812 13.536 31.9152 13.124 31.9152H15.1185C15.5304 31.9152 15.8644 31.5812 15.8644 31.1693V29.9778C15.8644 29.5658 15.5304 29.2319 15.1185 29.2319Z" fill="#5FA7EE"/>
<path d="M17.2614 13.2926H15.6625L14.5508 11.9021C14.3354 11.6328 14.0142 11.4784 13.6693 11.4784H10.3296C9.98473 11.4784 9.66348 11.6328 9.44801 11.9022L8.33645 13.2926H6.28199C6.24027 13.2881 6.19793 13.2853 6.15496 13.2853H3.28621C2.64324 13.2853 2.12012 13.8085 2.12012 14.4515V22.9344C2.12012 23.5774 2.64316 24.1006 3.28621 24.1006H6.01973C6.04855 24.105 6.07777 24.1079 6.10785 24.1079H9.4191V25.6445C9.4191 26.0875 9.77957 26.448 10.2226 26.448H11.4135V28.6459H8.87988C8.14551 28.6459 7.54801 29.2433 7.54801 29.9778V31.1693C7.54801 31.9036 8.14543 32.5011 8.87988 32.5011H9.42785L7.79309 39.2766C7.71715 39.5911 7.91066 39.9077 8.22527 39.9836C8.27145 39.9948 8.3177 40.0001 8.36316 40.0001C8.62762 40.0001 8.86754 39.8198 8.9323 39.5514L10.6334 32.5011H13.3655L15.0666 39.5514C15.1314 39.8199 15.3713 40.0001 15.6357 40.0001C15.6812 40.0001 15.7275 39.9948 15.7736 39.9836C16.0882 39.9077 16.2818 39.5912 16.2058 39.2766L14.5711 32.5011H15.1189C15.8533 32.5011 16.4509 31.9037 16.4509 31.1693V29.9778C16.4509 29.2434 15.8534 28.6459 15.1189 28.6459H12.5854V26.448H13.7763C14.2193 26.448 14.5798 26.0875 14.5798 25.6445V24.1079H17.2614C17.9316 24.1079 18.477 23.5626 18.477 22.8923V14.5082C18.477 13.8379 17.9316 13.2926 17.2614 13.2926ZM15.2789 29.9777V31.1692C15.2789 31.2574 15.2071 31.3292 15.1189 31.3292H8.87988C8.79168 31.3292 8.71988 31.2574 8.71988 31.1692V29.9777C8.71988 29.8895 8.79168 29.8177 8.87988 29.8177H15.1189C15.2071 29.8178 15.2789 29.8895 15.2789 29.9777ZM13.4079 25.2761H10.591V24.1079H13.4079V25.2761ZM17.3051 22.8923C17.3051 22.9164 17.2855 22.936 17.2614 22.936H7.32113V18.693C7.32113 18.3693 7.05887 18.1071 6.73527 18.1071C6.41168 18.1071 6.14934 18.3693 6.14934 18.693V22.9288H3.29199V14.4572H6.02027C6.04895 14.4615 6.07801 14.4645 6.10785 14.4645H6.14926V15.9586C6.14926 16.2823 6.41152 16.5446 6.7352 16.5446C7.05887 16.5446 7.32113 16.2823 7.32113 15.9586V14.4645H8.61816C8.79621 14.4645 8.96465 14.3835 9.07582 14.2445L10.3503 12.6503H13.6486L14.923 14.2445C15.0343 14.3835 15.2026 14.4645 15.3807 14.4645H17.2613C17.2854 14.4645 17.305 14.4841 17.305 14.5082V22.8923H17.3051Z" fill="black"/>
<path d="M11.9991 15.1229C10.0266 15.1229 8.42188 16.7277 8.42188 18.7003C8.42188 20.6728 10.0266 22.2776 11.9991 22.2776C13.9717 22.2776 15.5765 20.6728 15.5765 18.7003C15.5765 16.7277 13.9717 15.1229 11.9991 15.1229ZM11.9991 21.1057C10.6728 21.1057 9.59375 20.0267 9.59375 18.7003C9.59375 17.3739 10.6727 16.2948 11.9991 16.2948C13.3255 16.2948 14.4046 17.3739 14.4046 18.7003C14.4046 20.0267 13.3255 21.1057 11.9991 21.1057Z" fill="black"/>
<path d="M38.8797 9.09328L38.8796 9.09148C38.8793 8.87867 38.8244 8.66594 38.7149 8.47617L36.6764 4.94539C36.5146 4.66508 36.1561 4.56922 35.876 4.73094C35.5957 4.89273 35.4997 5.25109 35.6615 5.53133L37.3796 8.50711H31.4421C31.3131 7.87414 30.9789 7.31516 30.5129 6.90172L33.4829 1.75766L34.2172 3.02961C34.3789 3.30984 34.7375 3.40578 35.0176 3.24406C35.2979 3.08227 35.3939 2.72391 35.2321 2.44367L34.1774 0.616953C33.9575 0.236406 33.548 0 33.1086 0H24.0338C23.8148 0 23.6033 0.05875 23.4189 0.164766C23.4182 0.165234 23.4173 0.165547 23.4165 0.166016C23.4152 0.166797 23.4139 0.167734 23.4126 0.168516C23.2297 0.275078 23.0739 0.428281 22.965 0.617031L18.4275 8.47609C18.3179 8.66586 18.2631 8.87859 18.2628 9.09141L18.2627 9.0932C18.2627 9.30648 18.3177 9.52008 18.4275 9.71031L22.965 17.5693C23.0725 17.7555 23.2255 17.9068 23.4051 18.0131C23.409 18.0155 23.4126 18.0182 23.4166 18.0205C23.4186 18.0216 23.4206 18.0223 23.4225 18.0234C23.6061 18.1282 23.8162 18.1863 24.0339 18.1863H27.9853V22.9359H27.4429C26.9475 22.9359 26.5444 23.339 26.5444 23.8344V27.018C26.5444 27.3417 26.8067 27.604 27.1304 27.604C27.454 27.604 27.7163 27.3417 27.7163 27.018V24.1078H29.4263V38.8279H27.7163V29.7525C27.7163 29.4288 27.454 29.1666 27.1304 29.1666C26.8067 29.1666 26.5444 29.4288 26.5444 29.7525V39.1015C26.5444 39.5969 26.9475 39.9999 27.4429 39.9999H29.6997C30.1951 39.9999 30.5982 39.5969 30.5982 39.1015V23.8345C30.5982 23.3391 30.1951 22.936 29.6997 22.936H29.1572V18.1864H33.1088C33.5483 18.1864 33.9578 17.95 34.1776 17.5694L38.715 9.71039C38.8247 9.52016 38.8797 9.30656 38.8797 9.09328ZM24.674 17.0145L27.6437 11.8718C27.9354 11.9695 28.2471 12.0232 28.5712 12.0232C28.8953 12.0232 29.2069 11.9695 29.4986 11.8719L32.4676 17.0145H24.674ZM30.3291 9.09297C30.3291 10.0625 29.5405 10.8513 28.5712 10.8513C27.6019 10.8513 26.8132 10.0625 26.8132 9.09297C26.8132 8.12375 27.6019 7.33516 28.5712 7.33516C29.5405 7.33516 30.3291 8.12375 30.3291 9.09297ZM28.5712 6.16328C28.2469 6.16328 27.9351 6.21703 27.6432 6.31477L24.6739 1.17188H32.4679L29.4987 6.31461C29.207 6.21703 28.8954 6.16328 28.5712 6.16328ZM23.6592 1.7582L26.6291 6.90203C26.1632 7.31539 25.8293 7.87422 25.7003 8.50703H19.7628L23.6592 1.7582ZM19.7625 9.67891H25.7004C25.8293 10.312 26.1635 10.8712 26.6296 11.2847L23.6593 16.4284L19.7625 9.67891ZM33.4827 16.4289L30.5128 11.2848C30.9789 10.8713 31.3131 10.3121 31.4421 9.67891H37.3799L33.4827 16.4289Z" fill="black"/>
</g>
<defs>
<clipPath id="clip0_6379_20346">
<rect width="40" height="40" fill="white" transform="translate(0.5)"/>
</clipPath>
</defs>
</svg>
