<svg width="41" height="40" viewBox="0 0 41 40" fill="none" xmlns="http://www.w3.org/2000/svg">
<path d="M9.54883 20.3678H31.451V16.198C31.451 10.1499 26.548 5.24689 20.4999 5.24689C14.4518 5.24689 9.54883 10.1499 9.54883 16.198V20.3678Z" fill="#ECF4FF"/>
<path d="M31.4513 16.198C31.4513 13.1301 30.1892 10.3574 28.1566 8.36926V12.597C28.1566 12.7064 28.1144 12.8097 28.0378 12.8879C27.0578 13.8878 26.5181 15.2096 26.5181 16.6097V20.2726C26.5181 20.3046 26.5194 20.3362 26.5204 20.3679H31.4513V16.198Z" fill="#CBE2FF"/>
<path d="M32.4564 39.4141C33.5642 39.4141 34.056 38.0023 33.1748 37.331C32.711 36.9777 32.1793 36.7027 31.5964 36.5285L25.7995 34.797C24.7906 34.4956 24.0993 33.5676 24.0993 32.5147V27.2578H16.9012V32.5146C16.9012 33.5675 16.2099 34.4955 15.2011 34.7969L9.40418 36.5284C8.82129 36.7026 8.28957 36.9776 7.82574 37.3309C6.94464 38.0022 7.43644 39.414 8.5441 39.414H32.4564V39.4141Z" fill="#FFE8C8"/>
<path d="M11.5575 37.7285L17.3544 35.997C18.3633 35.6956 19.0546 34.9922 19.0546 34.2569V34.2445C19.0546 33.6274 19.5685 33.1283 20.1848 33.1597C20.3244 33.1668 20.4643 33.1704 20.6044 33.1704C21.8119 33.1704 23.0055 32.9086 24.0993 32.4088V27.2578H16.9012V32.5146C16.9012 33.5675 16.2099 34.4955 15.2011 34.7969L9.40418 36.5284C8.82129 36.7026 8.28957 36.9776 7.82574 37.3309C6.94464 38.0022 7.43644 39.414 8.5441 39.414H9.08425C9.69972 38.6295 10.5523 38.0288 11.5575 37.7285Z" fill="#FAB684"/>
<path d="M21.5748 5.29947C21.2212 5.26501 20.8627 5.24689 20.4999 5.24689C14.4518 5.24689 9.54883 10.1499 9.54883 16.198V20.3678H14.4798C14.4808 20.3361 14.4821 20.3045 14.4821 20.2726V16.6906C14.4821 15.2797 13.9919 13.8726 12.9721 12.8974C12.8893 12.8183 12.8436 12.7109 12.8436 12.597V12.0306C12.8436 11.5278 12.978 11.0338 13.2353 10.602C14.9723 7.68611 18.0251 5.64532 21.5748 5.29947Z" fill="#CBE2FF"/>
<path d="M24.4224 30.4616L24.0298 30.6886C21.943 31.8956 19.3751 31.9153 17.2699 30.7407L16.7186 30.4331C13.3806 28.5706 11.312 25.0475 11.312 21.2251V19.3538C11.312 14.2795 15.4255 10.1659 20.4999 10.1659C25.5742 10.1659 29.6878 14.2794 29.6878 19.3538V21.3339C29.6877 25.0982 27.6809 28.577 24.4224 30.4616Z" fill="#FFE8C8"/>
<path d="M19.4233 30.7407L18.8719 30.4331C15.534 28.5706 13.4654 25.0475 13.4654 21.2251V19.3538C13.4654 14.6438 17.0097 10.7622 21.5765 10.229C21.2233 10.1878 20.8642 10.1659 20.4999 10.1659C15.4256 10.1659 11.312 14.2794 11.312 19.3538V21.2251C11.312 25.0475 13.3807 28.5706 16.7186 30.4331L17.2699 30.7407C18.6315 31.5005 20.1866 31.7598 21.68 31.5221C20.8992 31.3977 20.1347 31.1377 19.4233 30.7407Z" fill="#FAB684"/>
<path d="M5.14119 11.9258C5.14119 14.3011 5.50814 16.6622 6.229 18.9254L6.62275 20.1615C7.10963 21.6901 7.92221 23.0949 9.0044 24.2791L12.4774 28.0794C12.9474 28.5937 13.7567 28.5963 14.2299 28.085C14.5851 27.7012 14.6483 27.1305 14.3856 26.6783L11.493 21.699C12.2808 21.699 12.9195 21.0603 12.9195 20.2725V16.6096C12.9195 15.6269 12.5342 14.6833 11.8463 13.9815C11.484 13.6117 11.281 13.1147 11.281 12.5969V9.27185H5.14111L5.14119 11.9258Z" fill="#FE8187"/>
<path d="M29.7188 12.5969C29.7188 13.1147 29.5159 13.6117 29.1534 13.9815C28.4656 14.6833 28.0803 15.6269 28.0803 16.6096V20.2725C28.0803 21.0603 28.719 21.699 29.5068 21.699L26.6142 26.6783C26.3516 27.1305 26.4147 27.7012 26.7699 28.085C27.2431 28.5962 28.0524 28.5936 28.5224 28.0794L31.9954 24.2791C33.0776 23.0949 33.8902 21.6901 34.377 20.1615L34.7708 18.9254C35.4916 16.6621 35.8586 14.3011 35.8586 11.9258V9.27185H29.7188V12.5969H29.7188Z" fill="#FE8187"/>
<path d="M9.87877 0.585938H6.54338C5.76893 0.585938 5.14111 1.21375 5.14111 1.98812V9.2718H11.281V1.98812C11.281 1.21375 10.6532 0.585938 9.87877 0.585938Z" fill="#FFE8C8"/>
<path d="M34.4564 0.585938H31.121C30.3466 0.585938 29.7188 1.21375 29.7188 1.98812V9.2718H35.8586V1.98812C35.8586 1.21375 35.2309 0.585938 34.4564 0.585938Z" fill="#FFE8C8"/>
<path d="M5.14119 11.9258C5.14119 14.3011 5.50814 16.6622 6.229 18.9254L6.62275 20.1615C7.10963 21.6901 7.92221 23.0949 9.00439 24.2791L12.4774 28.0794C12.9474 28.5937 13.7567 28.5963 14.2299 28.085C14.2481 28.0653 14.265 28.0448 14.2817 28.0243L10.859 24.2791C9.77682 23.0949 8.96424 21.6901 8.47736 20.1615L8.08361 18.9254C7.36275 16.6621 6.9958 14.3011 6.9958 11.9258V9.27185H5.14111L5.14119 11.9258Z" fill="#FF646F"/>
<path d="M29.7191 12.5969C29.7191 13.1147 29.5161 13.6117 29.1537 13.9815C28.4658 14.6833 28.0806 15.6269 28.0806 16.6096V20.2725C28.0806 21.0603 28.7192 21.699 29.507 21.699L29.8855 21.0444C29.7417 20.8218 29.6574 20.5572 29.6574 20.2724V16.6095C29.6574 15.6268 30.0427 14.6833 30.7305 13.9814C31.0928 13.6116 31.2959 13.1146 31.2959 12.5969V9.27185H29.719V12.5969H29.7191Z" fill="#FF646F"/>
<path d="M8.39807 0.585938H6.54338C5.76893 0.585938 5.14111 1.21375 5.14111 1.98812V9.2718H6.9958V1.98812C6.99588 1.21375 7.62361 0.585938 8.39807 0.585938Z" fill="#FAB684"/>
<path d="M32.6978 0.585938H31.121C30.3466 0.585938 29.7188 1.21375 29.7188 1.98812V9.2718H31.2956V1.98812C31.2956 1.21375 31.9234 0.585938 32.6978 0.585938Z" fill="#FAB684"/>
<path d="M17.9407 20.1497L17.7681 20.2635C17.0664 20.726 16.1596 20.726 15.4578 20.2633L15.2853 20.1497C15.0151 19.9719 14.6517 20.0466 14.4737 20.3168C14.2956 20.587 14.3704 20.9504 14.6407 21.1285L14.813 21.2419C15.3598 21.6023 15.9863 21.7826 16.613 21.7826C17.2396 21.7826 17.8662 21.6023 18.4129 21.2421L18.5854 21.1285C18.8556 20.9504 18.9305 20.587 18.7524 20.3168C18.5743 20.0465 18.2108 19.9718 17.9407 20.1497Z" fill="black"/>
<path d="M26.3587 21.1284C26.629 20.9504 26.7038 20.5869 26.5258 20.3167C26.3477 20.0464 25.9844 19.9718 25.7141 20.1497L25.5416 20.2634C24.8398 20.7259 23.933 20.7259 23.2312 20.2633L23.0587 20.1497C22.7886 19.9719 22.4251 20.0466 22.2471 20.3167C22.0691 20.5869 22.1438 20.9503 22.4141 21.1284L22.5864 21.2419C23.1332 21.6023 23.7598 21.7825 24.3865 21.7825C25.013 21.7825 25.6397 21.6023 26.1863 21.242L26.3587 21.1284Z" fill="black"/>
<path d="M22.472 26.9785C22.7423 26.8004 22.8171 26.437 22.6391 26.1667C22.461 25.8964 22.0976 25.8218 21.8274 25.9997L21.6548 26.1135C20.9531 26.576 20.0463 26.576 19.3445 26.1133L19.172 25.9997C18.9019 25.8219 18.5384 25.8966 18.3604 26.1667C18.1823 26.437 18.2571 26.8003 18.5274 26.9785L18.6997 27.0919C19.2465 27.4523 19.873 27.6325 20.4998 27.6325C21.1263 27.6325 21.753 27.4523 22.2996 27.0921L22.472 26.9785Z" fill="black"/>
<path d="M35.8586 5.83281C36.1822 5.83281 36.4446 5.57055 36.4446 5.24688V1.98812C36.4446 0.891875 35.5526 0 34.4563 0H31.121C30.0246 0 29.1328 0.891875 29.1328 1.98812V8.54383C26.9588 6.08719 23.8395 4.66094 20.4999 4.66094C17.1597 4.66094 14.0408 6.08859 11.867 8.54602V5.89688C11.867 5.5732 11.6046 5.31094 11.281 5.31094C10.9574 5.31094 10.6951 5.5732 10.6951 5.89688V8.68586H5.72713V1.98812C5.72705 1.53813 6.0933 1.17188 6.54338 1.17188H9.87877C10.3288 1.17188 10.695 1.53813 10.695 1.98812V3.30938C10.695 3.63305 10.9574 3.89531 11.281 3.89531C11.6046 3.89531 11.8669 3.63305 11.8669 3.30938V1.98812C11.8669 0.891875 10.975 0 9.87877 0H6.54338C5.44713 0 4.55518 0.891875 4.55518 1.98812V11.9259C4.55518 14.3647 4.93049 16.7795 5.67064 19.1033L6.06439 20.3394C6.57338 21.9373 7.44041 23.4364 8.57182 24.6744L12.0449 28.4748C12.3792 28.8405 12.8551 29.0512 13.3506 29.0527H13.356C13.5317 29.0527 13.7047 29.026 13.8702 28.9759C14.5833 29.7113 15.4031 30.3535 16.3148 30.8769V32.5145C16.3148 33.3023 15.7876 34.0099 15.0328 34.2353L9.23596 35.967C8.59486 36.1584 8.0008 36.4605 7.4701 36.8648C6.86908 37.3227 6.63752 38.0833 6.88025 38.8024C7.12588 39.5299 7.77877 40 8.54369 40H32.456C33.221 40 33.8738 39.5299 34.1193 38.8026C34.3621 38.0834 34.1306 37.3229 33.5296 36.865C32.9988 36.4606 32.4048 36.1586 31.7637 35.9671L30.499 35.5893C30.1889 35.4965 29.8625 35.673 29.7699 35.983C29.6772 36.2931 29.8535 36.6195 30.1635 36.7122L31.4283 37.09C31.9335 37.2409 32.4015 37.4788 32.8194 37.7972C33.1164 38.0235 33.0396 38.3371 33.009 38.4278C32.9773 38.5217 32.8438 38.8281 32.456 38.8281H8.54369C8.15603 38.8281 8.02244 38.5217 7.9908 38.4278C7.96018 38.3371 7.88338 38.0235 8.18049 37.7972C8.59838 37.4788 9.06635 37.2409 9.5715 37.09L15.3684 35.3584C16.6156 34.9857 17.4868 33.8164 17.4868 32.5147V31.5069C18.4719 31.9612 19.5376 32.1888 20.6035 32.1888C21.5955 32.1888 22.5871 31.9913 23.5131 31.5988V32.5147C23.5131 33.8164 24.3842 34.9858 25.6315 35.3584L27.5853 35.942C27.8953 36.0347 28.2218 35.8584 28.3145 35.5483C28.4071 35.2382 28.2309 34.9118 27.9207 34.8191L25.9669 34.2355C25.2121 34.01 24.6849 33.3024 24.6849 32.5147V30.9867L24.7158 30.9689C24.7158 30.9689 24.7158 30.9688 24.7159 30.9688C25.6489 30.4292 26.4843 29.7619 27.2081 28.998C27.3495 29.0338 27.4956 29.0529 27.6437 29.0529H27.6492C28.1447 29.0513 28.6206 28.8406 28.9549 28.4749L32.428 24.6745C33.5593 23.4365 34.4264 21.9375 34.9353 20.3395L35.3291 19.1034C36.0693 16.7797 36.4446 14.3648 36.4446 11.926V7.62187C36.4446 7.2982 36.1822 7.03594 35.8586 7.03594C35.535 7.03594 35.2727 7.2982 35.2727 7.62187V8.68594H30.3047V1.98812C30.3047 1.53805 30.6709 1.17188 31.121 1.17188H34.4564C34.9065 1.17188 35.2728 1.53813 35.2728 1.98812V5.24688C35.2727 5.57055 35.5349 5.83281 35.8586 5.83281ZM29.1328 10.4613V12.597C29.1328 12.9635 28.9914 13.3096 28.7349 13.5714C28.6643 13.6434 28.5977 13.718 28.5328 13.794C26.7665 11.2496 23.8249 9.57992 20.4999 9.57992C20.417 9.57992 20.3345 9.58203 20.2521 9.58406C22.1358 8.6893 24.1928 8.16438 26.2767 8.05367L26.8745 8.02188C27.7403 8.6982 28.5046 9.51766 29.1328 10.4613ZM20.4999 5.83281C22.1724 5.83281 23.7834 6.23156 25.2204 6.96625C22.8135 7.23648 20.4678 8.01836 18.3824 9.25266L15.7431 10.8147C15.7266 10.8245 15.7108 10.8349 15.6956 10.8459C14.4107 11.5745 13.3063 12.5855 12.4671 13.7942C12.4021 13.7182 12.3354 13.6434 12.2648 13.5713C12.0082 13.3095 11.8669 12.9635 11.8669 12.597V10.4613C13.7972 7.56133 17.0152 5.83281 20.4999 5.83281ZM9.43689 23.8839C8.419 22.7701 7.63893 21.4214 7.18103 19.9838L6.78728 18.7477C6.08377 16.539 5.72713 14.2439 5.72713 11.9259V9.85781H10.6951V12.597C10.6951 13.2722 10.9554 13.9095 11.4279 14.3917C12.012 14.9876 12.3336 15.7753 12.3336 16.6097V20.2727C12.3336 20.6287 12.1108 20.933 11.7975 21.0553L10.9807 19.6427C10.6203 19.0193 10.4299 18.3094 10.4299 17.5894V16.5094C10.4299 16.1857 10.1675 15.9234 9.84393 15.9234C9.52033 15.9234 9.25799 16.1857 9.25799 16.5094V17.5891C9.25799 18.5148 9.50291 19.4277 9.96619 20.229L13.8789 26.9727C14.0132 27.2038 13.9814 27.4908 13.7999 27.687C13.6837 27.8126 13.5256 27.8804 13.3543 27.8809C13.1832 27.8803 13.0254 27.8105 12.9099 27.6841L9.43689 23.8839ZM24.1292 29.9543L23.7365 30.1813C21.8385 31.2791 19.4701 31.2973 17.5554 30.2289L17.0041 29.9212C16.1942 29.4694 15.4648 28.912 14.8259 28.2737C15.2078 27.7143 15.2414 26.985 14.8923 26.384L12.3888 22.0744C13.0502 21.7443 13.5055 21.0605 13.5055 20.2725V16.6095C13.5055 16.0089 13.3827 15.4263 13.1511 14.8899C14.6624 12.4111 17.3905 10.7518 20.4999 10.7518C23.6094 10.7518 26.3375 12.4109 27.8488 14.8897C27.6172 15.4262 27.4943 16.0088 27.4943 16.6096V20.2726C27.4943 21.0607 27.9496 21.7445 28.611 22.0745L26.1075 26.3841C25.7454 27.0074 25.7955 27.7687 26.2185 28.3354C25.6037 28.9584 24.9044 29.5059 24.1292 29.9543ZM35.2727 9.85781V11.9259C35.2727 14.2439 34.916 16.5391 34.2125 18.7477L33.8188 19.9838C33.3608 21.4214 32.5807 22.7701 31.5629 23.8839L28.0898 27.6843C27.9743 27.8105 27.8165 27.8805 27.6454 27.881C27.6448 27.881 27.6441 27.881 27.6435 27.881C27.4731 27.881 27.3156 27.8122 27.1999 27.6871C27.0183 27.4909 26.9866 27.2039 27.1208 26.9728L31.0335 20.2291C31.4969 19.4278 31.7417 18.515 31.7417 17.5893V16.5094C31.7417 16.1857 31.4794 15.9234 31.1558 15.9234C30.8322 15.9234 30.5699 16.1857 30.5699 16.5094V17.5891C30.5699 18.3091 30.3794 19.0191 30.019 19.6424L29.2022 21.0551C28.889 20.9327 28.6661 20.6284 28.6661 20.2724V16.6095C28.6661 15.7751 28.9878 14.9874 29.5718 14.3915C30.0444 13.9093 30.3046 13.272 30.3046 12.5968V9.85781H35.2727Z" fill="black"/>
</svg>
