<svg width="24" height="24" viewBox="0 0 24 24" fill="none" xmlns="http://www.w3.org/2000/svg">
<path d="M16.1309 6.83203C16.8049 6.88 18.7172 7.07263 19.9561 8.81934C19.8567 8.87809 17.6756 10.0953 17.7002 12.626C17.7277 15.6527 20.4704 16.6606 20.502 16.6719C20.4773 16.744 20.063 18.1074 19.0557 19.5156C18.1852 20.7356 17.2833 21.9491 15.8604 21.9746C14.4621 21.9988 14.0114 21.1798 12.4141 21.1797C10.8158 21.1797 10.3152 21.9488 8.99316 21.999C7.61947 22.0487 6.57323 20.6812 5.69629 19.4678C3.90391 16.9846 2.53272 12.4495 4.37305 9.38965C5.28674 7.86988 6.92032 6.90787 8.69238 6.88281C10.0417 6.85877 11.3142 7.75179 12.1396 7.75195C12.9531 7.75195 14.4119 6.71021 16.1309 6.83203ZM16.1543 2C16.2895 3.17073 15.7984 4.34836 15.0684 5.19336C14.3392 6.03856 13.144 6.69506 11.9727 6.6084C11.812 5.46186 12.4043 4.26288 13.0791 3.51465C13.8329 2.67026 15.1034 2.03983 16.1543 2Z" fill="white"/>
</svg>
