<svg width="24" height="24" viewBox="0 0 24 24" fill="none" xmlns="http://www.w3.org/2000/svg">
<path fill-rule="evenodd" clip-rule="evenodd" d="M20.6374 10.363H12.1777V13.8445H17.0108C16.9104 14.3946 16.7 14.9186 16.392 15.385C16.0841 15.8513 15.685 16.2503 15.219 16.5578V18.8166H18.1207C20.4059 16.7076 21.1774 13.3635 20.6374 10.363Z" fill="#3E82F1"/>
<path fill-rule="evenodd" clip-rule="evenodd" d="M12.1811 21.0002C14.6057 21.0002 16.6385 20.1947 18.1241 18.8202L15.2224 16.5614C14.4179 17.1015 13.3892 17.4212 12.1811 17.4212C9.84201 17.4212 7.86244 15.8373 7.15691 13.71H4.15625V16.0425C4.90373 17.5334 6.05008 18.7865 7.4672 19.662C8.88433 20.5375 10.5164 21.0008 12.1811 21.0002Z" fill="#32A753"/>
<path fill-rule="evenodd" clip-rule="evenodd" d="M7.15492 13.7097C6.77931 12.6009 6.77931 11.3989 7.15492 10.2901V7.95752H4.15426C3.52625 9.21206 3.19922 10.5963 3.19922 11.9999C3.19922 13.4035 3.52625 14.7877 4.15426 16.0422L7.15492 13.7097Z" fill="#F9BB00"/>
<path fill-rule="evenodd" clip-rule="evenodd" d="M12.1814 6.57897C13.5002 6.57897 14.6837 7.03344 15.6143 7.92543L18.1894 5.34359C16.6346 3.89114 14.6017 3 12.1831 3C10.5184 2.99938 8.88628 3.46269 7.46916 4.33817C6.05203 5.21365 4.90569 6.46681 4.1582 7.95765L7.15886 10.2902C7.8644 8.16284 9.84396 6.57897 12.1831 6.57897H12.1814Z" fill="#E74133"/>
</svg>
